<?xml version="1.0" encoding="UTF-8"?>
<svg version="1.1" xmlns="http://www.w3.org/2000/svg" width="600" height="600">
<path d="M0 0 C0.77085937 -0.02835938 1.54171875 -0.05671875 2.3359375 -0.0859375 C4.625 0.375 4.625 0.375 6.48193359 2.23242188 C8.62938338 4.37938238 10.55396119 5.65966102 13.203125 7.1171875 C14.10393799 7.61847168 15.00475098 8.11975586 15.93286133 8.63623047 C16.90376709 9.16877441 17.87467285 9.70131836 18.875 10.25 C20.96827081 11.41518956 23.06069327 12.58190425 25.15234375 13.75 C26.22726074 14.34941406 27.30217773 14.94882813 28.40966797 15.56640625 C33.45286892 18.40315892 38.4460885 21.32335718 43.4375 24.25 C55.04682417 31.04623272 66.69477178 37.77385904 78.3515625 44.48828125 C81.5897516 46.3546838 84.82639438 48.22373763 88.0625 50.09375 C98.68377862 56.23009454 109.31572963 62.34662963 119.97131348 68.42315674 C130.24489574 74.28194006 140.48771194 80.19023476 150.69677734 86.16088867 C167.57623076 96.03027297 184.53547902 105.76016316 201.52011108 115.447052 C210.75612791 120.71648908 219.96185942 126.03588763 229.1340332 131.41577148 C233.81587961 134.16109547 238.50722432 136.88407696 243.234375 139.55078125 C244.11407959 140.04989014 244.99378418 140.54899902 245.90014648 141.06323242 C247.53884661 141.99114065 249.18135277 142.91237381 250.82836914 143.82543945 C251.55145264 144.23624756 252.27453613 144.64705566 253.01953125 145.0703125 C253.64706299 145.42109863 254.27459473 145.77188477 254.92114258 146.13330078 C257.77215482 148.21099791 259.44545845 150.23828121 260.00334883 153.77041334 C260.00570563 155.11739273 260.00570563 155.11739273 260.00811005 156.49158382 C260.01716669 157.53103301 260.02622333 158.5704822 260.03555441 159.64142984 C260.02756252 161.35225436 260.02756252 161.35225436 260.01940918 163.09764099 C260.02550028 164.31034591 260.03159139 165.52305083 260.03786707 166.77250439 C260.05165369 170.14024634 260.05194312 173.50750152 260.0464921 176.8752352 C260.04382538 180.50654399 260.05834691 184.13778999 260.07058716 187.76907349 C260.09165819 194.88364955 260.09618107 201.99814415 260.09439927 209.11274772 C260.09309254 214.89446603 260.09689123 220.67615888 260.10432434 226.45787239 C260.10642349 228.12217825 260.10852109 229.78648412 260.11061716 231.45078999 C260.11218245 232.69327625 260.11218245 232.69327625 260.11377937 233.96086324 C260.13268832 249.63222679 260.13162947 265.30354355 260.12481004 280.97491378 C260.11923346 295.31734403 260.1400637 309.65959572 260.17317051 324.00198423 C260.20688764 338.72282196 260.22207836 353.4435741 260.21745348 368.16445118 C260.21520686 376.43150735 260.22048001 384.69839845 260.24534607 392.96542168 C260.26633367 400.00302081 260.2699766 407.04036436 260.25104648 414.07797389 C260.2418729 417.66958991 260.24079426 421.26072908 260.26140213 424.85230827 C260.28348284 428.74356252 260.2669338 432.63409955 260.24645996 436.52537537 C260.25897781 437.66369432 260.27149566 438.80201328 260.28439283 439.97482675 C260.19776829 447.62117257 260.19776829 447.62117257 257.24303436 451.50993443 C254.68381521 453.33310054 252.16935306 455.03493109 249.43359375 456.58203125 C248.42047119 457.16049805 247.40734863 457.73896484 246.36352539 458.33496094 C245.27418701 458.94629883 244.18484863 459.55763672 243.0625 460.1875 C241.31814589 461.17990722 239.57379547 462.17232098 237.82963562 463.16506958 C236.00096253 464.20417721 234.17019814 465.23951049 232.33886719 466.27392578 C228.67006702 468.3473074 225.00962612 470.43508947 221.3515625 472.52734375 C220.7571637 472.86730377 220.16276489 473.20726379 219.550354 473.55752563 C218.35686526 474.24020639 217.16340402 474.92293525 215.9699707 475.60571289 C214.18685028 476.62537154 212.40310377 477.64392594 210.61914062 478.66210938 C201.66967146 483.77047048 192.74388347 488.91842071 183.83300781 494.09375 C181.58526429 495.39805761 179.33587469 496.69948051 177.0859375 498 C169.31810391 502.49056089 161.55878901 506.99505928 153.8125 511.52270508 C140.94280896 519.04404636 128.01649073 526.46075727 115.06152344 533.83398438 C102.79688006 540.81704625 90.58280698 547.88170366 78.3984375 555.00390625 C72.55654579 558.41793627 66.70124068 561.80837055 60.84277344 565.19384766 C53.44946384 569.46951534 46.07731157 573.78120837 38.70532227 578.09350586 C33.71115476 581.00988131 28.7070714 583.90588689 23.67578125 586.7578125 C22.73009277 587.29414307 21.7844043 587.83047363 20.81005859 588.38305664 C19.03765371 589.3858025 17.26337083 590.38523958 15.48681641 591.38061523 C11.75463497 593.49136534 8.20792758 595.62755918 4.78515625 598.21484375 C1.625 600.375 1.625 600.375 -2.375 600.375 C-2.375 599.715 -2.375 599.055 -2.375 598.375 C-3.44754028 597.9723291 -3.44754028 597.9723291 -4.54174805 597.56152344 C-7.41784845 596.35705571 -10.01168369 594.95645042 -12.70703125 593.390625 C-13.74005371 592.79258057 -14.77307617 592.19453613 -15.83740234 591.57836914 C-17.49570068 590.61145142 -17.49570068 590.61145142 -19.1875 589.625 C-20.35612043 588.94690477 -21.52490568 588.26909351 -22.69384766 587.59155273 C-31.20488987 582.65442365 -39.6971024 577.68487324 -48.19067383 572.71777344 C-55.89136893 568.22177012 -63.62777928 563.79008562 -71.375 559.375 C-81.09244668 553.83709671 -90.77641036 548.24528188 -100.4309082 542.59814453 C-116.41132621 533.25378651 -132.46050937 524.02893107 -148.54370117 514.86279297 C-156.19908818 510.49183515 -163.80973117 506.04561086 -171.41870117 501.59448242 C-178.90126798 497.22194621 -186.41756931 492.91174265 -193.94897461 488.62402344 C-199.80420941 485.28579 -205.62036105 481.88761817 -211.41821289 478.45092773 C-216.01150286 475.73887792 -220.63304596 473.07882038 -225.26953125 470.44140625 C-225.88250565 470.09248322 -226.49548004 469.74356018 -227.12702942 469.38406372 C-230.18801379 467.64238282 -233.25089269 465.90416279 -236.31665039 464.17089844 C-255.44797437 453.30202563 -255.44797437 453.30202563 -259.375 449.375 C-259.630301 447.2151596 -259.630301 447.2151596 -259.63785553 444.47327709 C-259.64553782 443.43084321 -259.65322011 442.38840933 -259.6611352 441.31438655 C-259.65940223 440.16022929 -259.65766927 439.00607203 -259.65588379 437.81694031 C-259.66182603 436.59777713 -259.66776828 435.37861395 -259.67389059 434.12250644 C-259.68828299 430.72754556 -259.69361165 427.33278701 -259.69508553 423.93781006 C-259.69878059 420.28056885 -259.71387222 416.62337179 -259.72735596 412.96615601 C-259.75454868 404.96413395 -259.76657612 396.9621319 -259.77537727 388.96007133 C-259.78089783 383.96588257 -259.78937175 378.97170159 -259.79838562 373.97751808 C-259.82277456 360.15685734 -259.84337235 346.33620285 -259.8501358 332.51552105 C-259.85057494 331.63053334 -259.85101407 330.74554563 -259.85146651 329.8337401 C-259.85190306 328.94660415 -259.85233962 328.0594682 -259.8527894 327.14544934 C-259.85367634 325.34769865 -259.85456947 323.54994795 -259.85546875 321.75219727 C-259.85591161 320.860446 -259.85635447 319.96869474 -259.85681075 319.04992072 C-259.86470829 304.59741264 -259.89961934 290.14510616 -259.94618779 275.69267597 C-259.9935857 260.86342771 -260.01853817 246.03428066 -260.02087164 231.2049554 C-260.02270685 222.87522555 -260.03425359 214.54575832 -260.07051086 206.21610069 C-260.10127391 199.12354153 -260.11157736 192.03132609 -260.09503466 184.93871292 C-260.08720716 181.3186692 -260.08914792 177.69931806 -260.11714935 174.07935905 C-260.14721081 170.1572751 -260.13093725 166.23617202 -260.10998535 162.31401062 C-260.12609816 161.16654553 -260.14221097 160.01908043 -260.15881205 158.83684367 C-260.06461303 151.33035433 -260.06461303 151.33035433 -258.0899725 148.59478915 C-256.50649261 147.24120808 -256.50649261 147.24120808 -253.375 145.375 C-251.96976074 144.48482178 -251.96976074 144.48482178 -250.53613281 143.57666016 C-249.55999023 143.02800293 -248.58384766 142.4793457 -247.578125 141.9140625 C-246.46791992 141.2854834 -245.35771484 140.6569043 -244.21386719 140.00927734 C-243.33764709 139.51871857 -243.33764709 139.51871857 -242.44372559 139.01824951 C-240.58340886 137.97671437 -238.72726417 136.92807164 -236.87207031 135.87744141 C-234.94456684 134.7859891 -233.01682565 133.69498324 -231.08782959 132.60617065 C-224.74474331 129.02577038 -218.43179637 125.39391615 -212.125 121.75 C-211.05523926 121.13261963 -209.98547852 120.51523926 -208.88330078 119.87915039 C-201.74245172 115.75418093 -194.6185493 111.60080137 -187.5 107.4375 C-178.22994485 102.01588505 -168.9166835 96.67295143 -159.58654785 91.35577393 C-151.44929978 86.71724756 -143.33529169 82.04120308 -135.25 77.3125 C-118.56409953 67.55370935 -101.8170352 57.90240375 -85.02612305 48.32556152 C-72.75787085 41.32802029 -60.53800129 34.25136603 -48.35009766 27.11474609 C-45.26052097 25.30805616 -42.16781489 23.50682922 -39.07421875 21.70703125 C-25.76056326 13.9612038 -25.76056326 13.9612038 -12.5 6.125 C-11.89341553 5.76623779 -11.28683105 5.40747559 -10.66186523 5.0378418 C-2.31730116 0.03849337 -2.31730116 0.03849337 0 0 Z " fill="#449193" transform="translate(300.375,-0.375)"/>
<path d="M0 0 C3.24834976 1.26324713 6.22388062 3.14578893 9.25 4.875 C9.25 77.475 9.25 150.075 9.25 224.875 C5.95 226.525 2.65 228.175 -0.75 229.875 C-7.85723661 235.83253657 -14.49127681 244.33706937 -15.75 253.875 C-15.564375 254.99648438 -15.37875 256.11796875 -15.1875 257.2734375 C-14.55354262 261.84880506 -14.43770006 265.75076667 -16.75 269.875 C-23.05447818 275.41496325 -31.10684241 278.76646319 -38.62158203 282.35107422 C-42.61624206 284.29696683 -46.39809813 286.49913244 -50.1875 288.8125 C-51.52737017 289.61021946 -52.86856586 290.40571589 -54.2109375 291.19921875 C-54.91959961 291.61864746 -55.62826172 292.03807617 -56.35839844 292.47021484 C-61.32447573 295.38720226 -66.32107239 298.25168971 -71.3125 301.125 C-80.0576033 306.16050441 -88.78762506 311.22057483 -97.5 316.3125 C-104.64281865 320.48680777 -111.80059631 324.62907404 -118.9921875 328.71875 C-123.97517027 331.56616873 -128.9214036 334.47689077 -133.875 337.375 C-143.38765029 342.93809422 -152.94139225 348.42589228 -162.51602173 353.88122559 C-172.98448696 359.8474623 -183.40267765 365.89625242 -193.80078125 371.984375 C-194.65462402 372.48114746 -195.5084668 372.97791992 -196.38818359 373.48974609 C-197.87866796 374.36394584 -199.36192526 375.25069832 -200.83447266 376.15478516 C-204.12342405 378.14448351 -205.54360934 378.88187969 -209.5 378.75 C-212.75 377.875 -212.75 377.875 -215.75 375.875 C-216.06840566 372.94632233 -216.18905078 370.22536322 -216.18478394 367.2915802 C-216.19510843 366.39234524 -216.20543293 365.49311028 -216.21607029 364.56662577 C-216.24691785 361.53499657 -216.25603873 358.50369087 -216.26513672 355.47192383 C-216.282288 353.30566492 -216.30060562 351.13941497 -216.32000732 348.97317505 C-216.36801423 343.07427449 -216.39551539 337.17545698 -216.41642904 331.27640367 C-216.4296489 327.59278614 -216.44590501 323.90919329 -216.46295547 320.22559166 C-216.51475385 308.70592801 -216.55287556 297.18632489 -216.5733813 285.66656286 C-216.59741068 272.35843518 -216.66759217 259.05214778 -216.77738369 245.74442464 C-216.8592716 235.46578787 -216.89901874 225.18751948 -216.90698445 214.90856189 C-216.91273973 208.7659084 -216.93664793 202.62458465 -217.00472641 196.48227882 C-217.0676942 190.70248294 -217.07842821 184.92492759 -217.04906464 179.14488602 C-217.04730072 177.02401497 -217.06435444 174.90303196 -217.10163498 172.78248787 C-217.36834526 156.69986201 -217.36834526 156.69986201 -213.35925674 152.17917442 C-210.42678833 150.3289032 -210.42678833 150.3289032 -207.51350594 149.0873518 C-202.71369319 146.98167092 -199.08338625 142.54177249 -196.75 137.875 C-207.145 137.38 -207.145 137.38 -217.75 136.875 C-217.75 160.305 -217.75 183.735 -217.75 207.875 C-227.98 207.875 -238.21 207.875 -248.75 207.875 C-248.75 152.435 -248.75 96.995 -248.75 39.875 C-216.08 39.875 -183.41 39.875 -149.75 39.875 C-149.75 47.795 -149.75 55.715 -149.75 63.875 C-172.19 63.875 -194.63 63.875 -217.75 63.875 C-217.75 79.715 -217.75 95.555 -217.75 111.875 C-208.51 111.875 -199.27 111.875 -189.75 111.875 C-189.255 109.895 -189.255 109.895 -188.75 107.875 C-186.88232422 106.41577148 -186.88232422 106.41577148 -184.4296875 105.05859375 C-183.5231543 104.54538574 -182.61662109 104.03217773 -181.68261719 103.50341797 C-180.71485352 102.96604004 -179.74708984 102.42866211 -178.75 101.875 C-176.81285786 100.74472653 -174.87799719 99.61053484 -172.9453125 98.47265625 C-170.92225009 97.29362699 -168.89880868 96.11524782 -166.875 94.9375 C-165.87597656 94.35548828 -164.87695312 93.77347656 -163.84765625 93.17382812 C-161.83966035 92.00400858 -159.83087847 90.83553704 -157.82128906 89.66845703 C-155.6718379 88.41330057 -153.52842581 87.14777107 -151.38964844 85.87451172 C-150.30973633 85.23400879 -149.22982422 84.59350586 -148.1171875 83.93359375 C-147.1360498 83.34763428 -146.15491211 82.7616748 -145.14404297 82.15795898 C-142.75 80.875 -142.75 80.875 -140.75 80.875 C-140.6675 79.616875 -140.585 78.35875 -140.5 77.0625 C-139.23842612 66.20273568 -134.8581268 56.90698048 -126.35546875 49.90234375 C-114.54064427 41.35429101 -101.61405047 36.42445301 -86.85546875 37.0859375 C-68.40868076 37.69268675 -57.00968452 33.09755521 -41.83984375 22.92041016 C-36.96416496 19.69281559 -31.92191948 16.76198715 -26.875 13.8125 C-25.97048096 13.27488037 -25.06596191 12.73726074 -24.1340332 12.18334961 C-18.49468674 8.83892068 -12.82428432 5.73004222 -6.89453125 2.92578125 C-0.80585168 -0.05756083 -0.80585168 -0.05756083 0 0 Z " fill="#449294" transform="translate(533.75,185.125)"/>
<path d="M0 0 C0.98798584 0.5561499 1.97597168 1.1122998 2.99389648 1.68530273 C4.05165283 2.29059814 5.10940918 2.89589355 6.19921875 3.51953125 C7.30789307 4.14738525 8.41656738 4.77523926 9.55883789 5.42211914 C18.98996267 10.77896593 28.36116638 16.23858387 37.71875 21.72265625 C43.8956755 25.34164326 50.08554447 28.93785543 56.28372192 32.52029419 C57.96848689 33.49453185 59.65210564 34.47075082 61.33569336 35.44702148 C62.36573486 36.04200439 63.39577637 36.6369873 64.45703125 37.25 C65.36211426 37.77360107 66.26719727 38.29720215 67.19970703 38.83666992 C70.05448684 40.42539665 72.95481841 41.89137 75.88671875 43.33203125 C75.88671875 40.36203125 75.88671875 37.39203125 75.88671875 34.33203125 C84.19841558 34.26186148 92.50998427 34.20888593 100.82190609 34.17659473 C104.68338072 34.16107997 108.54464959 34.14010905 112.40600586 34.10571289 C165.21899941 33.64794091 165.21899941 33.64794091 185.13671875 52.08203125 C196.21429399 63.66714479 196.53770498 78.31566128 196.265625 93.4765625 C195.78211861 104.36845366 191.2856575 112.66250133 184.88671875 121.33203125 C182.60911231 124.07009714 182.60911231 124.07009714 183.1015625 126.75 C185.46202749 134.51252416 191.7430745 141.24335622 197.88671875 146.33203125 C198.52744298 146.65126584 199.16816721 146.97050043 199.82830733 147.29940879 C205.42814384 150.16161834 205.42814384 150.16161834 206.63088572 153.23135591 C206.91264666 155.60726572 206.93909065 157.87298597 206.88240051 160.26516724 C206.89276374 161.16570418 206.90312697 162.06624113 206.91380423 162.99406707 C206.9386998 166.01298286 206.90639501 169.0285556 206.87426758 172.04736328 C206.88019618 174.21070519 206.8895735 176.37404001 206.90214539 178.53735352 C206.92582174 184.41353694 206.89930053 190.28852924 206.86252809 196.16460657 C206.83114031 202.30780519 206.8410894 208.45094982 206.84538269 214.59420776 C206.84621224 224.90919619 206.81535582 235.22371651 206.76489258 245.53857422 C206.70679978 257.47495852 206.69454404 269.41070328 206.70775205 281.34720719 C206.71973806 292.81890908 206.70337269 304.29038864 206.67261314 315.76205063 C206.65977252 320.64959096 206.65621502 325.53700943 206.65989113 330.42456436 C206.66264717 336.1752568 206.64041739 341.92532177 206.5986042 347.67585754 C206.58716841 349.79024768 206.5842825 351.90470327 206.59041214 354.01911545 C206.59731484 356.89772228 206.57363129 359.77446172 206.54182434 362.65286255 C206.55093159 363.49672205 206.56003884 364.34058155 206.56942207 365.21001256 C206.52430439 367.54103279 206.52430439 367.54103279 205.88671875 371.33203125 C203.11855845 373.70653954 201.5128694 374.25640646 197.90917969 374.69165039 C194.47013117 374.28246473 192.49291477 373.34927454 189.52734375 371.578125 C188.50785645 370.9787915 187.48836914 370.37945801 186.43798828 369.76196289 C185.34856934 369.10446045 184.25915039 368.44695801 183.13671875 367.76953125 C181.97852245 367.08381711 180.81948889 366.39951538 179.65966797 365.71655273 C177.25320318 364.29797314 174.85044368 362.87340689 172.45019531 361.44433594 C167.00215428 358.20680535 161.50529335 355.05394779 156.01171875 351.89453125 C154.94743652 351.28029297 153.8831543 350.66605469 152.78662109 350.03320312 C145.38380512 345.76119606 137.96498663 341.51786774 130.54040527 337.28387451 C120.26966988 331.42671469 110.02884673 325.52147143 99.82373047 319.55053711 C92.5274306 315.28296991 85.21156853 311.050389 77.88671875 306.83203125 C68.60594964 301.48726576 59.34897092 296.10359684 50.10595703 290.69384766 C44.54450363 287.44560582 38.96715217 284.22718943 33.37109375 281.0390625 C32.73666351 280.67750565 32.10223328 280.31594879 31.44857788 279.94343567 C28.35069147 278.17887779 25.25104913 276.41749854 22.14892578 274.66040039 C21.02856934 274.02352295 19.90821289 273.38664551 18.75390625 272.73046875 C17.76503418 272.17020996 16.77616211 271.60995117 15.75732422 271.03271484 C9.69527174 267.44126582 9.69527174 267.44126582 6.88671875 265.33203125 C6.3625658 262.53860434 6.19106382 260.48428869 6.26171875 257.70703125 C6.00905239 245.3999581 1.59809942 237.01744914 -7.1328125 228.3203125 C-10.91503431 224.87075265 -14.50074589 222.59179289 -19.11328125 220.33203125 C-19.32343257 192.01215372 -19.4821867 163.69239287 -19.5795908 135.37189293 C-19.62601749 122.22243577 -19.6893237 109.0734628 -19.79223633 95.92431641 C-19.88188236 84.46478985 -19.93999127 73.0056139 -19.9600777 61.54574645 C-19.97182126 55.47643045 -19.99945831 49.40811755 -20.06485176 43.33912277 C-20.12589362 37.62777188 -20.14479529 31.91783812 -20.13125038 26.20619202 C-20.13372857 24.10908432 -20.15166162 22.01192978 -20.18613052 19.91510391 C-20.43234071 4.1664375 -20.43234071 4.1664375 -17.21674919 -0.30546188 C-10.95265014 -4.87636112 -6.43682219 -3.64807002 0 0 Z " fill="#449294" transform="translate(77.11328125,189.66796875)"/>
<path d="M0 0 C0.77085937 -0.02835938 1.54171875 -0.05671875 2.3359375 -0.0859375 C4.625 0.375 4.625 0.375 6.48193359 2.23242188 C8.62938338 4.37938238 10.55396119 5.65966102 13.203125 7.1171875 C14.10393799 7.61847168 15.00475098 8.11975586 15.93286133 8.63623047 C16.90376709 9.16877441 17.87467285 9.70131836 18.875 10.25 C20.96827081 11.41518956 23.06069327 12.58190425 25.15234375 13.75 C26.22726074 14.34941406 27.30217773 14.94882813 28.40966797 15.56640625 C33.45286892 18.40315892 38.4460885 21.32335718 43.4375 24.25 C55.04682417 31.04623272 66.69477178 37.77385904 78.3515625 44.48828125 C81.5897516 46.3546838 84.82639438 48.22373763 88.0625 50.09375 C98.68377862 56.23009454 109.31572963 62.34662963 119.97131348 68.42315674 C130.24489574 74.28194006 140.48771194 80.19023476 150.69677734 86.16088867 C167.57623076 96.03027297 184.53547902 105.76016316 201.52011108 115.447052 C210.75612791 120.71648908 219.96185942 126.03588763 229.1340332 131.41577148 C233.81587961 134.16109547 238.50722432 136.88407696 243.234375 139.55078125 C244.11407959 140.04989014 244.99378418 140.54899902 245.90014648 141.06323242 C247.53884661 141.99114065 249.18135277 142.91237381 250.82836914 143.82543945 C251.55145264 144.23624756 252.27453613 144.64705566 253.01953125 145.0703125 C253.64706299 145.42109863 254.27459473 145.77188477 254.92114258 146.13330078 C257.77215482 148.21099791 259.44545845 150.23828121 260.00334883 153.77041334 C260.00570563 155.11739273 260.00570563 155.11739273 260.00811005 156.49158382 C260.01716669 157.53103301 260.02622333 158.5704822 260.03555441 159.64142984 C260.02756252 161.35225436 260.02756252 161.35225436 260.01940918 163.09764099 C260.02550028 164.31034591 260.03159139 165.52305083 260.03786707 166.77250439 C260.05165369 170.14024634 260.05194312 173.50750152 260.0464921 176.8752352 C260.04382538 180.50654399 260.05834691 184.13778999 260.07058716 187.76907349 C260.09165819 194.88364955 260.09618107 201.99814415 260.09439927 209.11274772 C260.09309254 214.89446603 260.09689123 220.67615888 260.10432434 226.45787239 C260.10642349 228.12217825 260.10852109 229.78648412 260.11061716 231.45078999 C260.11218245 232.69327625 260.11218245 232.69327625 260.11377937 233.96086324 C260.13268832 249.63222679 260.13162947 265.30354355 260.12481004 280.97491378 C260.11923346 295.31734403 260.1400637 309.65959572 260.17317051 324.00198423 C260.20688764 338.72282196 260.22207836 353.4435741 260.21745348 368.16445118 C260.21520686 376.43150735 260.22048001 384.69839845 260.24534607 392.96542168 C260.26633367 400.00302081 260.2699766 407.04036436 260.25104648 414.07797389 C260.2418729 417.66958991 260.24079426 421.26072908 260.26140213 424.85230827 C260.28348284 428.74356252 260.2669338 432.63409955 260.24645996 436.52537537 C260.25897781 437.66369432 260.27149566 438.80201328 260.28439283 439.97482675 C260.19776829 447.62117257 260.19776829 447.62117257 257.24303436 451.50993443 C254.68381521 453.33310054 252.16935306 455.03493109 249.43359375 456.58203125 C248.42047119 457.16049805 247.40734863 457.73896484 246.36352539 458.33496094 C245.27418701 458.94629883 244.18484863 459.55763672 243.0625 460.1875 C241.31814589 461.17990722 239.57379547 462.17232098 237.82963562 463.16506958 C236.00096253 464.20417721 234.17019814 465.23951049 232.33886719 466.27392578 C228.67006702 468.3473074 225.00962612 470.43508947 221.3515625 472.52734375 C220.7571637 472.86730377 220.16276489 473.20726379 219.550354 473.55752563 C218.35686526 474.24020639 217.16340402 474.92293525 215.9699707 475.60571289 C214.18685028 476.62537154 212.40310377 477.64392594 210.61914062 478.66210938 C201.66967146 483.77047048 192.74388347 488.91842071 183.83300781 494.09375 C181.58526429 495.39805761 179.33587469 496.69948051 177.0859375 498 C169.31810391 502.49056089 161.55878901 506.99505928 153.8125 511.52270508 C140.94280896 519.04404636 128.01649073 526.46075727 115.06152344 533.83398438 C102.79688006 540.81704625 90.58280698 547.88170366 78.3984375 555.00390625 C72.55654579 558.41793627 66.70124068 561.80837055 60.84277344 565.19384766 C53.44946384 569.46951534 46.07731157 573.78120837 38.70532227 578.09350586 C33.71115476 581.00988131 28.7070714 583.90588689 23.67578125 586.7578125 C22.73009277 587.29414307 21.7844043 587.83047363 20.81005859 588.38305664 C19.03765371 589.3858025 17.26337083 590.38523958 15.48681641 591.38061523 C11.75463497 593.49136534 8.20792758 595.62755918 4.78515625 598.21484375 C1.625 600.375 1.625 600.375 -2.375 600.375 C-2.375 599.715 -2.375 599.055 -2.375 598.375 C-3.44754028 597.9723291 -3.44754028 597.9723291 -4.54174805 597.56152344 C-7.41784845 596.35705571 -10.01168369 594.95645042 -12.70703125 593.390625 C-13.74005371 592.79258057 -14.77307617 592.19453613 -15.83740234 591.57836914 C-17.49570068 590.61145142 -17.49570068 590.61145142 -19.1875 589.625 C-20.35612043 588.94690477 -21.52490568 588.26909351 -22.69384766 587.59155273 C-31.20488987 582.65442365 -39.6971024 577.68487324 -48.19067383 572.71777344 C-55.89136893 568.22177012 -63.62777928 563.79008562 -71.375 559.375 C-81.09244668 553.83709671 -90.77641036 548.24528188 -100.4309082 542.59814453 C-116.41132621 533.25378651 -132.46050937 524.02893107 -148.54370117 514.86279297 C-156.19908818 510.49183515 -163.80973117 506.04561086 -171.41870117 501.59448242 C-178.90126798 497.22194621 -186.41756931 492.91174265 -193.94897461 488.62402344 C-199.80420941 485.28579 -205.62036105 481.88761817 -211.41821289 478.45092773 C-216.01150286 475.73887792 -220.63304596 473.07882038 -225.26953125 470.44140625 C-225.88250565 470.09248322 -226.49548004 469.74356018 -227.12702942 469.38406372 C-230.18801379 467.64238282 -233.25089269 465.90416279 -236.31665039 464.17089844 C-255.44797437 453.30202563 -255.44797437 453.30202563 -259.375 449.375 C-259.630301 447.2151596 -259.630301 447.2151596 -259.63785553 444.47327709 C-259.64553782 443.43084321 -259.65322011 442.38840933 -259.6611352 441.31438655 C-259.65940223 440.16022929 -259.65766927 439.00607203 -259.65588379 437.81694031 C-259.66182603 436.59777713 -259.66776828 435.37861395 -259.67389059 434.12250644 C-259.68828299 430.72754556 -259.69361165 427.33278701 -259.69508553 423.93781006 C-259.69878059 420.28056885 -259.71387222 416.62337179 -259.72735596 412.96615601 C-259.75454868 404.96413395 -259.76657612 396.9621319 -259.77537727 388.96007133 C-259.78089783 383.96588257 -259.78937175 378.97170159 -259.79838562 373.97751808 C-259.82277456 360.15685734 -259.84337235 346.33620285 -259.8501358 332.51552105 C-259.85057494 331.63053334 -259.85101407 330.74554563 -259.85146651 329.8337401 C-259.85190306 328.94660415 -259.85233962 328.0594682 -259.8527894 327.14544934 C-259.85367634 325.34769865 -259.85456947 323.54994795 -259.85546875 321.75219727 C-259.85591161 320.860446 -259.85635447 319.96869474 -259.85681075 319.04992072 C-259.86470829 304.59741264 -259.89961934 290.14510616 -259.94618779 275.69267597 C-259.9935857 260.86342771 -260.01853817 246.03428066 -260.02087164 231.2049554 C-260.02270685 222.87522555 -260.03425359 214.54575832 -260.07051086 206.21610069 C-260.10127391 199.12354153 -260.11157736 192.03132609 -260.09503466 184.93871292 C-260.08720716 181.3186692 -260.08914792 177.69931806 -260.11714935 174.07935905 C-260.14721081 170.1572751 -260.13093725 166.23617202 -260.10998535 162.31401062 C-260.12609816 161.16654553 -260.14221097 160.01908043 -260.15881205 158.83684367 C-260.06461303 151.33035433 -260.06461303 151.33035433 -258.0899725 148.59478915 C-256.50649261 147.24120808 -256.50649261 147.24120808 -253.375 145.375 C-251.96976074 144.48482178 -251.96976074 144.48482178 -250.53613281 143.57666016 C-249.55999023 143.02800293 -248.58384766 142.4793457 -247.578125 141.9140625 C-246.46791992 141.2854834 -245.35771484 140.6569043 -244.21386719 140.00927734 C-243.33764709 139.51871857 -243.33764709 139.51871857 -242.44372559 139.01824951 C-240.58340886 137.97671437 -238.72726417 136.92807164 -236.87207031 135.87744141 C-234.94456684 134.7859891 -233.01682565 133.69498324 -231.08782959 132.60617065 C-224.74474331 129.02577038 -218.43179637 125.39391615 -212.125 121.75 C-211.05523926 121.13261963 -209.98547852 120.51523926 -208.88330078 119.87915039 C-201.74245172 115.75418093 -194.6185493 111.60080137 -187.5 107.4375 C-178.22994485 102.01588505 -168.9166835 96.67295143 -159.58654785 91.35577393 C-151.44929978 86.71724756 -143.33529169 82.04120308 -135.25 77.3125 C-118.56409953 67.55370935 -101.8170352 57.90240375 -85.02612305 48.32556152 C-72.75787085 41.32802029 -60.53800129 34.25136603 -48.35009766 27.11474609 C-45.26052097 25.30805616 -42.16781489 23.50682922 -39.07421875 21.70703125 C-25.76056326 13.9612038 -25.76056326 13.9612038 -12.5 6.125 C-11.89341553 5.76623779 -11.28683105 5.40747559 -10.66186523 5.0378418 C-2.31730116 0.03849337 -2.31730116 0.03849337 0 0 Z M17.6875 36.8125 C10.97035163 40.36863737 5.45162039 40.61300442 -2.0625 40.6875 C-3.01833984 40.71650391 -3.97417969 40.74550781 -4.95898438 40.77539062 C-10.90776459 40.82810647 -15.07293382 39.96772421 -20.3972168 37.33496094 C-23.14630929 36.00062793 -25.31122126 35.4042186 -28.375 35.375 C-30.89102327 36.44506773 -32.94956375 37.51479896 -35.25 38.9375 C-35.93288086 39.34025146 -36.61576172 39.74300293 -37.31933594 40.15795898 C-38.84609957 41.05954213 -40.3686755 41.96824257 -41.88769531 42.8828125 C-45.45557436 45.02325977 -49.05300502 47.11194582 -52.64892578 49.20483398 C-54.66160759 50.37661436 -56.672967 51.55066862 -58.68310547 52.72680664 C-66.55073293 57.32877628 -74.45548415 61.86324535 -82.375 66.375 C-91.0691087 71.32862352 -99.74000605 76.31873212 -108.375 81.375 C-117.11490573 86.49227601 -125.88979099 91.54551595 -134.6875 96.5625 C-143.96635123 101.85401546 -153.23048202 107.16915741 -162.46875 112.53125 C-167.33665257 115.35593594 -172.21380282 118.164478 -177.09082031 120.97338867 C-185.82221832 126.00375941 -194.55248929 131.03619498 -203.25 136.125 C-204.26537842 136.71583374 -204.26537842 136.71583374 -205.30126953 137.31860352 C-207.00373764 138.31853247 -208.69038212 139.34528247 -210.375 140.375 C-211.16648437 140.82617188 -211.95796875 141.27734375 -212.7734375 141.7421875 C-215.21442131 144.23080027 -215.04676943 146.33132421 -215.125 149.75 C-215.18171875 150.87148437 -215.2384375 151.99296875 -215.296875 153.1484375 C-214.28654394 156.6845962 -214.00833215 156.99600181 -211.078125 158.85546875 C-209.51877423 159.71073019 -207.95003746 160.54898309 -206.375 161.375 C-204.49686793 162.46205445 -202.62208788 163.55491292 -200.75 164.65234375 C-198.62572949 165.87366552 -196.50069095 167.09365215 -194.375 168.3125 C-192.04138433 169.6544607 -189.70798215 170.99678295 -187.375 172.33984375 C-186.49231445 172.84781998 -186.49231445 172.84781998 -185.59179688 173.36605835 C-179.83913178 176.67893462 -174.1057528 180.02441221 -168.375 183.375 C-153.16440035 192.26120561 -137.91345171 201.07748089 -122.61328125 209.80859375 C-121.96984772 210.17583557 -121.32641418 210.54307739 -120.66348267 210.92144775 C-117.53418418 212.70711862 -114.40401606 214.4912388 -111.27246094 216.27294922 C-109.59265137 217.23031982 -109.59265137 217.23031982 -107.87890625 218.20703125 C-106.39112671 219.05358276 -106.39112671 219.05358276 -104.87329102 219.91723633 C-103.00329772 221.00838555 -101.17643818 222.17404121 -99.375 223.375 C-115.215 223.705 -131.055 224.035 -147.375 224.375 C-147.375 227.345 -147.375 230.315 -147.375 233.375 C-160.22224875 226.77682061 -172.67972676 219.59297169 -185.12792969 212.27490234 C-191.81119341 208.36443931 -198.52988758 204.51480412 -205.24853516 200.66552734 C-209.93311388 197.97383965 -214.59676533 195.26916635 -219.171875 192.39453125 C-219.86466553 191.96180908 -220.55745605 191.52908691 -221.27124023 191.08325195 C-223.02903906 189.97491377 -224.77492172 188.8477353 -226.51953125 187.71875 C-229.20902617 186.21249533 -229.20902617 186.21249533 -231.76171875 186.34375 C-235.6875142 187.89294282 -239.24180098 189.48998591 -242.375 192.375 C-243.54161335 195.31316097 -243.46657019 198.07913648 -243.40432739 201.21202087 C-243.41821845 202.10227402 -243.43210951 202.99252716 -243.4464215 203.90975767 C-243.48302628 206.89390052 -243.46242315 209.8748744 -243.44189453 212.85913086 C-243.45600878 214.99791345 -243.4734971 217.13667605 -243.49411011 219.27540588 C-243.53916711 225.08557121 -243.5332037 230.89464878 -243.51546717 236.70492244 C-243.50525658 241.55355866 -243.51982488 246.40198961 -243.53441131 251.25060469 C-243.56843122 262.68800376 -243.56125628 274.12486932 -243.52783203 285.56225586 C-243.49398335 297.36603325 -243.52565951 309.16833177 -243.59027779 320.97194761 C-243.64364047 331.10295535 -243.6582299 341.2335023 -243.64124763 351.36463648 C-243.63138056 357.41700306 -243.6358637 363.46847962 -243.67682266 369.52073479 C-243.71349378 375.21200683 -243.70167905 380.90114912 -243.65242386 386.59230614 C-243.64239367 388.6812661 -243.64942499 390.77038772 -243.67472076 392.8592186 C-244.31494552 403.56384261 -244.31494552 403.56384261 -240.1986351 412.85379219 C-237.62717512 414.3967363 -235.18216885 415.3512092 -232.375 416.375 C-225.36567552 421.97129776 -219.16017571 430.47658571 -217.375 439.375 C-217.39304687 440.6228125 -217.41109375 441.870625 -217.4296875 443.15625 C-217.44080566 444.19362305 -217.44080566 444.19362305 -217.45214844 445.25195312 C-217.5 447.375 -217.5 447.375 -217.71972656 449.38867188 C-217.76715624 451.86231189 -217.54788862 453.17392108 -216.375 455.375 C-212.89278621 458.175358 -209.11828711 460.29903689 -205.19226074 462.39764404 C-202.38692922 463.90640248 -199.64703461 465.5262836 -196.89453125 467.12890625 C-194.66000298 468.40045846 -192.42428614 469.66992382 -190.1875 470.9375 C-187.71682403 472.34265477 -185.24711894 473.74951273 -182.77734375 475.15625 C-182.15724426 475.50917618 -181.53714478 475.86210236 -180.89825439 476.22572327 C-171.45116908 481.60483751 -162.0448888 487.05494209 -152.63232422 492.49414062 C-149.27839437 494.43078247 -145.9226497 496.36424573 -142.56640625 498.296875 C-123.68631027 509.17126697 -123.68631027 509.17126697 -115 514.3125 C-107.68857954 518.63728279 -100.31622707 522.85398756 -92.9375 527.0625 C-83.65592604 532.35650995 -74.3816937 537.66253016 -65.125 543 C-64.07030518 543.60618164 -63.01561035 544.21236328 -61.92895508 544.83691406 C-56.46399404 547.98469133 -51.0281095 551.17284105 -45.625 554.42578125 C-44.53348633 555.07788574 -43.44197266 555.72999023 -42.31738281 556.40185547 C-40.2423778 557.64374819 -38.17360515 558.89613525 -36.11230469 560.16064453 C-35.18321289 560.71478027 -34.25412109 561.26891602 -33.296875 561.83984375 C-32.08402832 562.57642212 -32.08402832 562.57642212 -30.84667969 563.32788086 C-26.82850835 565.03016621 -23.79547192 564.90110469 -19.72898006 563.3949852 C-16.97594929 561.46793092 -16.97594929 561.46793092 -16.73182774 557.58958817 C-16.69768507 555.96315827 -16.69148568 554.33600907 -16.70643616 552.70928955 C-16.68944448 551.3652808 -16.68944448 551.3652808 -16.67210954 549.99412036 C-16.64035259 546.9791549 -16.64455922 543.96530994 -16.64868164 540.95019531 C-16.63372722 538.79363545 -16.61671539 536.63708901 -16.59779358 534.4805603 C-16.55352981 528.61261532 -16.54190032 522.74503459 -16.53871465 516.87693882 C-16.53397282 511.9813121 -16.51558516 507.08577068 -16.49785417 502.19017673 C-16.45710532 490.63976154 -16.44493513 479.08954129 -16.44848633 467.5390625 C-16.45148947 455.61954109 -16.39875454 443.70115176 -16.31976801 431.78191686 C-16.25440312 421.55417653 -16.22756633 411.32680623 -16.23076338 401.09885859 C-16.23203899 394.98767398 -16.21775052 388.87749447 -16.16487312 382.76651764 C-16.11648555 377.01710977 -16.11605292 371.26966813 -16.15245628 365.52019119 C-16.1576887 363.41064968 -16.14585015 361.30098608 -16.11565399 359.19165421 C-15.5024978 348.28908916 -15.5024978 348.28908916 -19.53085136 338.67037201 C-22.08027817 336.87931676 -24.55037262 335.66670995 -27.375 334.375 C-32.85463558 329.81659907 -38.10814604 324.27465932 -40.375 317.375 C-40.07258958 313.59486981 -38.99908807 311.53121417 -36.5625 308.6875 C-33.07076447 304.26630969 -31.26313959 299.6360435 -29.375 294.375 C-28.85945557 293.24771484 -28.85945557 293.24771484 -28.33349609 292.09765625 C-27.25263912 289.02742778 -27.14637367 286.6660674 -27.1796875 283.41796875 C-27.18613281 282.30615234 -27.19257813 281.19433594 -27.19921875 280.04882812 C-27.21597656 278.89833984 -27.23273438 277.74785156 -27.25 276.5625 C-27.25902344 275.39267578 -27.26804687 274.22285156 -27.27734375 273.01757812 C-27.30086268 270.13650947 -27.33373148 267.25586011 -27.375 264.375 C-26.694375 264.2925 -26.01375 264.21 -25.3125 264.125 C-21.51176954 263.29328223 -21.51176954 263.29328223 -15.375 259.375 C-15.375 303.595 -15.375 347.815 -15.375 393.375 C-5.145 393.375 5.085 393.375 15.625 393.375 C15.625 369.945 15.625 346.515 15.625 322.375 C22.555 322.705 29.485 323.035 36.625 323.375 C29.85272277 332.40470297 29.85272277 332.40470297 26 335.25 C25.26523437 335.80429687 24.53046875 336.35859375 23.7734375 336.9296875 C21.77648584 338.27309134 19.78407165 339.32230424 17.625 340.375 C17.5083248 369.13795856 17.42008934 397.90088179 17.36593914 426.66402912 C17.3401307 440.01853782 17.30492965 453.3728821 17.24780273 466.72729492 C17.19804874 478.36368139 17.16572821 489.99996155 17.15455753 501.63645142 C17.14802525 507.80093839 17.13261751 513.96512118 17.09634972 520.12951088 C17.06251689 525.92677368 17.05192137 531.72360581 17.05946159 537.52095795 C17.05808135 539.65313491 17.04807368 541.78532567 17.02897263 543.91741753 C17.00423353 546.82022178 17.01002476 549.72138253 17.02372742 552.6242218 C17.00916321 553.47538285 16.994599 554.3265439 16.97959346 555.20349771 C16.95573801 557.81246325 16.95573801 557.81246325 17.625 561.375 C20.52191202 563.902816 21.93066826 564.36033709 25.76953125 564.44140625 C31.14926593 563.35445959 35.69417103 560.13464301 40.3125 557.3125 C42.46137387 556.02849797 44.61115066 554.74600612 46.76171875 553.46484375 C47.88368652 552.79308105 49.0056543 552.12131836 50.16162109 551.42919922 C55.35008696 548.33826459 60.60427705 545.36237733 65.85568237 542.38012695 C76.17416783 536.51832595 86.44850467 530.58372329 96.69189453 524.59155273 C107.21584625 518.43733258 117.77880137 512.35130004 128.34277344 506.26611328 C133.77159942 503.13819852 139.19819281 500.00641552 144.625 496.875 C146.79165583 495.62498121 148.9583225 494.37498122 151.125 493.125 C152.1975 492.50625 153.27 491.8875 154.375 491.25 C157.625 489.375 160.875 487.5 164.125 485.625 C165.19903076 485.00536377 166.27306152 484.38572754 167.37963867 483.74731445 C169.53083224 482.50624746 171.68203655 481.26519907 173.83325195 480.02416992 C178.88462999 477.11001656 183.9359031 474.19568182 188.98678589 471.28067017 C190.77566918 470.24826522 192.56458717 469.21592044 194.35351562 468.18359375 C196.59837636 466.88814052 198.8431719 465.5925743 201.08789062 464.296875 C202.10431641 463.71035156 203.12074219 463.12382812 204.16796875 462.51953125 C205.11293213 461.96531494 206.05789551 461.41109863 207.03149414 460.84008789 C209.625 459.375 209.625 459.375 211.88842773 458.32983398 C214.05667169 457.38545529 214.05667169 457.38545529 216.625 455.375 C217.24606335 452.5181086 217.41999794 450.64804946 217.3125 447.8125 C217.47091548 435.8649941 221.1039953 426.97569111 229.54296875 418.43359375 C233.91147504 414.38617689 236.80441748 412.86953537 242.625 410.375 C242.625 337.775 242.625 265.175 242.625 190.375 C237.41216106 186.90752022 237.41216106 186.90752022 231.625 185.375 C228.88215821 186.58429395 228.88215821 186.58429395 226.0625 188.4375 C221.32416001 191.37565655 216.51493184 194.09779426 211.61157227 196.75317383 C207.56943131 198.9482153 203.54951538 201.18184527 199.53393555 203.42504883 C197.36745695 204.63378281 195.19681181 205.83507019 193.02270508 207.0300293 C186.13809643 210.82664344 186.13809643 210.82664344 179.65234375 215.25 C169.55968991 222.74719343 159.58670554 222.25199715 147.29296875 222.28515625 C129.94369723 222.34582652 115.68937168 228.05254454 102.625 239.375 C96.49780163 247.20280853 91.8218925 256.202305 92.625 266.375 C91.91053711 266.64505859 91.19607422 266.91511719 90.45996094 267.19335938 C87.59636586 268.386935 84.97031107 269.76326523 82.265625 271.28125 C81.23961182 271.85584961 80.21359863 272.43044922 79.15649414 273.02246094 C78.07360107 273.63379883 76.99070801 274.24513672 75.875 274.875 C74.76568115 275.49922852 73.6563623 276.12345703 72.51342773 276.76660156 C65.8797407 280.50959148 59.26287326 284.28039874 52.6875 288.125 C51.99108398 288.53041016 51.29466797 288.93582031 50.57714844 289.35351562 C48.00253639 290.87231377 45.74795317 292.25204683 43.625 294.375 C43.625 295.365 43.625 296.355 43.625 297.375 C34.385 297.375 25.145 297.375 15.625 297.375 C15.625 281.535 15.625 265.695 15.625 249.375 C38.065 249.375 60.505 249.375 83.625 249.375 C84.46039705 241.76572827 84.46039705 241.76572827 84.6875 234.25 C84.6565625 232.331875 84.6565625 232.331875 84.625 230.375 C85.45306152 230.21680786 85.45306152 230.21680786 86.29785156 230.05541992 C89.11128585 229.23281802 91.32620762 227.96596222 93.859375 226.48828125 C94.89562012 225.88701416 95.93186523 225.28574707 96.99951172 224.66625977 C98.11342285 224.01326904 99.22733398 223.36027832 100.375 222.6875 C101.54808111 222.00468225 102.72142504 221.32231586 103.89501953 220.64038086 C106.90159052 218.89173311 109.9047713 217.13736156 112.90661621 215.38061523 C116.47283994 213.29362574 120.04115188 211.21020742 123.60913086 209.1262207 C125.54523928 207.99522991 127.48094552 206.86355038 129.41625977 205.73120117 C134.89256085 202.5323788 140.38387377 199.36179641 145.89453125 196.22265625 C146.8213269 195.6945208 146.8213269 195.6945208 147.7668457 195.15571594 C150.75840208 193.45185689 153.75173564 191.75128711 156.74755859 190.05493164 C163.50850608 186.21201822 170.1646459 182.24193543 176.76098633 178.12548828 C180.19775627 176.02493074 183.71329635 174.11394329 187.26171875 172.2109375 C192.01935631 169.61385312 196.72835628 166.93379233 201.4375 164.25 C202.34564453 163.73469727 203.25378906 163.21939453 204.18945312 162.68847656 C206.678242 161.267494 209.15388009 159.82643945 211.625 158.375 C212.26501953 158.01172607 212.90503906 157.64845215 213.56445312 157.27416992 C215.98749757 155.81522922 217.43089383 154.86376285 218.4921875 152.19140625 C218.50074263 149.72325025 218.30588356 147.7529055 217.625 145.375 C216.11458938 143.93076189 216.11458938 143.93076189 214.12109375 142.91015625 C213.03199707 142.28403442 213.03199707 142.28403442 211.92089844 141.64526367 C211.16325195 141.22607666 210.40560547 140.80688965 209.625 140.375 C208.20083021 139.54075487 206.77765523 138.70480921 205.35546875 137.8671875 C203.84194508 136.99340578 202.3275873 136.12106765 200.8125 135.25 C199.12238333 134.27476124 197.43227952 133.29950022 195.7421875 132.32421875 C194.88850586 131.83228027 194.03482422 131.3403418 193.15527344 130.83349609 C189.24693878 128.58066019 185.34192495 126.32210332 181.4375 124.0625 C180.66462646 123.61551758 179.89175293 123.16853516 179.09545898 122.70800781 C174.69134199 120.15865605 170.2937744 117.59849227 165.90234375 115.02734375 C155.8699789 109.15491979 145.81849226 103.32595264 135.6875 97.625 C127.05122578 92.76478731 118.48670704 87.79964447 109.95849609 82.75292969 C96.48131147 74.79465076 82.9412188 66.9545704 69.29736328 59.28564453 C61.13080005 54.68573141 53.03246763 49.97333379 44.95507812 45.21875 C40.19702591 42.42533419 35.42227035 39.66281447 30.609375 36.96484375 C29.72475586 36.46718506 28.84013672 35.96952637 27.92871094 35.45678711 C23.75280723 33.49584716 21.52188387 34.77710525 17.6875 36.8125 Z " fill="#336D6F" transform="translate(300.375,-0.375)"/>
<path d="M0 0 C90.07142857 0 90.07142857 0 109.25 17.75 C120.32757524 29.33511354 120.65098623 43.98363003 120.37890625 59.14453125 C119.84774307 71.10998141 114.39840934 80.72617293 106.6875 89.6875 C90.09078769 103.96839199 70.58870455 105.28039391 49.5625 105.25 C48.87088776 105.24931519 48.17927551 105.24863037 47.46670532 105.2479248 C35.83977869 105.20994467 35.83977869 105.20994467 31 104 C31 125.45 31 146.9 31 169 C20.77 169 10.54 169 0 169 C0 113.23 0 57.46 0 0 Z " fill="#FBFCFC" transform="translate(153,224)"/>
<path d="M0 0 C-0.58923112 4.81696444 -2.01552811 8.7076419 -4 13.125 C-6.41836028 18.42221903 -6.41836028 18.42221903 -8 24 C-12.06280524 23.31653744 -15.70955456 22.07149829 -19.5625 20.625 C-22.0368874 19.73561111 -24.51765594 18.86722917 -27 18 C-27.9384375 17.67128906 -28.876875 17.34257812 -29.84375 17.00390625 C-36.43818738 15.02368008 -42.84851612 14.69469437 -49.6875 14.625 C-50.56672119 14.61106201 -51.44594238 14.59712402 -52.35180664 14.58276367 C-59.59053772 14.63515415 -66.50426434 15.81815261 -72.375 20.3125 C-76.87733876 24.92203731 -78.19517244 28.49768658 -78.5 34.875 C-78.35342008 39.79764235 -77.49286088 43.13630361 -74.875 47.28125 C-68.64407305 52.99293304 -59.40874869 55.02136102 -51.5625 57.5625 C-50.38623047 57.94857422 -49.20996094 58.33464844 -47.99804688 58.73242188 C-41.70038896 60.79937905 -41.70038896 60.79937905 -35.3918457 62.83276367 C-20.59690778 67.61507659 -6.65065022 74.94003023 1 89 C6.83418986 100.46165645 6.86219197 115.96062359 3.375 128.1875 C-1.48795378 141.43777825 -10.41408577 149.8293538 -23.08203125 155.75390625 C-33.90471667 160.37564206 -44.17098549 162.37590205 -55.9375 162.3125 C-57.03634521 162.30686035 -58.13519043 162.3012207 -59.26733398 162.29541016 C-77.94029166 162.02050764 -94.52140952 157.92590318 -111 149 C-111.45375508 143.23352917 -109.80112199 138.51213964 -108 133.125 C-107.71382813 132.24585938 -107.42765625 131.36671875 -107.1328125 130.4609375 C-106.42965937 128.30460124 -105.71856606 126.15123899 -105 124 C-100.8499619 124.63905967 -97.48669512 126.04906631 -93.6875 127.8125 C-81.69993226 133.0493573 -70.68090346 135.34988613 -57.625 135.5 C-56.12767334 135.52779541 -56.12767334 135.52779541 -54.60009766 135.55615234 C-46.46001672 135.48711124 -39.4186292 133.83673487 -33.0625 128.5625 C-27.55401647 121.71862653 -26.07154294 115.70596689 -27 107 C-28.87486498 100.89773245 -33.50709476 96.91859495 -39 94 C-44.02324704 92.05362509 -49.12383766 90.43794264 -54.26953125 88.84912109 C-59.36371526 87.2649319 -64.43165235 85.60211975 -69.5 83.9375 C-70.49 83.62119629 -71.48 83.30489258 -72.5 82.97900391 C-86.1413503 78.51210341 -98.07060789 72.13791883 -105.75 59.484375 C-111.80624437 47.44758932 -113.27416485 33.61554064 -109.5 20.625 C-105.35215793 10.05235362 -98.72480138 2.69751606 -89 -3 C-88.33097656 -3.39832031 -87.66195313 -3.79664063 -86.97265625 -4.20703125 C-61.2504305 -18.25168212 -25.44607871 -11.19127295 0 0 Z " fill="#FCFDFD" transform="translate(504,233)"/>
<path d="M0 0 C32.67 0 65.34 0 99 0 C99 7.92 99 15.84 99 24 C76.56 24 54.12 24 31 24 C31 39.84 31 55.68 31 72 C52.12 72 73.24 72 95 72 C95 80.25 95 88.5 95 97 C73.88 97 52.76 97 31 97 C31 120.43 31 143.86 31 168 C20.77 168 10.54 168 0 168 C0 112.56 0 57.12 0 0 Z " fill="#FBFCFC" transform="translate(285,225)"/>
<path d="M0 0 C10.23 0 20.46 0 31 0 C31 55.44 31 110.88 31 168 C20.77 168 10.54 168 0 168 C0 112.56 0 57.12 0 0 Z " fill="#FCFDFD" transform="translate(98,225)"/>
<path d="M0 0 C5.713125 -0.0825 11.42625 -0.165 17.3125 -0.25 C19.09180908 -0.28641602 20.87111816 -0.32283203 22.7043457 -0.36035156 C33.47003981 -0.49014887 43.62105949 0.06930453 52 7.75 C58.48382988 14.11784008 59.27128158 19.46557063 59.4375 28.4375 C59.40060244 35.02513295 58.74260416 40.39832449 55 46 C54.62617188 46.56976563 54.25234375 47.13953125 53.8671875 47.7265625 C49.54277389 53.54017815 43.87607892 56.14606314 36.97412109 57.60742188 C30.1882084 58.50314898 23.26867806 58.19846401 16.4375 58.125 C11.013125 58.08375 5.58875 58.0425 0 58 C0 38.86 0 19.72 0 0 Z " fill="#449294" transform="translate(184,248)"/>
<path d="M0 0 C4.92547891 -0.09988492 9.85035096 -0.17194055 14.77661133 -0.21972656 C16.44761442 -0.239675 18.11854924 -0.26684401 19.78930664 -0.30175781 C31.46620486 -0.53941991 42.82373649 -0.66157488 52 7.75 C58.04671755 13.68854729 59.09516482 18.3357489 59.19116211 26.62524414 C59.18582471 30.08637228 59.10614376 33.54049954 59 37 C56.15804128 36.38812688 53.87153227 35.52282625 51.33984375 34.1015625 C50.63859375 33.7104126 49.93734375 33.3192627 49.21484375 32.91625977 C48.08755859 32.27708618 48.08755859 32.27708618 46.9375 31.625 C46.14601562 31.18019287 45.35453125 30.73538574 44.5390625 30.27709961 C42.02205366 28.85830929 39.5102332 27.43074062 37 26 C36.20480957 25.54737793 35.40961914 25.09475586 34.59033203 24.62841797 C29.85086556 21.92392143 25.13150419 19.18714374 20.42724609 16.421875 C18.75910377 15.44468118 17.08733734 14.47365595 15.41259766 13.5078125 C12.87058625 12.04029872 10.34063249 10.55376605 7.8125 9.0625 C7.02746094 8.61398682 6.24242187 8.16547363 5.43359375 7.70336914 C4.71945313 7.27660889 4.0053125 6.84984863 3.26953125 6.41015625 C2.63635986 6.04027588 2.00318848 5.67039551 1.35083008 5.28930664 C0.90505615 4.86383545 0.45928223 4.43836426 0 4 C0 2.68 0 1.36 0 0 Z " fill="#346E70" transform="translate(184,248)"/>
<path d="M0 0 C7.26 0 14.52 0 22 0 C17.48044423 7.9092226 17.48044423 7.9092226 13.5625 11.25 C12.82128906 11.89453125 12.08007812 12.5390625 11.31640625 13.203125 C5.1326087 18 5.1326087 18 2 18 C2 90.6 2 163.2 2 238 C1.67 238 1.34 238 1 238 C0.86683263 217.45214239 0.73639711 196.90426896 0.60884857 176.35637569 C0.54951031 166.80634204 0.48940481 157.25631458 0.42724609 147.70629883 C0.10728276 98.47015709 -0.07627286 49.237213 0 0 Z " fill="#438688" transform="translate(316,322)"/>
<path d="M0 0 C22.11 0 44.22 0 67 0 C67 0.33 67 0.66 67 1 C66.14059814 0.96745117 65.28119629 0.93490234 64.39575195 0.90136719 C44.78825775 0.34119046 30.11077725 1.40071042 14 14 C13.67 14.33 13.34 14.66 13 15 C8.1250082 15.55714192 6.88316611 14.44158306 2 12 C1.67 23.88 1.34 35.76 1 48 C0.67 48 0.34 48 0 48 C0 32.16 0 16.32 0 0 Z " fill="#55989A" transform="translate(316,249)"/>
<path d="M0 0 C6.93 0 13.86 0 21 0 C16.45286885 7.95747951 16.45286885 7.95747951 12.75 11.1875 C12.04359375 11.82042969 11.3371875 12.45335937 10.609375 13.10546875 C8 15 8 15 0 19 C0 12.73 0 6.46 0 0 Z " fill="#326D6F" transform="translate(317,322)"/>
<path d="M0 0 C0.66 0.33 1.32 0.66 2 1 C-1.63 4.63 -5.26 8.26 -9 12 C-9 8.00102358 -7.64683965 6.93298448 -5 4 C-3.36643049 2.62631655 -1.7074998 1.28062485 0 0 Z " fill="#E1E9EA" transform="translate(410,233)"/>
</svg>
