<?xml version="1.0" encoding="UTF-8"?>
<svg version="1.1" xmlns="http://www.w3.org/2000/svg" width="549" height="455">
<path d="M0 0 C0 32.01 0 64.02 0 97 C-9.00680272 101.50340136 -9.00680272 101.50340136 -12.59375 103.11328125 C-13.3882959 103.4705127 -14.1828418 103.82774414 -15.00146484 104.19580078 C-15.82598145 104.56431152 -16.65049805 104.93282227 -17.5 105.3125 C-18.37221191 105.70421387 -19.24442383 106.09592773 -20.14306641 106.49951172 C-24.88150543 108.62286475 -29.63237916 110.71374062 -34.39941406 112.77197266 C-35.05135742 113.05347168 -35.70330078 113.3349707 -36.375 113.625 C-37.02694336 113.90649902 -37.67888672 114.18799805 -38.35058594 114.47802734 C-42.56649691 116.31837337 -46.66074794 118.32614958 -50.75 120.4375 C-57.30378724 123.78219142 -64.03434883 126.51417309 -70.89746094 129.15991211 C-76.09747831 131.1762985 -81.04721997 133.43252438 -86 136 C-85.525625 136.9075 -85.05125 137.815 -84.5625 138.75 C-82.03842363 144.00007885 -81.85318985 148.48427315 -81.85955811 154.25447083 C-81.85510142 155.51400661 -81.85510142 155.51400661 -81.8505547 156.79898757 C-81.84187226 159.61705972 -81.84035984 162.43508936 -81.83886719 165.25317383 C-81.83423872 167.27193798 -81.82921402 169.29070125 -81.82382202 171.3094635 C-81.81069945 176.79712461 -81.80425343 182.28477348 -81.79981136 187.77244782 C-81.79688063 191.20044447 -81.79277584 194.62843776 -81.78830719 198.05643272 C-81.77463312 208.78053739 -81.76496581 219.50463441 -81.7611053 230.22874719 C-81.75662353 242.61076619 -81.73906966 254.99267486 -81.7101047 267.37466031 C-81.68849533 276.94420022 -81.67840143 286.51370906 -81.67706418 296.08327311 C-81.6760157 301.79948872 -81.67009844 307.5156006 -81.65224457 313.23179054 C-81.63577665 318.60882304 -81.63360223 323.98567368 -81.64238358 329.3627224 C-81.64315461 331.33517315 -81.6388025 333.30763364 -81.62892532 335.28005981 C-81.61622194 337.97511597 -81.62207388 340.66952647 -81.63250732 343.36457825 C-81.62042272 344.53220372 -81.62042272 344.53220372 -81.60809398 345.72341758 C-81.66422434 351.93325256 -82.92648651 356.68951355 -87.1875 361.4375 C-87.785625 361.953125 -88.38375 362.46875 -89 363 C-88.06705612 363.01213028 -88.06705612 363.01213028 -87.11526489 363.02450562 C-80.65914984 363.11036507 -74.20334846 363.20985976 -67.74755859 363.31738281 C-65.33615372 363.35573647 -62.92469038 363.3905779 -60.51318359 363.421875 C-57.05284687 363.46738703 -53.59291492 363.52540404 -50.1328125 363.5859375 C-48.50776291 363.60326431 -48.50776291 363.60326431 -46.84988403 363.62094116 C-45.8489975 363.64081085 -44.84811096 363.66068054 -43.81689453 363.68115234 C-42.93309113 363.69447601 -42.04928772 363.70779968 -41.13870239 363.7215271 C-39 364 -39 364 -37 366 C-36.8046875 369.2578125 -36.8046875 369.2578125 -36.875 373.125 C-36.89304687 374.40632813 -36.91109375 375.68765625 -36.9296875 377.0078125 C-36.96449219 378.48894531 -36.96449219 378.48894531 -37 380 C-37.66 380 -38.32 380 -39 380 C-39 380.66 -39 381.32 -39 382 C-50.00351176 387.85342861 -59.07277682 388.8643553 -71.36265564 388.76190186 C-73.18722114 388.76882779 -75.01177824 388.77836546 -76.83631808 388.79026532 C-81.81545482 388.81517061 -86.79389614 388.8029981 -91.77303445 388.78434801 C-97.15626679 388.77071991 -102.53938319 388.79175275 -107.92259216 388.80822754 C-118.45489322 388.83485722 -128.9869372 388.8291668 -139.51924818 388.81175169 C-148.08240371 388.7981809 -156.64548738 388.79637254 -165.20865059 388.80289459 C-166.42913255 388.80381399 -167.64961452 388.80473339 -168.90708079 388.80568065 C-171.38676736 388.80759907 -173.86645392 388.80954436 -176.34614045 388.8115162 C-199.57903158 388.82861098 -222.81178049 388.80897659 -246.0446483 388.776714 C-265.961396 388.74991214 -285.87793383 388.75456255 -305.79467773 388.78222656 C-328.94498397 388.81436707 -352.09516565 388.82695961 -375.24549109 388.80855298 C-377.71617192 388.80664177 -380.18685277 388.80475554 -382.65753365 388.80289459 C-384.48077799 388.80150611 -384.48077799 388.80150611 -386.34085555 388.80008958 C-394.88905586 388.79491821 -403.43717689 388.80363364 -411.98536491 388.81777191 C-422.40958115 388.83463465 -432.83352645 388.8299734 -443.25771182 388.79808745 C-448.57209324 388.78236509 -453.88602366 388.77606415 -459.20040131 388.79598236 C-464.07310557 388.81396836 -468.94494424 388.80386237 -473.81757087 388.77211705 C-475.57244616 388.76545987 -477.32739581 388.76872247 -479.08222257 388.78337178 C-490.28822289 388.8696836 -500.14042249 387.84743921 -510 382 C-512.1612191 378.83552244 -512.27066556 376.23479589 -512.25 372.4375 C-512.25773438 371.01244141 -512.25773438 371.01244141 -512.265625 369.55859375 C-512 367 -512 367 -510 364 C-507.86129761 363.60127258 -507.86129761 363.60127258 -505.18310547 363.56762695 C-503.68177567 363.53793571 -503.68177567 363.53793571 -502.15011597 363.50764465 C-501.06674957 363.50125473 -499.98338318 363.49486481 -498.8671875 363.48828125 C-497.20672897 363.46135445 -497.20672897 363.46135445 -495.51272583 363.43388367 C-491.96685632 363.37957395 -488.42112297 363.34581831 -484.875 363.3125 C-482.47524138 363.27934523 -480.07550078 363.24485732 -477.67578125 363.20898438 C-471.78397627 363.12383578 -465.8921541 363.05557376 -460 363 C-460.61875 362.29875 -461.2375 361.5975 -461.875 360.875 C-465.92915293 355.38996957 -466.29260064 350.07332636 -466.26069641 343.42909241 C-466.26643473 342.15474269 -466.26643473 342.15474269 -466.27228898 340.85464853 C-466.2825869 338.01509617 -466.27863293 335.17574722 -466.2746582 332.33618164 C-466.27900643 330.29741733 -466.28418995 328.25865466 -466.29014587 326.21989441 C-466.30353467 320.68687989 -466.3041147 315.15393368 -466.30158257 309.62090611 C-466.30051286 305.00103405 -466.30539621 300.38117581 -466.310188 295.7613067 C-466.32128261 284.86242637 -466.32172073 273.96358051 -466.31567383 263.06469727 C-466.30963213 251.82206965 -466.32195018 240.57956713 -466.3432439 229.33696085 C-466.36085719 219.68244983 -466.36686171 210.02797863 -466.36360615 200.37345213 C-466.36179284 194.60809041 -466.36443441 188.84281795 -466.37832069 183.07747078 C-466.39089004 177.65607905 -466.38896329 172.23488244 -466.37590981 166.81349373 C-466.3735426 164.82491999 -466.37628385 162.83633255 -466.38453293 160.84777451 C-466.39498973 158.13092025 -466.38690827 155.414722 -466.3742218 152.69789124 C-466.38159609 151.9130566 -466.38897037 151.12822196 -466.39656812 150.31960446 C-466.34061518 144.61460922 -465.34502586 139.72364983 -461.5 135.2578125 C-456.81686194 131.72106761 -453.84782604 130.87481004 -448.05854797 130.87974548 C-446.81754333 130.87837082 -445.5765387 130.87699615 -444.29792786 130.87557983 C-442.9203794 130.87911897 -441.54283118 130.88275378 -440.1652832 130.88647461 C-438.71658327 130.88675664 -437.2678832 130.88659843 -435.81918335 130.8860321 C-431.88352362 130.88574476 -427.94789426 130.89163137 -424.0122416 130.89860606 C-419.90026773 130.90485003 -415.78829319 130.90544423 -411.67631531 130.90663147 C-403.88843728 130.9097417 -396.10057326 130.91795095 -388.3127014 130.92798096 C-379.44702251 130.93915164 -370.58134296 130.94465496 -361.71565878 130.94967639 C-343.47709791 130.96013381 -325.23855008 130.97772731 -307 131 C-306.84673752 129.73566132 -306.69347504 128.47132263 -306.53556824 127.16867065 C-306.15175203 124.00237929 -305.60609747 120.9736542 -304.80078125 117.8828125 C-304.56391602 116.95855469 -304.32705078 116.03429687 -304.08300781 115.08203125 C-303.82874023 114.10621094 -303.57447266 113.13039063 -303.3125 112.125 C-300.7306411 102.02509665 -298.32106387 91.89496727 -296.00512695 81.73095703 C-294.72958909 76.13723327 -293.41666723 70.55975066 -292 65 C-284.90638137 65.71976815 -278.07145236 67.23059605 -271.125 68.8125 C-269.93495361 69.07877197 -268.74490723 69.34504395 -267.51879883 69.61938477 C-262.15197543 70.82187493 -256.79080664 72.04246053 -251.44140625 73.3203125 C-250.62720215 73.51133545 -249.81299805 73.7023584 -248.97412109 73.89916992 C-247.49945854 74.24634384 -246.02689359 74.60261375 -244.55712891 74.9699707 C-239.05193419 76.25713701 -235.1881256 76.18359083 -230.18359375 73.4765625 C-229.27738281 72.86554688 -228.37117188 72.25453125 -227.4375 71.625 C-217.71852521 65.14568347 -210.71785499 62.11788579 -198.77636719 64.43066406 C-193.66854022 65.60326171 -188.61314045 66.97636805 -183.55175781 68.33300781 C-179.6379774 69.35601279 -175.699971 70.25377777 -171.75 71.125 C-171.01998779 71.28621338 -170.28997559 71.44742676 -169.5378418 71.61352539 C-163.16701962 72.99904251 -156.76894682 74.21647148 -150.35546875 75.38671875 C-148.31712538 75.75926812 -146.28536285 76.1760997 -144.2734375 76.671875 C-140.73215885 77.18298738 -138.19112855 75.45051298 -135 74 C-133.68 74 -132.36 74 -131 74 C-131.103125 73.071875 -131.20625 72.14375 -131.3125 71.1875 C-131.209375 70.135625 -131.10625 69.08375 -131 68 C-128.14925356 65.68858396 -126.6860549 65 -123 65 C-123.350625 64.2575 -123.70125 63.515 -124.0625 62.75 C-125.07815436 59.7707472 -125.14533047 58.85477894 -124 56 C-122.3984375 54.83984375 -122.3984375 54.83984375 -120.375 53.9375 C-119.72273438 53.63714844 -119.07046875 53.33679687 -118.3984375 53.02734375 C-116.54596342 52.23385729 -114.68975585 51.44908353 -112.83203125 50.66796875 C-108.25829577 48.71154851 -103.79340623 46.53346242 -99.3125 44.375 C-84.90426454 37.47605009 -70.32352944 30.97747521 -55.67578125 24.60546875 C-53.04626082 23.4607283 -50.42409619 22.30050071 -47.8046875 21.1328125 C-44.25895274 19.55370832 -40.70399551 17.99712435 -37.14453125 16.44921875 C-26.79876641 11.94168749 -16.49732634 7.43906006 -6.4765625 2.2421875 C-2.00628931 0 -2.00628931 0 0 0 Z M-94 129 C-94.33 129.99 -94.66 130.98 -95 132 C-94.01 131.67 -93.02 131.34 -92 131 C-92.66 130.34 -93.32 129.68 -94 129 Z " fill="#F3F3F3" transform="translate(549,4)"/>
<path d="M0 0 C0 32.01 0 64.02 0 97 C-9.00680272 101.50340136 -9.00680272 101.50340136 -12.59375 103.11328125 C-13.3882959 103.4705127 -14.1828418 103.82774414 -15.00146484 104.19580078 C-15.82598145 104.56431152 -16.65049805 104.93282227 -17.5 105.3125 C-18.37221191 105.70421387 -19.24442383 106.09592773 -20.14306641 106.49951172 C-24.88150543 108.62286475 -29.63237916 110.71374062 -34.39941406 112.77197266 C-35.05135742 113.05347168 -35.70330078 113.3349707 -36.375 113.625 C-37.02694336 113.90649902 -37.67888672 114.18799805 -38.35058594 114.47802734 C-42.56649691 116.31837337 -46.66074794 118.32614958 -50.75 120.4375 C-57.30378724 123.78219142 -64.03434883 126.51417309 -70.89746094 129.15991211 C-76.09747831 131.1762985 -81.04721997 133.43252438 -86 136 C-85.525625 136.9075 -85.05125 137.815 -84.5625 138.75 C-82.03842363 144.00007885 -81.85318985 148.48427315 -81.85955811 154.25447083 C-81.85510142 155.51400661 -81.85510142 155.51400661 -81.8505547 156.79898757 C-81.84187226 159.61705972 -81.84035984 162.43508936 -81.83886719 165.25317383 C-81.83423872 167.27193798 -81.82921402 169.29070125 -81.82382202 171.3094635 C-81.81069945 176.79712461 -81.80425343 182.28477348 -81.79981136 187.77244782 C-81.79688063 191.20044447 -81.79277584 194.62843776 -81.78830719 198.05643272 C-81.77463312 208.78053739 -81.76496581 219.50463441 -81.7611053 230.22874719 C-81.75662353 242.61076619 -81.73906966 254.99267486 -81.7101047 267.37466031 C-81.68849533 276.94420022 -81.67840143 286.51370906 -81.67706418 296.08327311 C-81.6760157 301.79948872 -81.67009844 307.5156006 -81.65224457 313.23179054 C-81.63577665 318.60882304 -81.63360223 323.98567368 -81.64238358 329.3627224 C-81.64315461 331.33517315 -81.6388025 333.30763364 -81.62892532 335.28005981 C-81.61622194 337.97511597 -81.62207388 340.66952647 -81.63250732 343.36457825 C-81.62042272 344.53220372 -81.62042272 344.53220372 -81.60809398 345.72341758 C-81.66422434 351.93325256 -82.92648651 356.68951355 -87.1875 361.4375 C-87.785625 361.953125 -88.38375 362.46875 -89 363 C-88.06705612 363.01213028 -88.06705612 363.01213028 -87.11526489 363.02450562 C-80.65914984 363.11036507 -74.20334846 363.20985976 -67.74755859 363.31738281 C-65.33615372 363.35573647 -62.92469038 363.3905779 -60.51318359 363.421875 C-57.05284687 363.46738703 -53.59291492 363.52540404 -50.1328125 363.5859375 C-48.50776291 363.60326431 -48.50776291 363.60326431 -46.84988403 363.62094116 C-45.8489975 363.64081085 -44.84811096 363.66068054 -43.81689453 363.68115234 C-42.93309113 363.69447601 -42.04928772 363.70779968 -41.13870239 363.7215271 C-39 364 -39 364 -37 366 C-36.8046875 369.2578125 -36.8046875 369.2578125 -36.875 373.125 C-36.89304687 374.40632813 -36.91109375 375.68765625 -36.9296875 377.0078125 C-36.96449219 378.48894531 -36.96449219 378.48894531 -37 380 C-37.66 380 -38.32 380 -39 380 C-39 380.66 -39 381.32 -39 382 C-50.00351176 387.85342861 -59.07277682 388.8643553 -71.36265564 388.76190186 C-73.18722114 388.76882779 -75.01177824 388.77836546 -76.83631808 388.79026532 C-81.81545482 388.81517061 -86.79389614 388.8029981 -91.77303445 388.78434801 C-97.15626679 388.77071991 -102.53938319 388.79175275 -107.92259216 388.80822754 C-118.45489322 388.83485722 -128.9869372 388.8291668 -139.51924818 388.81175169 C-148.08240371 388.7981809 -156.64548738 388.79637254 -165.20865059 388.80289459 C-166.42913255 388.80381399 -167.64961452 388.80473339 -168.90708079 388.80568065 C-171.38676736 388.80759907 -173.86645392 388.80954436 -176.34614045 388.8115162 C-199.57903158 388.82861098 -222.81178049 388.80897659 -246.0446483 388.776714 C-265.961396 388.74991214 -285.87793383 388.75456255 -305.79467773 388.78222656 C-328.94498397 388.81436707 -352.09516565 388.82695961 -375.24549109 388.80855298 C-377.71617192 388.80664177 -380.18685277 388.80475554 -382.65753365 388.80289459 C-384.48077799 388.80150611 -384.48077799 388.80150611 -386.34085555 388.80008958 C-394.88905586 388.79491821 -403.43717689 388.80363364 -411.98536491 388.81777191 C-422.40958115 388.83463465 -432.83352645 388.8299734 -443.25771182 388.79808745 C-448.57209324 388.78236509 -453.88602366 388.77606415 -459.20040131 388.79598236 C-464.07310557 388.81396836 -468.94494424 388.80386237 -473.81757087 388.77211705 C-475.57244616 388.76545987 -477.32739581 388.76872247 -479.08222257 388.78337178 C-490.28822289 388.8696836 -500.14042249 387.84743921 -510 382 C-512.1612191 378.83552244 -512.27066556 376.23479589 -512.25 372.4375 C-512.25773438 371.01244141 -512.25773438 371.01244141 -512.265625 369.55859375 C-512 367 -512 367 -510 364 C-507.86129761 363.60127258 -507.86129761 363.60127258 -505.18310547 363.56762695 C-503.68177567 363.53793571 -503.68177567 363.53793571 -502.15011597 363.50764465 C-501.06674957 363.50125473 -499.98338318 363.49486481 -498.8671875 363.48828125 C-497.20672897 363.46135445 -497.20672897 363.46135445 -495.51272583 363.43388367 C-491.96685632 363.37957395 -488.42112297 363.34581831 -484.875 363.3125 C-482.47524138 363.27934523 -480.07550078 363.24485732 -477.67578125 363.20898438 C-471.78397627 363.12383578 -465.8921541 363.05557376 -460 363 C-460.61875 362.29875 -461.2375 361.5975 -461.875 360.875 C-465.92915293 355.38996957 -466.29260064 350.07332636 -466.26069641 343.42909241 C-466.26643473 342.15474269 -466.26643473 342.15474269 -466.27228898 340.85464853 C-466.2825869 338.01509617 -466.27863293 335.17574722 -466.2746582 332.33618164 C-466.27900643 330.29741733 -466.28418995 328.25865466 -466.29014587 326.21989441 C-466.30353467 320.68687989 -466.3041147 315.15393368 -466.30158257 309.62090611 C-466.30051286 305.00103405 -466.30539621 300.38117581 -466.310188 295.7613067 C-466.32128261 284.86242637 -466.32172073 273.96358051 -466.31567383 263.06469727 C-466.30963213 251.82206965 -466.32195018 240.57956713 -466.3432439 229.33696085 C-466.36085719 219.68244983 -466.36686171 210.02797863 -466.36360615 200.37345213 C-466.36179284 194.60809041 -466.36443441 188.84281795 -466.37832069 183.07747078 C-466.39089004 177.65607905 -466.38896329 172.23488244 -466.37590981 166.81349373 C-466.3735426 164.82491999 -466.37628385 162.83633255 -466.38453293 160.84777451 C-466.39498973 158.13092025 -466.38690827 155.414722 -466.3742218 152.69789124 C-466.38159609 151.9130566 -466.38897037 151.12822196 -466.39656812 150.31960446 C-466.34061518 144.61460922 -465.34502586 139.72364983 -461.5 135.2578125 C-456.81686194 131.72106761 -453.84782604 130.87481004 -448.05854797 130.87974548 C-446.81754333 130.87837082 -445.5765387 130.87699615 -444.29792786 130.87557983 C-442.9203794 130.87911897 -441.54283118 130.88275378 -440.1652832 130.88647461 C-438.71658327 130.88675664 -437.2678832 130.88659843 -435.81918335 130.8860321 C-431.88352362 130.88574476 -427.94789426 130.89163137 -424.0122416 130.89860606 C-419.90026773 130.90485003 -415.78829319 130.90544423 -411.67631531 130.90663147 C-403.88843728 130.9097417 -396.10057326 130.91795095 -388.3127014 130.92798096 C-379.44702251 130.93915164 -370.58134296 130.94465496 -361.71565878 130.94967639 C-343.47709791 130.96013381 -325.23855008 130.97772731 -307 131 C-307.64993101 136.19944809 -308.71260163 140.85040653 -310 146 C-356.53 146 -403.06 146 -451 146 C-451 213.65 -451 281.3 -451 351 C-334.18 351 -217.36 351 -97 351 C-97 283.35 -97 215.7 -97 146 C-108.55 146 -120.1 146 -132 146 C-123.51996651 137.51996651 -112.55032378 131.19253379 -100.375 130.875 C-97.91648243 130.9038137 -95.45803209 130.94328026 -93 131 C-96.99791285 119.90149675 -101.49285179 109.14483097 -106.4375 98.4375 C-107.07405556 97.04774939 -107.71012384 95.65777549 -108.34570312 94.26757812 C-110.88033266 88.73321887 -113.4248879 83.20439697 -116.03173828 77.70361328 C-116.35755386 77.01380875 -116.68336945 76.32400421 -117.01905823 75.61329651 C-117.64125211 74.29815216 -118.26670528 72.9845434 -118.89585876 71.67271423 C-121 67.22231906 -121 67.22231906 -121 65 C-121.66 65 -122.32 65 -123 65 C-125.06577132 60.62542544 -125.06577132 60.62542544 -124.78515625 57.95703125 C-123.76862366 55.42328584 -122.83796611 55.03584975 -120.375 53.9375 C-119.72273438 53.63714844 -119.07046875 53.33679687 -118.3984375 53.02734375 C-116.54596342 52.23385729 -114.68975585 51.44908353 -112.83203125 50.66796875 C-108.25829577 48.71154851 -103.79340623 46.53346242 -99.3125 44.375 C-84.90426454 37.47605009 -70.32352944 30.97747521 -55.67578125 24.60546875 C-53.04626082 23.4607283 -50.42409619 22.30050071 -47.8046875 21.1328125 C-44.25895274 19.55370832 -40.70399551 17.99712435 -37.14453125 16.44921875 C-26.79876641 11.94168749 -16.49732634 7.43906006 -6.4765625 2.2421875 C-2.00628931 0 -2.00628931 0 0 0 Z " fill="#4D4E4F" transform="translate(549,4)"/>
<path d="M0 0 C17.49 0 34.98 0 53 0 C52.20471475 6.36228202 51.1469767 12.69162814 50 19 C83 19 116 19 150 19 C150.66 15.37 151.32 11.74 152 8 C152.66 5.36 153.32 2.72 154 0 C167.86 0 181.72 0 196 0 C197.65 2.97 199.3 5.94 201 9 C202.93212299 11.66890614 202.93212299 11.66890614 204.8828125 14.32421875 C206.67714692 17.01572039 207.74766572 20.0257061 209 23 C209.89164126 24.19065086 210.78775465 25.37796131 211.6875 26.5625 C215.36752068 32.12660312 214.40436473 38.60205136 214 45 C211.36 45 208.72 45 206 45 C206 80.31 206 115.62 206 152 C134.72 152 63.44 152 -10 152 C-10 117.02 -10 82.04 -10 46 C-12.97 46 -15.94 46 -19 46 C-19.10853983 43.77191841 -19.18583307 41.54230068 -19.25 39.3125 C-19.29640625 38.07113281 -19.3428125 36.82976562 -19.390625 35.55078125 C-18.93466427 31.40609824 -17.77951712 30.00983492 -15 27 C-14.26421443 25.33648479 -13.53106262 23.6708826 -12.859375 21.98046875 C-11.20545558 18.16893627 -9.06551958 14.60037208 -7 11 C-6.34 11 -5.68 11 -5 11 C-4.67 9.35 -4.34 7.7 -4 6 C-3.34 6 -2.68 6 -2 6 C-1.34 4.02 -0.68 2.04 0 0 Z " fill="#E1E2E1" transform="translate(177,186)"/>
<path d="M0 0 C3.91378041 1.02300498 7.85178681 1.92076996 11.80175781 2.79199219 C12.53177002 2.95320557 13.26178223 3.11441895 14.01391602 3.28051758 C20.38473819 4.6660347 26.78281099 5.88346367 33.19628906 7.05371094 C35.23463244 7.42626031 37.26639497 7.84309189 39.27832031 8.33886719 C42.81959896 8.84997957 45.36062926 7.11750517 48.55175781 5.66699219 C49.87175781 5.66699219 51.19175781 5.66699219 52.55175781 5.66699219 C52.44863281 4.73886719 52.34550781 3.81074219 52.23925781 2.85449219 C52.55175781 -0.33300781 52.55175781 -0.33300781 54.73925781 -2.20800781 C57.63273561 -3.36539893 59.48378213 -3.42582052 62.55175781 -3.33300781 C70.14331367 12.21198739 77.50354061 27.83734228 84.29345703 43.75146484 C85.18607877 45.81970093 86.10741132 47.87565187 87.04833984 49.92236328 C87.76352783 51.51878662 87.76352783 51.51878662 88.49316406 53.14746094 C89.15554077 54.59028442 89.15554077 54.59028442 89.83129883 56.06225586 C90.55175781 58.66699219 90.55175781 58.66699219 89.8515625 60.98657227 C88.55175781 62.66699219 88.55175781 62.66699219 85.81347656 63.07324219 C84.63398438 63.10417969 83.45449219 63.13511719 82.23925781 63.16699219 C70.91796006 63.96052116 61.9737686 70.87830582 52.55175781 76.66699219 C69.38175781 77.16199219 69.38175781 77.16199219 86.55175781 77.66699219 C86.55175781 145.31699219 86.55175781 212.96699219 86.55175781 282.66699219 C-30.26824219 282.66699219 -147.08824219 282.66699219 -267.44824219 282.66699219 C-267.44824219 215.01699219 -267.44824219 147.36699219 -267.44824219 77.66699219 C-220.91824219 77.66699219 -174.38824219 77.66699219 -126.44824219 77.66699219 C-126.44824219 77.99699219 -126.44824219 78.32699219 -126.44824219 78.66699219 C-172.64824219 78.66699219 -218.84824219 78.66699219 -266.44824219 78.66699219 C-266.44824219 145.65699219 -266.44824219 212.64699219 -266.44824219 281.66699219 C-150.28824219 281.66699219 -34.12824219 281.66699219 85.55175781 281.66699219 C85.55175781 219.62699219 85.55175781 157.58699219 85.55175781 93.66699219 C47.93175781 93.66699219 10.31175781 93.66699219 -28.44824219 93.66699219 C-28.44824219 92.34699219 -28.44824219 91.02699219 -28.44824219 89.66699219 C-6.66824219 89.66699219 15.11175781 89.66699219 37.55175781 89.66699219 C37.55175781 87.68699219 37.55175781 85.70699219 37.55175781 83.66699219 C36.689375 83.99183594 35.82699219 84.31667969 34.93847656 84.65136719 C25.31678324 87.53676542 13.96264943 85.80395606 4.55175781 82.66699219 C2.26918791 82.5155412 -0.01711924 82.4181224 -2.30371094 82.35058594 C-3.2961657 82.31941429 -3.2961657 82.31941429 -4.30867004 82.28761292 C-6.4175907 82.22234492 -8.52663353 82.16333874 -10.63574219 82.10449219 C-12.06739533 82.06128529 -13.49903623 82.01767031 -14.93066406 81.97363281 C-18.43639373 81.86668713 -21.94226005 81.76535578 -25.44824219 81.66699219 C-25.66016439 76.47489815 -25.03951109 72.54025319 -23.44824219 67.66699219 C-24.08637848 67.66334656 -24.72451477 67.65970093 -25.38198853 67.65594482 C-32.03351041 67.61408205 -38.68434471 67.54470943 -45.33544922 67.45947266 C-47.816499 67.43127523 -50.29763841 67.41005464 -52.77880859 67.39599609 C-56.34877366 67.37455057 -59.91766246 67.32788877 -63.48730469 67.27636719 C-64.5937735 67.27513855 -65.70024231 67.27390991 -66.84024048 67.27264404 C-73.00787172 67.15577474 -76.76193813 66.80963476 -81.44824219 62.66699219 C-84.85235206 58.809001 -84.90632373 55.05231362 -84.72949219 50.10839844 C-84.33331643 46.66937273 -83.52889789 44.44119979 -81.44824219 41.66699219 C-78.26074219 40.29199219 -78.26074219 40.29199219 -75.44824219 39.66699219 C-75.44824219 39.00699219 -75.44824219 38.34699219 -75.44824219 37.66699219 C-55.64824219 37.66699219 -35.84824219 37.66699219 -15.44824219 37.66699219 C-15.11824219 34.36699219 -14.78824219 31.06699219 -14.44824219 27.66699219 C-13.89514702 24.62295019 -13.17641856 21.67678785 -12.44824219 18.66699219 C-14.14787109 18.54517578 -14.14787109 18.54517578 -15.88183594 18.42089844 C-23.56003018 17.56776574 -31.02863132 15.46842298 -38.51074219 13.60449219 C-40.05944207 13.22311167 -41.6082693 12.84224788 -43.15722656 12.46191406 C-46.9223939 11.5362278 -50.68576595 10.60355377 -54.44824219 9.66699219 C-51.56696758 7.74614245 -48.63569227 6.02026532 -45.63574219 4.29199219 C-42.33466076 2.3806302 -39.07474993 0.47813642 -35.94824219 -1.70800781 C-25.43834056 -8.53944387 -10.99882825 -2.94809714 0 0 Z " fill="#F5C193" transform="translate(365.4482421875,72.3330078125)"/>
<path d="M0 0 C2.28529028 0.09170443 4.57325507 0.12011526 6.86038303 0.1174612 C7.56560883 0.11801586 8.27083462 0.11857051 8.99743089 0.11914197 C11.37840597 0.11978761 13.75930837 0.11324708 16.14027405 0.10679626 C17.85735458 0.10580085 19.57443543 0.10525064 21.29151624 0.10510927 C26.02394367 0.1034585 30.75634378 0.09557763 35.4887625 0.08674753 C40.5869523 0.07833904 45.68514521 0.07572189 50.78334045 0.07249451 C59.62141981 0.06618804 68.45948998 0.05644268 77.29756355 0.04459953 C90.07821788 0.02765253 102.85886991 0.01807879 115.63953298 0.0107208 C136.37663474 -0.00123319 157.11373289 -0.01618645 177.85083008 -0.03442383 C179.0927047 -0.03551395 180.33457932 -0.03660407 181.6140865 -0.03772723 C199.24784915 -0.05334588 216.88160743 -0.0719394 234.51536583 -0.0917251 C235.75754364 -0.09311842 236.99972145 -0.09451173 238.27954102 -0.09594727 C239.5202122 -0.0973408 240.76088338 -0.09873433 242.03915066 -0.10017008 C262.69813934 -0.12317482 283.35712517 -0.13850953 304.01612467 -0.14750665 C316.77074478 -0.15337213 329.52532612 -0.16578048 342.27993094 -0.18647944 C351.0126783 -0.20014927 359.74541203 -0.20667834 368.47816999 -0.20748956 C373.52340169 -0.20819618 378.56857545 -0.2122532 383.61379242 -0.2249527 C388.22567456 -0.23650098 392.83746613 -0.23897678 397.44935923 -0.23401051 C399.12426378 -0.23385829 400.79917263 -0.23714678 402.47406281 -0.24408758 C404.73797563 -0.25298998 407.00154496 -0.24976203 409.26545811 -0.24330235 C410.52678171 -0.24460386 411.78810531 -0.24590537 413.08765084 -0.24724633 C416 0 416 0 418 2 C418.1953125 5.2578125 418.1953125 5.2578125 418.125 9.125 C418.10695313 10.40632813 418.08890625 11.68765625 418.0703125 13.0078125 C418.03550781 14.48894531 418.03550781 14.48894531 418 16 C417.34 16 416.68 16 416 16 C416 16.66 416 17.32 416 18 C404.99648824 23.85342861 395.92722318 24.8643553 383.63734436 24.76190186 C381.81277886 24.76882779 379.98822176 24.77836546 378.16368192 24.79026532 C373.18454518 24.81517061 368.20610386 24.8029981 363.22696555 24.78434801 C357.84373321 24.77071991 352.46061681 24.79175275 347.07740784 24.80822754 C336.54510678 24.83485722 326.0130628 24.8291668 315.48075182 24.81175169 C306.91759629 24.7981809 298.35451262 24.79637254 289.79134941 24.80289459 C288.57086745 24.80381399 287.35038548 24.80473339 286.09291921 24.80568065 C283.61323264 24.80759907 281.13354608 24.80954436 278.65385955 24.8115162 C255.42096842 24.82861098 232.18821951 24.80897659 208.9553517 24.776714 C189.038604 24.74991214 169.12206617 24.75456255 149.20532227 24.78222656 C126.05501603 24.81436707 102.90483435 24.82695961 79.75450891 24.80855298 C77.28382808 24.80664177 74.81314723 24.80475554 72.34246635 24.80289459 C71.12697013 24.80196894 69.9114739 24.80104329 68.65914445 24.80008958 C60.11094414 24.79491821 51.56282311 24.80363364 43.01463509 24.81777191 C32.59041885 24.83463465 22.16647355 24.8299734 11.74228818 24.79808745 C6.42790676 24.78236509 1.11397634 24.77606415 -4.20040131 24.79598236 C-9.07310557 24.81396836 -13.94494424 24.80386237 -18.81757087 24.77211705 C-20.57244616 24.76545987 -22.32739581 24.76872247 -24.08222257 24.78337178 C-35.28822289 24.8696836 -45.14042249 23.84743921 -55 18 C-57.1612191 14.83552244 -57.27066556 12.23479589 -57.25 8.4375 C-57.25515625 7.48746094 -57.2603125 6.53742188 -57.265625 5.55859375 C-57 3 -57 3 -55 0 C-52.80555725 -0.40545654 -52.80555725 -0.40545654 -50.04711914 -0.44824219 C-49.01587418 -0.47126404 -47.98462921 -0.49428589 -46.9221344 -0.51800537 C-45.80443161 -0.52753235 -44.68672882 -0.53705933 -43.53515625 -0.546875 C-42.39090683 -0.56719788 -41.24665741 -0.58752075 -40.06773376 -0.60845947 C-37.6443007 -0.64872767 -35.2207405 -0.6818717 -32.79711914 -0.70849609 C-29.08113791 -0.74979287 -25.36599779 -0.81240218 -21.65039062 -0.87890625 C-19.29949822 -0.91531461 -16.94858668 -0.95051133 -14.59765625 -0.984375 C-13.48197769 -1.0019989 -12.36629913 -1.0196228 -11.21681213 -1.03778076 C-9.66521645 -1.05340057 -9.66521645 -1.05340057 -8.08227539 -1.06933594 C-6.71565514 -1.08574127 -6.71565514 -1.08574127 -5.32142639 -1.10247803 C-3 -1 -3 -1 0 0 Z " fill="#C1C2C3" transform="translate(94,368)"/>
<path d="M0 0 C0 32.01 0 64.02 0 97 C-9.00680272 101.50340136 -9.00680272 101.50340136 -12.59375 103.11328125 C-13.3882959 103.4705127 -14.1828418 103.82774414 -15.00146484 104.19580078 C-15.82598145 104.56431152 -16.65049805 104.93282227 -17.5 105.3125 C-18.37221191 105.70421387 -19.24442383 106.09592773 -20.14306641 106.49951172 C-24.88150543 108.62286475 -29.63237916 110.71374062 -34.39941406 112.77197266 C-35.05135742 113.05347168 -35.70330078 113.3349707 -36.375 113.625 C-37.02694336 113.90649902 -37.67888672 114.18799805 -38.35058594 114.47802734 C-42.56649691 116.31837337 -46.66074794 118.32614958 -50.75 120.4375 C-58.78532782 124.52888252 -67.13160228 127.77666586 -75.53320312 131.03271484 C-79.02490448 132.40188752 -82.49263659 133.82936031 -85.95996094 135.2590332 C-88 136 -88 136 -90 136 C-92.69194687 132.21573436 -94.18722364 128.06480363 -95.72265625 123.72265625 C-98.87069787 115.08968399 -102.58694526 106.77563899 -106.4375 98.4375 C-107.07405556 97.04774939 -107.71012384 95.65777549 -108.34570312 94.26757812 C-110.88033266 88.73321887 -113.4248879 83.20439697 -116.03173828 77.70361328 C-116.35755386 77.01380875 -116.68336945 76.32400421 -117.01905823 75.61329651 C-117.64125211 74.29815216 -118.26670528 72.9845434 -118.89585876 71.67271423 C-121 67.22231906 -121 67.22231906 -121 65 C-121.66 65 -122.32 65 -123 65 C-125.06577132 60.62542544 -125.06577132 60.62542544 -124.78515625 57.95703125 C-123.76862366 55.42328584 -122.83796611 55.03584975 -120.375 53.9375 C-119.72273438 53.63714844 -119.07046875 53.33679687 -118.3984375 53.02734375 C-116.54596342 52.23385729 -114.68975585 51.44908353 -112.83203125 50.66796875 C-108.25829577 48.71154851 -103.79340623 46.53346242 -99.3125 44.375 C-84.90426454 37.47605009 -70.32352944 30.97747521 -55.67578125 24.60546875 C-53.04626082 23.4607283 -50.42409619 22.30050071 -47.8046875 21.1328125 C-44.25895274 19.55370832 -40.70399551 17.99712435 -37.14453125 16.44921875 C-26.79876641 11.94168749 -16.49732634 7.43906006 -6.4765625 2.2421875 C-2.00628931 0 -2.00628931 0 0 0 Z " fill="#3D3E3E" transform="translate(549,4)"/>
<path d="M0 0 C17.49 0 34.98 0 53 0 C52.20471475 6.36228202 51.1469767 12.69162814 50 19 C83 19 116 19 150 19 C150.66 15.37 151.32 11.74 152 8 C152.66 5.36 153.32 2.72 154 0 C167.86 0 181.72 0 196 0 C197.65 2.97 199.3 5.94 201 9 C202.93212299 11.66890614 202.93212299 11.66890614 204.8828125 14.32421875 C206.67714692 17.01572039 207.74766572 20.0257061 209 23 C209.89164126 24.19065086 210.78775465 25.37796131 211.6875 26.5625 C215.36752068 32.12660312 214.40436473 38.60205136 214 45 C211.36 45 208.72 45 206 45 C206 46.65 206 48.3 206 50 C134.72 50 63.44 50 -10 50 C-10 48.68 -10 47.36 -10 46 C-12.97 46 -15.94 46 -19 46 C-19.10853983 43.77191841 -19.18583307 41.54230068 -19.25 39.3125 C-19.29640625 38.07113281 -19.3428125 36.82976562 -19.390625 35.55078125 C-18.93466427 31.40609824 -17.77951712 30.00983492 -15 27 C-14.26421443 25.33648479 -13.53106262 23.6708826 -12.859375 21.98046875 C-11.20545558 18.16893627 -9.06551958 14.60037208 -7 11 C-6.34 11 -5.68 11 -5 11 C-4.67 9.35 -4.34 7.7 -4 6 C-3.34 6 -2.68 6 -2 6 C-1.34 4.02 -0.68 2.04 0 0 Z " fill="#CBCBCB" transform="translate(177,186)"/>
<path d="M0 0 C46.2 0 92.4 0 140 0 C140 0.99 140 1.98 140 3 C109.31 3 78.62 3 47 3 C47 5.64 47 8.28 47 11 C76.7 11 106.4 11 137 11 C137 12.32 137 13.64 137 15 C99.05 15 61.1 15 22 15 C22.08378906 28.48746094 22.16757813 41.97492188 22.25390625 55.87109375 C22.30458841 64.38866912 22.35501789 72.90624472 22.40429688 81.42382812 C22.48265334 94.95908537 22.56207521 108.49433064 22.64819336 122.02954102 C22.71089588 131.88525697 22.77010346 141.74098655 22.82505554 151.59674889 C22.85429499 156.81873026 22.88532425 162.04068756 22.92053413 167.26263237 C22.95357914 172.17167804 22.98197235 177.08072802 23.00670624 181.98982239 C23.01664871 183.79708966 23.02833077 185.60434828 23.04183006 187.41159248 C23.05992446 189.86789689 23.07191514 192.32415504 23.08229065 194.78050232 C23.08909444 195.50519681 23.09589823 196.2298913 23.10290819 196.97654623 C23.10673354 198.65137777 23.05908218 200.32620652 23 202 C22.67 202.33 22.34 202.66 22 203 C14.74 203 7.48 203 0 203 C0 136.01 0 69.02 0 0 Z " fill="#E5E5E5" transform="translate(99,151)"/>
<path d="M0 0 C2.28529028 0.09170443 4.57325507 0.12011526 6.86038303 0.1174612 C7.56560883 0.11801586 8.27083462 0.11857051 8.99743089 0.11914197 C11.37840597 0.11978761 13.75930837 0.11324708 16.14027405 0.10679626 C17.85735458 0.10580085 19.57443543 0.10525064 21.29151624 0.10510927 C26.02394367 0.1034585 30.75634378 0.09557763 35.4887625 0.08674753 C40.5869523 0.07833904 45.68514521 0.07572189 50.78334045 0.07249451 C59.62141981 0.06618804 68.45948998 0.05644268 77.29756355 0.04459953 C90.07821788 0.02765253 102.85886991 0.01807879 115.63953298 0.0107208 C136.37663474 -0.00123319 157.11373289 -0.01618645 177.85083008 -0.03442383 C179.0927047 -0.03551395 180.33457932 -0.03660407 181.6140865 -0.03772723 C199.24784915 -0.05334588 216.88160743 -0.0719394 234.51536583 -0.0917251 C235.75754364 -0.09311842 236.99972145 -0.09451173 238.27954102 -0.09594727 C239.5202122 -0.0973408 240.76088338 -0.09873433 242.03915066 -0.10017008 C262.69813934 -0.12317482 283.35712517 -0.13850953 304.01612467 -0.14750665 C316.77074478 -0.15337213 329.52532612 -0.16578048 342.27993094 -0.18647944 C351.0126783 -0.20014927 359.74541203 -0.20667834 368.47816999 -0.20748956 C373.52340169 -0.20819618 378.56857545 -0.2122532 383.61379242 -0.2249527 C388.22567456 -0.23650098 392.83746613 -0.23897678 397.44935923 -0.23401051 C399.12426378 -0.23385829 400.79917263 -0.23714678 402.47406281 -0.24408758 C404.73797563 -0.25298998 407.00154496 -0.24976203 409.26545811 -0.24330235 C410.52678171 -0.24460386 411.78810531 -0.24590537 413.08765084 -0.24724633 C416 0 416 0 418 2 C418 5.3 418 8.6 418 12 C282.7 12 147.4 12 8 12 C7.505 11.01 7.505 11.01 7 10 C4.58354218 9.83312552 4.58354218 9.83312552 2 10 C1.34 10.66 0.68 11.32 0 12 C-1.32 12 -2.64 12 -4 12 C-4.495 11.01 -4.495 11.01 -5 10 C-7.41645782 9.83312552 -7.41645782 9.83312552 -10 10 C-10.66 10.66 -11.32 11.32 -12 12 C-14.125 11.625 -14.125 11.625 -16 11 C-16 10.34 -16 9.68 -16 9 C-18.31 9.33 -20.62 9.66 -23 10 C-23 10.66 -23 11.32 -23 12 C-33.89 12 -44.78 12 -56 12 C-56 1 -56 1 -55 0 C-53.39027935 -0.12801124 -51.7751132 -0.18835288 -50.16064453 -0.22119141 C-48.61366379 -0.25595078 -48.61366379 -0.25595078 -47.03543091 -0.29141235 C-45.3511348 -0.32118668 -45.3511348 -0.32118668 -43.6328125 -0.3515625 C-42.48714813 -0.37471527 -41.34148376 -0.39786804 -40.16110229 -0.42172241 C-37.73163423 -0.46944983 -35.30211591 -0.5146729 -32.87255859 -0.55761719 C-29.14792186 -0.62458785 -25.42362017 -0.70237452 -21.69921875 -0.78125 C-19.3437624 -0.82617554 -16.98829385 -0.87046736 -14.6328125 -0.9140625 C-13.51399689 -0.93796051 -12.39518127 -0.96185852 -11.24246216 -0.98648071 C-10.20483734 -1.0033493 -9.16721252 -1.0202179 -8.09814453 -1.03759766 C-7.18404816 -1.05456696 -6.26995178 -1.07153625 -5.32815552 -1.08901978 C-3 -1 -3 -1 0 0 Z " fill="#F0F1F1" transform="translate(94,368)"/>
<path d="M0 0 C76.56 0 153.12 0 232 0 C232 3.96 232 7.92 232 12 C229.36 12 226.72 12 224 12 C224 13.65 224 15.3 224 17 C152.72 17 81.44 17 8 17 C7.67 15.68 7.34 14.36 7 13 C4.69 12.67 2.38 12.34 0 12 C0 8.04 0 4.08 0 0 Z " fill="#B9B9B9" transform="translate(159,219)"/>
<path d="M0 0 C3 5.75 3 5.75 3 8 C2.39559082 8.07911621 1.79118164 8.15823242 1.16845703 8.23974609 C-5.87175385 9.37447679 -11.10060478 11.90649027 -17.125 15.625 C-20.05375 17.39875 -22.9825 19.1725 -26 21 C-9.17 21.495 -9.17 21.495 8 22 C8 89.65 8 157.3 8 227 C-108.82 227 -225.64 227 -346 227 C-346 159.35 -346 91.7 -346 22 C-299.47 22 -252.94 22 -205 22 C-205 22.33 -205 22.66 -205 23 C-251.2 23 -297.4 23 -345 23 C-345 89.99 -345 156.98 -345 226 C-228.84 226 -112.68 226 7 226 C7 163.96 7 101.92 7 38 C-30.62 38 -68.24 38 -107 38 C-107 36.68 -107 35.36 -107 34 C-85.22 34 -63.44 34 -41 34 C-41 32.02 -41 30.04 -41 28 C-41.86238281 28.32484375 -42.72476562 28.6496875 -43.61328125 28.984375 C-53.23497457 31.86977323 -64.58910838 30.13696387 -74 27 C-76.2825699 26.84854901 -78.56887706 26.75113021 -80.85546875 26.68359375 C-81.51710526 26.66281265 -82.17874176 26.64203156 -82.86042786 26.62062073 C-84.96934852 26.55535273 -87.07839135 26.49634656 -89.1875 26.4375 C-90.61915315 26.39429311 -92.05079404 26.35067812 -93.48242188 26.30664062 C-96.98815154 26.19969494 -100.49401786 26.09836359 -104 26 C-104.09200044 21.16422707 -103.76722161 17.52850538 -102 13 C-94.05637416 13.18954422 -88.02850737 15.37884886 -81 19 C-80.34 18.01 -79.68 17.02 -79 16 C-78.01 16 -77.02 16 -76 16 C-76 16.66 -76 17.32 -76 18 C-74.1746875 18.185625 -74.1746875 18.185625 -72.3125 18.375 C-69.83035703 18.62742132 -67.99551844 19.00197828 -65.69921875 20.015625 C-55.82664745 23.61604174 -43.3151583 21.01830358 -34 17 C-31.22082169 15.49476472 -28.56164492 13.91473739 -25.92578125 12.171875 C-24 11 -24 11 -22 11 C-22 10.34 -22 9.68 -22 9 C-19.58175375 7.79087687 -17.16317304 6.5825407 -14.7421875 5.37890625 C-13.05128231 4.52863626 -11.36725378 3.66432277 -9.6953125 2.77734375 C-6.12812487 0.89952234 -4.11078103 0 0 0 Z " fill="#ACACAC" transform="translate(444,128)"/>
<path d="M0 0 C46.2 0 92.4 0 140 0 C140 0.99 140 1.98 140 3 C109.31 3 78.62 3 47 3 C47 5.64 47 8.28 47 11 C76.7 11 106.4 11 137 11 C137 12.32 137 13.64 137 15 C91.79 15 46.58 15 0 15 C0 10.05 0 5.1 0 0 Z " fill="#CECECE" transform="translate(99,151)"/>
<path d="M0 0 C70.95 0.33 141.9 0.66 215 1 C215.33 2.65 215.66 4.3 216 6 C144.72 6 73.44 6 0 6 C0 4.02 0 2.04 0 0 Z " fill="#A6A6A6" transform="translate(167,230)"/>
<path d="M0 0 C3 5.75 3 5.75 3 8 C2.4021167 8.07621582 1.8042334 8.15243164 1.18823242 8.23095703 C-6.05349979 9.38564958 -11.46112641 12.0984214 -17.6875 15.875 C-18.58533203 16.40480469 -19.48316406 16.93460938 -20.40820312 17.48046875 C-23.64007249 19.38881066 -26.8687111 21.30048234 -30.06103516 23.27441406 C-33.43089311 25.31158518 -34.94025244 26 -39 26 C-39 26.66 -39 27.32 -39 28 C-50.38257447 31.57100376 -62.73164186 30.75611938 -74 27 C-76.2825699 26.84854901 -78.56887706 26.75113021 -80.85546875 26.68359375 C-81.51710526 26.66281265 -82.17874176 26.64203156 -82.86042786 26.62062073 C-84.96934852 26.55535273 -87.07839135 26.49634656 -89.1875 26.4375 C-90.61915315 26.39429311 -92.05079404 26.35067812 -93.48242188 26.30664062 C-96.98815154 26.19969494 -100.49401786 26.09836359 -104 26 C-104.09200044 21.16422707 -103.76722161 17.52850538 -102 13 C-94.05637416 13.18954422 -88.02850737 15.37884886 -81 19 C-80.34 18.01 -79.68 17.02 -79 16 C-78.01 16 -77.02 16 -76 16 C-76 16.66 -76 17.32 -76 18 C-74.783125 18.12375 -73.56625 18.2475 -72.3125 18.375 C-69.83035703 18.62742132 -67.99551844 19.00197828 -65.69921875 20.015625 C-55.82664745 23.61604174 -43.3151583 21.01830358 -34 17 C-31.22082169 15.49476472 -28.56164492 13.91473739 -25.92578125 12.171875 C-24 11 -24 11 -22 11 C-22 10.34 -22 9.68 -22 9 C-19.58175375 7.79087687 -17.16317304 6.5825407 -14.7421875 5.37890625 C-13.05128231 4.52863626 -11.36725378 3.66432277 -9.6953125 2.77734375 C-6.12812487 0.89952234 -4.11078103 0 0 0 Z " fill="#E3B68A" transform="translate(444,128)"/>
<path d="M0 0 C1.12591553 0.00523682 2.25183105 0.01047363 3.41186523 0.01586914 C4.62680664 0.0190918 5.84174805 0.02231445 7.09350586 0.02563477 C8.37290039 0.03401367 9.65229492 0.04239258 10.97045898 0.05102539 C12.2537207 0.05553711 13.53698242 0.06004883 14.85913086 0.06469727 C18.04209319 0.07652984 21.22503173 0.09446595 24.40795898 0.11352539 C24.40795898 5.06352539 24.40795898 10.01352539 24.40795898 15.11352539 C-13.21204102 15.11352539 -50.83204102 15.11352539 -89.59204102 15.11352539 C-89.59204102 13.79352539 -89.59204102 12.47352539 -89.59204102 11.11352539 C-88.38840157 11.10805695 -88.38840157 11.10805695 -87.16044617 11.10247803 C-79.5553605 11.0644289 -71.9507556 11.00738693 -64.34598064 10.92962265 C-60.43734375 10.89030746 -56.52892677 10.85804167 -52.62011719 10.8425293 C-48.83968698 10.82725629 -45.05986199 10.79262635 -41.27970314 10.74521637 C-39.84585681 10.73051117 -38.41192403 10.72249069 -36.97800255 10.72164154 C-29.08658691 10.71227843 -22.19905171 10.18608089 -14.84358215 7.0647583 C-12.7655742 6.18683983 -10.79084176 5.59623563 -8.59204102 5.11352539 C-8.59204102 4.45352539 -8.59204102 3.79352539 -8.59204102 3.11352539 C-7.78766602 2.80415039 -6.98329102 2.49477539 -6.15454102 2.17602539 C-1.01353968 0.04439069 -1.01353968 0.04439069 0 0 Z " fill="#CACACA" transform="translate(426.592041015625,150.886474609375)"/>
<path d="M0 0 C4.31413979 2.64731305 6.35267373 4.74311475 7.75 9.6875 C8.36715727 15.44408762 7.98566808 19.71843831 4.75 24.6875 C1.80821252 28.08894177 -0.21152161 29.4950121 -4.7734375 29.92578125 C-12.47025022 30.12610925 -12.47025022 30.12610925 -16.25 28 C-20.95285381 22.56232528 -21.78825811 18.65557633 -21.60546875 11.5703125 C-21.00142583 6.6715908 -18.79032607 4.04111988 -15.1875 0.875 C-10.25266458 -2.14957655 -5.28345756 -2.13370402 0 0 Z " fill="#535353" transform="translate(272.25,250.3125)"/>
<path d="M0 0 C1.01964844 -0.01675781 2.03929687 -0.03351563 3.08984375 -0.05078125 C7.35353049 0.47027377 10.00475387 2.10364727 12.8125 5.3125 C15.37650141 9.41490225 15.67390906 13.60548776 15.0625 18.3125 C13.47132687 22.94586425 11.48346368 26.88810056 7.0625 29.3125 C2.70563842 30.76478719 -1.38865105 30.94919736 -5.9375 30.3125 C-9.82511045 28.33306494 -12.36202282 25.3576441 -13.9375 21.3125 C-14.54692382 15.82768565 -15.24562032 9.47705704 -12.1875 4.625 C-8.36764011 0.69903289 -5.43631407 0.02056613 0 0 Z " fill="#66A56A" transform="translate(214.9375,287.6875)"/>
<path d="M0 0 C7.59155585 15.5449952 14.9517828 31.1703501 21.74169922 47.08447266 C22.63432096 49.15270875 23.55565351 51.20865968 24.49658203 53.25537109 C24.97337402 54.31965332 25.45016602 55.38393555 25.94140625 56.48046875 C26.38299072 57.44235107 26.8245752 58.4042334 27.27954102 59.39526367 C28 62 28 62 27.35522461 64.2980957 C26 66 26 66 22.375 66.75 C21.26125 66.8325 20.1475 66.915 19 67 C14.27527227 57.78227505 9.78868893 48.4911076 5.58837891 39.0222168 C3.4381027 34.17831502 1.24172969 29.36150134 -1.015625 24.56640625 C-1.52182373 23.48488281 -2.02802246 22.40335938 -2.54956055 21.2890625 C-3.54091734 19.17485056 -4.53952533 17.06402012 -5.54614258 14.95703125 C-6.22132935 13.51070312 -6.22132935 13.51070312 -6.91015625 12.03515625 C-7.31371338 11.1831665 -7.71727051 10.33117676 -8.13305664 9.45336914 C-9.06634482 6.81225032 -9.16614277 4.77970828 -9 2 C-5.83390538 0.12379578 -3.64167599 -0.09662822 0 0 Z " fill="#F6F6F5" transform="translate(428,69)"/>
<path d="M0 0 C2.64 0 5.28 0 8 0 C10.02570615 2.22225354 11.11444124 3.72414597 12.4375 6.3125 C12.77458984 6.90740234 13.11167969 7.50230469 13.45898438 8.11523438 C14.90044555 10.70062064 16.06285828 13.18857483 17 16 C17.33 10.72 17.66 5.44 18 0 C20.31 0 22.62 0 25 0 C25 9.9 25 19.8 25 30 C22.36 30 19.72 30 17 30 C13.7 23.73 10.4 17.46 7 11 C6.67 17.27 6.34 23.54 6 30 C4.02 30 2.04 30 0 30 C0 20.1 0 10.2 0 0 Z " fill="#6AA86D" transform="translate(234,288)"/>
<path d="M0 0 C8 0 8 0 9.98828125 1.7578125 C10.64376953 2.92957031 10.64376953 2.92957031 11.3125 4.125 C11.76238281 4.89070313 12.21226562 5.65640625 12.67578125 6.4453125 C14.14618936 9.28202903 15.57108008 12.14216016 17 15 C17.33 10.05 17.66 5.1 18 0 C20.31 0 22.62 0 25 0 C25 9.9 25 19.8 25 30 C22.36 30 19.72 30 17 30 C17 29.01 17 28.02 17 27 C16.34 27 15.68 27 15 27 C12.36 21.72 9.72 16.44 7 11 C6.67 16.94 6.34 22.88 6 29 C4.02 29 2.04 29 0 29 C0 19.43 0 9.86 0 0 Z " fill="#79AE7D" transform="translate(300,288)"/>
<path d="M0 0 C3.14737182 0.69941596 6.02588876 1.76078698 9 3 C9 3.66 9 4.32 9 5 C9.58007812 5.06058594 10.16015625 5.12117188 10.7578125 5.18359375 C11.53898437 5.26738281 12.32015625 5.35117187 13.125 5.4375 C13.89070313 5.51871094 14.65640625 5.59992188 15.4453125 5.68359375 C17.20235522 5.90120913 18.95246462 6.18084662 20.69185603 6.51110882 C24.33496115 7.04950194 27.80190493 7.13119227 31.48499107 7.1386652 C32.22129157 7.14150742 32.95759207 7.14434964 33.7162047 7.14727798 C36.18478708 7.15560353 38.6533224 7.15689151 41.12191772 7.15821838 C42.90901094 7.16278519 44.69610309 7.16778539 46.48319399 7.17318195 C51.39511545 7.18675893 56.30702999 7.19418016 61.21896529 7.20060861 C66.51544108 7.20861447 71.81190248 7.22231162 77.10836792 7.23532104 C86.28524703 7.25708114 95.4621276 7.27522735 104.63901901 7.29092598 C117.90729967 7.31362884 131.17556438 7.34177111 144.44383152 7.37124526 C165.97019705 7.41891605 187.4965691 7.46218163 209.02294922 7.50268555 C229.93506375 7.54204308 250.84717249 7.58346993 271.75927734 7.62768555 C273.69248597 7.63177196 273.69248597 7.63177196 275.66474931 7.63594092 C282.13024436 7.64962044 288.59573932 7.6633407 295.06123424 7.67708123 C348.70747741 7.79103795 402.35373313 7.8978491 456 8 C456 7.34 456 6.68 456 6 C457.98 6 459.96 6 462 6 C457.66746389 8.8883574 454.97681314 9.14643475 449.89292622 9.1398077 C448.77681385 9.14423484 448.77681385 9.14423484 447.63815376 9.14875141 C445.11889144 9.15748501 442.59967481 9.15902692 440.08039856 9.16062927 C438.26619996 9.1653574 436.45200242 9.17050792 434.63780612 9.17604691 C429.63179082 9.18998994 424.62578281 9.19754709 419.619753 9.2040199 C415.33074313 9.21038046 411.04174531 9.22045218 406.75274292 9.23058056 C392.61559776 9.2639497 378.47844525 9.28543787 364.34127358 9.30378041 C360.65975687 9.30857393 356.97824047 9.31355746 353.29672408 9.31858563 C330.43915144 9.34956295 307.58157629 9.37625162 284.72398853 9.39300442 C279.42609973 9.39695401 274.12821097 9.40095698 268.83032227 9.4050293 C266.85514316 9.40654184 266.85514316 9.40654184 264.84006145 9.40808494 C243.52365402 9.42508045 222.20738597 9.46617417 200.89103059 9.51705229 C179.00820505 9.56885269 157.12543927 9.59795021 135.24255294 9.6052013 C122.95542437 9.6098613 110.66848607 9.62458856 98.38141823 9.6649456 C87.91303717 9.69928686 77.44488069 9.7131684 66.97644655 9.70052146 C61.63781474 9.69470368 56.29965762 9.69849673 50.96109772 9.7286911 C46.06576034 9.75615163 41.17123266 9.75548112 36.27587648 9.73318065 C34.51254654 9.7299711 32.74916141 9.73674717 30.98592279 9.75497787 C19.37215888 9.86769724 10.46582223 8.12422608 0 3 C0 2.01 0 1.02 0 0 Z " fill="#ADC1CD" transform="translate(39,383)"/>
<path d="M0 0 C21.45 0 42.9 0 65 0 C64 5 64 5 62.27073669 6.7872467 C59.54066449 8.24532155 57.75638529 8.38621394 54.66821289 8.40405273 C53.07119286 8.42307899 53.07119286 8.42307899 51.44190979 8.44248962 C50.29705612 8.43955399 49.15220245 8.43661835 47.97265625 8.43359375 C46.79158798 8.4388356 45.61051971 8.44407745 44.3936615 8.44947815 C41.89631944 8.4559007 39.39894714 8.45455838 36.90161133 8.44604492 C33.08034372 8.43753972 29.26057285 8.46628833 25.43945312 8.49804688 C23.01302128 8.49965907 20.58658679 8.49908101 18.16015625 8.49609375 C17.01732681 8.50732773 15.87449738 8.51856171 14.69703674 8.53013611 C6.82765729 8.46100328 6.82765729 8.46100328 2.80249023 6.21899414 C1 4 1 4 0 0 Z " fill="#C2C2C2" transform="translate(242,369)"/>
<path d="M0 0 C6.27 0 12.54 0 19 0 C19 1.98 19 3.96 19 6 C15.04 6 11.08 6 7 6 C7 8.31 7 10.62 7 13 C10.63 13 14.26 13 18 13 C18 14.65 18 16.3 18 18 C14.37 18 10.74 18 7 18 C7 20.31 7 22.62 7 25 C11.29 25 15.58 25 20 25 C20 26.98 20 28.96 20 31 C13.4 31 6.8 31 0 31 C0 20.77 0 10.54 0 0 Z " fill="#595959" transform="translate(307,249)"/>
<path d="M0 0 C2.31 0 4.62 0 7 0 C7.84179395 2.72681111 8.67363069 5.45601443 9.5 8.1875 C9.73847656 8.95642578 9.97695312 9.72535156 10.22265625 10.51757812 C11.40213617 14.44356128 12.3326262 17.85048821 12 22 C12.66 22 13.32 22 14 22 C14.1546875 20.1128125 14.1546875 20.1128125 14.3125 18.1875 C14.98255203 12.0696336 16.23085828 5.53828344 19 0 C21.31 0 23.62 0 26 0 C24.75839663 6.17880265 23.11270127 12.06523007 21 18 C20.65453125 18.98226563 20.3090625 19.96453125 19.953125 20.9765625 C17.14307229 28.85692771 17.14307229 28.85692771 16 30 C13.66702567 30.04092937 11.33294775 30.04241723 9 30 C6.9106205 24.44714457 4.83164322 18.89131793 2.8125 13.3125 C2.40354492 12.21325195 2.40354492 12.21325195 1.98632812 11.09179688 C0.61099078 7.26911738 -0.366506 4.12930097 0 0 Z " fill="#555555" transform="translate(223,250)"/>
<path d="M0 0 C5.94 0 11.88 0 18 0 C18 1.65 18 3.3 18 5 C14.37 5 10.74 5 7 5 C7 6.98 7 8.96 7 11 C10.3 11 13.6 11 17 11 C17 12.98 17 14.96 17 17 C13.7 17 10.4 17 7 17 C7 19.31 7 21.62 7 24 C10.63 24 14.26 24 18 24 C18 25.65 18 27.3 18 29 C12.06 29 6.12 29 0 29 C0 19.43 0 9.86 0 0 Z " fill="#62A265" transform="translate(331,288)"/>
<path d="M0 0 C0 67.32 0 134.64 0 204 C-0.33 204 -0.66 204 -1 204 C-1 137.01 -1 70.02 -1 1 C-16.91987591 -0.75607701 -16.91987591 -0.75607701 -30 4 C-31.32 4 -32.64 4 -34 4 C-34 4.66 -34 5.32 -34 6 C-39.04140164 8.81532819 -43.22621075 10.5188509 -49 11 C-49 9.35 -49 7.7 -49 6 C-48.34 6 -47.68 6 -47 6 C-47 5.34 -47 4.68 -47 4 C-45.30729167 3.28385417 -43.61458333 2.56770833 -41.921875 1.8515625 C-35.51654676 -0.98657074 -35.51654676 -0.98657074 0 0 Z " fill="#B2B2B1" transform="translate(452,150)"/>
<path d="M0 0 C1.24100464 -0.00137466 2.48200928 -0.00274933 3.76062012 -0.00416565 C5.13816858 -0.00062651 6.51571679 0.0030083 7.89326477 0.00672913 C9.3419647 0.00701116 10.79066478 0.00685295 12.23936462 0.00628662 C16.17502435 0.00599928 20.11065371 0.01188588 24.04630637 0.01886058 C28.15828024 0.02510454 32.27025478 0.02569874 36.38223267 0.02688599 C44.17011069 0.02999622 51.95797471 0.03820547 59.74584657 0.04823548 C68.61152546 0.05940616 77.47720501 0.06490948 86.34288919 0.06993091 C104.58145007 0.08038832 122.81999789 0.09798183 141.05854797 0.12025452 C140.72854797 1.44025452 140.39854797 2.76025452 140.05854797 4.12025452 C140.05854797 3.46025452 140.05854797 2.80025452 140.05854797 2.12025452 C121.09149588 2.18075476 102.1245858 2.25823028 83.15768814 2.35596943 C74.35121608 2.40095374 65.5447847 2.44036228 56.73823547 2.46669006 C49.06331802 2.48964885 41.38852903 2.52302302 33.71371341 2.56895608 C29.64914712 2.59291702 25.58470827 2.61162692 21.52007294 2.61786842 C17.69509616 2.62390638 13.87044558 2.64385905 10.04558945 2.67453003 C8.64114266 2.68333103 7.23665328 2.68702857 5.83218002 2.68526268 C3.91551282 2.68361354 1.99885963 2.70205311 0.08229065 2.7215271 C-1.5271599 2.72844055 -1.5271599 2.72844055 -3.1691246 2.73549366 C-6.29627711 3.16949935 -7.56791308 4.11789448 -9.94145203 6.12025452 C-10.60145203 6.12025452 -11.26145203 6.12025452 -11.94145203 6.12025452 C-12.20957703 6.75962952 -12.47770203 7.39900452 -12.75395203 8.05775452 C-13.94145203 10.12025452 -13.94145203 10.12025452 -16.94145203 11.12025452 C-15.5032439 6.08652607 -13.03899687 4.13069563 -8.94145203 1.12025452 C-5.71205945 0.04379032 -3.39641495 -0.00289549 0 0 Z " fill="#526C7C" transform="translate(100.94145202636719,134.87974548339844)"/>
<path d="M0 0 C-0.66 0.66 -1.32 1.32 -2 2 C13.84 2.33 29.68 2.66 46 3 C46 3.33 46 3.66 46 4 C8.38 4 -29.24 4 -68 4 C-68 2.68 -68 1.36 -68 0 C-59.42930537 -0.15370219 -50.85854089 -0.30188376 -42.28763008 -0.4429636 C-38.30807382 -0.508643 -34.32856932 -0.5762437 -30.34912109 -0.64819336 C-26.51073555 -0.71752256 -22.67229617 -0.78185965 -18.83376694 -0.84269524 C-17.36727724 -0.86682253 -15.90081631 -0.89276686 -14.43439102 -0.92053413 C-12.38485463 -0.95903632 -10.3353123 -0.99115177 -8.28564453 -1.02172852 C-7.11760284 -1.04171402 -5.94956116 -1.06169952 -4.74612427 -1.08229065 C-2 -1 -2 -1 0 0 Z " fill="#D2D2D2" transform="translate(405,162)"/>
<path d="M0 0 C1.16152902 3.48458707 1.13270324 6.26690508 1.125 9.9375 C1.12886719 11.77634766 1.12886719 11.77634766 1.1328125 13.65234375 C1.02667535 16.32762431 0.79917654 18.46927428 0 21 C-8.03095559 21.78734859 -8.03095559 21.78734859 -12 18.5625 C-12.66 17.716875 -13.32 16.87125 -14 16 C-14.33 15.67 -14.66 15.34 -15 15 C-15.36090226 7.54135338 -15.36090226 7.54135338 -13 4 C-12.34 4 -11.68 4 -11 4 C-11 3.34 -11 2.68 -11 2 C-7.36576791 -0.32590854 -4.22911669 -0.16265833 0 0 Z " fill="#FBE4CD" transform="translate(299,114)"/>
<path d="M0 0 C7.26 0 14.52 0 22 0 C22 1.65 22 3.3 22 5 C19.36 5 16.72 5 14 5 C14 13.25 14 21.5 14 30 C12.02 30 10.04 30 8 30 C8 21.75 8 13.5 8 5 C5.36 5 2.72 5 0 5 C0 3.35 0 1.7 0 0 Z " fill="#505050" transform="translate(281,250)"/>
<path d="M0 0 C3.4375 0.5 3.4375 0.5 5.3125 1.75 C7.85750701 5.70889979 7.91484907 9.88562563 7.4375 14.5 C6.08073747 17.33520781 4.94337476 18.36734063 2.4375 20.5 C-1.1875 20.75 -1.1875 20.75 -4.5625 19.5 C-7.97834655 14.98226747 -8.16657314 10.9366583 -7.5625 5.5 C-5.46736386 1.47733861 -4.52651457 0.63530029 0 0 Z " fill="#EAEAEA" transform="translate(265.5625,254.5)"/>
<path d="M0 0 C3.4375 1.125 3.4375 1.125 5.375 3.125 C7.21079392 8.30841814 7.14019007 12.97301167 5.4375 18.1875 C3.18048874 20.37397966 2.47426812 20.53229052 -0.5625 20.75 C-3.55593152 20.52989474 -4.30774921 20.36382886 -6.5625 18.25 C-8.37930519 12.57248379 -8.65227365 7.34813826 -6 1.9375 C-3.5625 0.125 -3.5625 0.125 0 0 Z " fill="#F0F2EF" transform="translate(215.5625,291.875)"/>
<path d="M0 0 C0.33 0 0.66 0 1 0 C1 67.65 1 135.3 1 205 C1.66 205 2.32 205 3 205 C3.103125 206.051875 3.20625 207.10375 3.3125 208.1875 C3.98328205 211.90729135 4.89455759 213.92956315 7 217 C7.33 217.66 7.66 218.32 8 219 C4.15521125 217.54163185 2.8177085 215.63541701 1 212 C-0.22130487 207.89537418 -0.13576774 203.87070993 -0.12025452 199.62249756 C-0.12110894 198.76970097 -0.12196337 197.91690438 -0.12284368 197.03826547 C-0.12449286 194.17620519 -0.11898626 191.31420333 -0.11352539 188.45214844 C-0.11324337 186.40232342 -0.11340154 184.3524983 -0.1139679 182.30267334 C-0.1142553 176.73283109 -0.10836777 171.16301029 -0.10139394 165.59317303 C-0.09515091 159.77421362 -0.09455585 153.95525374 -0.09336853 148.1362915 C-0.09025802 137.11497094 -0.0820484 126.09366027 -0.07201904 115.07234406 C-0.06084922 102.52593753 -0.05534526 89.97953052 -0.05032361 77.43312025 C-0.03986557 51.62207468 -0.02227153 25.81103789 0 0 Z " fill="#4A6779" transform="translate(83,148)"/>
<path d="M0 0 C1.98 0 3.96 0 6 0 C6 7.92 6 15.84 6 24 C9.96 24 13.92 24 18 24 C18 25.65 18 27.3 18 29 C12.06 29 6.12 29 0 29 C0 19.43 0 9.86 0 0 Z " fill="#5DA161" transform="translate(265,288)"/>
<path d="M0 0 C19.47 0 38.94 0 59 0 C59 0.33 59 0.66 59 1 C52.89097705 1.76861456 46.96147282 2.13812351 40.80859375 2.09765625 C39.97787857 2.0962413 39.14716339 2.09482635 38.29127502 2.09336853 C35.67331125 2.0878317 33.05543733 2.07529162 30.4375 2.0625 C28.64778771 2.05747681 26.85807405 2.05291535 25.06835938 2.04882812 C20.71217825 2.0387397 16.3561881 2.01915276 12 2 C12 7.94 12 13.88 12 20 C11.34 20.33 10.68 20.66 10 21 C9.67 15.39 9.34 9.78 9 4 C5.37 4.66 1.74 5.32 -2 6 C-2 6.66 -2 7.32 -2 8 C-2.66 8 -3.32 8 -4 8 C-4.66 10.64 -5.32 13.28 -6 16 C-6.33 14.68 -6.66 13.36 -7 12 C-7.66 12 -8.32 12 -9 12 C-7.65205171 5.50534008 -7.65205171 5.50534008 -4.5 3.0625 C-2 2 -2 2 0 2 C0 1.34 0 0.68 0 0 Z " fill="#F2CAA5" transform="translate(290,110)"/>
<path d="M0 0 C0.66 0 1.32 0 2 0 C2.4125 1.2375 2.825 2.475 3.25 3.75 C4.61029086 7.33104478 5.85618463 9.6645943 9 12 C12.13350717 13.26784124 12.13350717 13.26784124 15 14 C15 14.66 15 15.32 15 16 C15.69440186 15.83773926 16.38880371 15.67547852 17.10424805 15.50830078 C20.23729164 14.95834742 23.15156606 14.87046079 26.33203125 14.8671875 C27.54310547 14.86589844 28.75417969 14.86460937 30.00195312 14.86328125 C31.25943359 14.86714844 32.51691406 14.87101563 33.8125 14.875 C35.68131836 14.86919922 35.68131836 14.86919922 37.58789062 14.86328125 C43.81880571 14.8698923 49.84224696 15.02650328 56 16 C56.33 15.34 56.66 14.68 57 14 C57 14.66 57 15.32 57 16 C57.886875 16.144375 58.77375 16.28875 59.6875 16.4375 C61.67344991 16.77473678 63.65533464 17.14042885 65.625 17.5625 C68.25314214 18.12077495 68.25314214 18.12077495 72 18 C72.99 18 73.98 18 75 18 C74.505 19.485 74.505 19.485 74 21 C71.93728361 20.6889315 69.87483534 20.37608484 67.8125 20.0625 C66.66394531 19.88847656 65.51539063 19.71445313 64.33203125 19.53515625 C62.41062448 19.22655985 60.49239966 18.8894687 58.59092712 18.47541809 C56.06890841 18.01264424 53.77356466 17.86921098 51.21313477 17.8581543 C50.29190323 17.85111984 49.37067169 17.84408539 48.42152405 17.83683777 C47.43808517 17.83267349 46.4546463 17.82850922 45.44140625 17.82421875 C43.34308885 17.80102761 41.24478151 17.77691057 39.14648438 17.75195312 C35.85043514 17.71681296 32.55475894 17.68746854 29.25854492 17.67407227 C26.06904507 17.65858579 22.88062118 17.61838279 19.69140625 17.57421875 C18.70999161 17.57612717 17.72857697 17.57803558 16.71742249 17.58000183 C10.83372826 17.47503716 7.50591523 16.87254463 3 13 C-0.53295958 8.7604485 -0.26876031 5.28561944 0 0 Z " fill="#E0BD99" transform="translate(281,122)"/>
<path d="M0 0 C1.98 0 3.96 0 6 0 C6 9.9 6 19.8 6 30 C4.02 30 2.04 30 0 30 C0 20.1 0 10.2 0 0 Z " fill="#6EA671" transform="translate(288,288)"/>
<path d="M0 0 C5.94 0 11.88 0 18 0 C18 0.33 18 0.66 18 1 C12.39 1 6.78 1 1 1 C1 10.57 1 20.14 1 30 C6.94 30 12.88 30 19 30 C19 28.35 19 26.7 19 25 C15.37 25 11.74 25 8 25 C8 22.69 8 20.38 8 18 C11.3 18 14.6 18 18 18 C18 16.02 18 14.04 18 12 C20.2086355 15.31295325 20 16.22453303 20 20 C20.66 20.66 21.32 21.32 22 22 C21.67 22.33 21.34 22.66 21 23 C20.67 25.64 20.34 28.28 20 31 C13.4 31 6.8 31 0 31 C0 20.77 0 10.54 0 0 Z " fill="#D3E7D5" transform="translate(330,287)"/>
<path d="M0 0 C-0.165 0.94875 -0.33 1.8975 -0.5 2.875 C-1.4536049 9.59110305 -1.39924103 16.35360511 0 23 C3.63 23 7.26 23 11 23 C11.33 23.99 11.66 24.98 12 26 C2.67872711 27.85414108 2.67872711 27.85414108 -1.21875 25.87109375 C-5.0970952 22.59257736 -7.72565076 19.41427334 -8.3125 14.25 C-7.82231206 9.15204541 -6.67588656 4.577305 -2.875 1 C-1 0 -1 0 0 0 Z " fill="#5BA35F" transform="translate(210,290)"/>
<path d="M0 0 C4.45741088 0.50461255 8.79424288 1.15421664 13.1875 2.0625 C21.46767102 3.6078244 29.72867823 3.54546371 38 2 C38 3.98 38 5.96 38 8 C29.09 8 20.18 8 11 8 C11 7.34 11 6.68 11 6 C8.36 5.01 5.72 4.02 3 3 C3 2.34 3 1.68 3 1 C2.01 0.67 1.02 0.34 0 0 Z " fill="#EFEAE5" transform="translate(365,154)"/>
<path d="M0 0 C1.98 0 3.96 0 6 0 C6.33 1.98 6.66 3.96 7 6 C7.99 6.33 8.98 6.66 10 7 C9.67 8.32 9.34 9.64 9 11 C8.01 10.67 7.02 10.34 6 10 C6 9.01 6 8.02 6 7 C5.34 7 4.68 7 4 7 C4 13.6 4 20.2 4 27 C2.68 27 1.36 27 0 27 C0 18.09 0 9.18 0 0 Z " fill="#59A25D" transform="translate(301,289)"/>
<path d="M0 0 C0.33 0 0.66 0 1 0 C1 9.57 1 19.14 1 29 C6.94 29 12.88 29 19 29 C19 27.35 19 25.7 19 24 C15.04 24 11.08 24 7 24 C7 16.08 7 8.16 7 0 C7.33 0 7.66 0 8 0 C8 7.59 8 15.18 8 23 C12.29 23 16.58 23 21 23 C21.33 23.99 21.66 24.98 22 26 C22.33 17.42 22.66 8.84 23 0 C23.33 0 23.66 0 24 0 C24 9.9 24 19.8 24 30 C16.08 30 8.16 30 0 30 C0 20.1 0 10.2 0 0 Z " fill="#B0D1B2" transform="translate(264,288)"/>
<path d="M0 0 C0.66 0.33 1.32 0.66 2 1 C-2.19407577 4.30946922 -5.93736745 7.15904271 -11 9 C-11.33 9.66 -11.66 10.32 -12 11 C-15.05446842 12.24955526 -17.43548846 13.01282981 -20.75 12.9375 C-21.4925 12.958125 -22.235 12.97875 -23 13 C-23.99 14.485 -23.99 14.485 -25 16 C-25.66 16 -26.32 16 -27 16 C-27 16.99 -27 17.98 -27 19 C-30.0703125 19.51171875 -33.140625 20.0234375 -36.2109375 20.53515625 C-37.25507813 20.70917969 -38.29921875 20.88320313 -39.375 21.0625 C-42.1875 21.53125 -42.1875 21.53125 -45 22 C-43.72858992 19.45717984 -42.83974784 19.3393964 -40.23828125 18.30078125 C-39.45582031 17.98214111 -38.67335938 17.66350098 -37.8671875 17.33520508 C-37.02414062 16.9977124 -36.18109375 16.66021973 -35.3125 16.3125 C-28.09240978 13.3539679 -21.12225666 10.16189161 -14.171875 6.61328125 C-11.0520517 5.02647457 -7.91746591 3.48936545 -4.75 2 C-3.87859375 1.5875 -3.0071875 1.175 -2.109375 0.75 C-1.41328125 0.5025 -0.7171875 0.255 0 0 Z " fill="#42606B" transform="translate(498,26)"/>
<path d="M0 0 C1.65 0 3.3 0 5 0 C5 9.24 5 18.48 5 28 C2.69 28 0.38 28 -2 28 C-2 25 -2 25 0 23 C0.27787668 20.57402049 0.27787668 20.57402049 0.1953125 17.7734375 C0.18886719 16.7421875 0.18242187 15.7109375 0.17578125 14.6484375 C0.15902344 13.56820313 0.14226562 12.48796875 0.125 11.375 C0.11597656 10.28703125 0.10695313 9.1990625 0.09765625 8.078125 C0.07403409 5.38519848 0.04109556 2.69270745 0 0 Z " fill="#5CA060" transform="translate(319,289)"/>
<path d="M0 0 C10.88730088 0.61307131 10.88730088 0.61307131 15 4 C16.32 5.65 17.64 7.3 19 9 C12.4 9 5.8 9 -1 9 C-0.67 6.03 -0.34 3.06 0 0 Z " fill="#4F4D4A" transform="translate(342,141)"/>
<path d="M0 0 C0.33 0 0.66 0 1 0 C1 9.9 1 19.8 1 30 C0.34 29.67 -0.32 29.34 -1 29 C-1.59355614 26.35139573 -1.74209269 23.70802678 -2 21 C-2.99 23.31 -3.98 25.62 -5 28 C-5.66 28 -6.32 28 -7 28 C-7 28.66 -7 29.32 -7 30 C-10.67387495 30.85298376 -14.0447393 31.10789471 -17.8125 31.0625 C-19.27623047 31.04896484 -19.27623047 31.04896484 -20.76953125 31.03515625 C-21.87361328 31.01775391 -21.87361328 31.01775391 -23 31 C-23 30.67 -23 30.34 -23 30 C-22.19175781 29.91363281 -21.38351563 29.82726562 -20.55078125 29.73828125 C-13.77105654 28.89826489 -13.77105654 28.89826489 -7.875 25.6875 C-4.33956305 20.62004038 -3.19298018 16.19884786 -4 10 C-4.81233703 7.51133742 -5.82368298 5.35263404 -7 3 C-5.68 3 -4.36 3 -3 3 C-2.34 4.98 -1.68 6.96 -1 9 C-0.67 6.03 -0.34 3.06 0 0 Z " fill="#E4F3E5" transform="translate(233,288)"/>
<path d="M0 0 C8.25 0 16.5 0 25 0 C24.67 1.65 24.34 3.3 24 5 C15.75 5 7.5 5 -1 5 C-0.67 3.35 -0.34 1.7 0 0 Z " fill="#AEB8B6" transform="translate(202,200)"/>
<path d="M0 0 C1.32 0 2.64 0 4 0 C4 8.58 4 17.16 4 26 C-1 27 -1 27 -3 26 C-2.67854004 25.27981689 -2.35708008 24.55963379 -2.02587891 23.81762695 C-1.00361571 21.00993074 -0.69520443 18.88638701 -0.5859375 15.91796875 C-0.54726562 14.98662109 -0.50859375 14.05527344 -0.46875 13.09570312 C-0.4378125 12.13599609 -0.406875 11.17628906 -0.375 10.1875 C-0.33632812 9.20845703 -0.29765625 8.22941406 -0.2578125 7.22070312 C-0.16389184 4.81398626 -0.07821799 2.40726988 0 0 Z " fill="#5AA25D" transform="translate(253,289)"/>
<path d="M0 0 C8 0 8 0 10.0234375 1.7578125 C10.46945312 2.53898437 10.91546875 3.32015625 11.375 4.125 C11.849375 4.94097656 12.32375 5.75695312 12.8125 6.59765625 C14.16756524 9.33898889 15.23991458 12.03566688 16 15 C15.34 15 14.68 15 14 15 C14 14.01 14 13.02 14 12 C13.01 12 12.02 12 11 12 C10.87625 11.13375 10.87625 11.13375 10.75 10.25 C9.7973369 7.39201069 8.13946926 6.07045412 6 4 C6 3.34 6 2.68 6 2 C4.35 1.67 2.7 1.34 1 1 C1 9.91 1 18.82 1 28 C2.32 28 3.64 28 5 28 C5 21.4 5 14.8 5 8 C5.66 8.33 6.32 8.66 7 9 C6.67 15.6 6.34 22.2 6 29 C4.02 29 2.04 29 0 29 C0 19.43 0 9.86 0 0 Z M8 11 C8.99 11.33 9.98 11.66 11 12 C10.34 12.66 9.68 13.32 9 14 C8.67 13.01 8.34 12.02 8 11 Z " fill="#6AA36D" transform="translate(300,288)"/>
<path d="M0 0 C1.85772162 0.08984301 3.71247985 0.24611861 5.5625 0.4375 C7.08037109 0.59025391 7.08037109 0.59025391 8.62890625 0.74609375 C9.80259766 0.87177734 9.80259766 0.87177734 11 1 C10.01 2.485 10.01 2.485 9 4 C7.68 4 6.36 4 5 4 C5 4.66 5 5.32 5 6 C-0.04140164 8.81532819 -4.22621075 10.5188509 -10 11 C-10 9.35 -10 7.7 -10 6 C-9.34 6 -8.68 6 -8 6 C-8 5.34 -8 4.68 -8 4 C-6.865625 3.525625 -5.73125 3.05125 -4.5625 2.5625 C-1.24259834 1.36377917 -1.24259834 1.36377917 0 0 Z " fill="#BDBEBD" transform="translate(413,150)"/>
<path d="M0 0 C-4.59338174 1.5348617 -8.99059085 0.59474554 -13.7109375 0.05859375 C-17.27612264 -0.00491905 -19.69930404 0.71272858 -23 2 C-24.32911682 2.34976758 -25.66082739 2.69096017 -27 3 C-27.12375 3.639375 -27.2475 4.27875 -27.375 4.9375 C-27.684375 5.9584375 -27.684375 5.9584375 -28 7 C-28.99 7.495 -28.99 7.495 -30 8 C-30 8.66 -30 9.32 -30 10 C-31.65 10.33 -33.3 10.66 -35 11 C-34.01 12.485 -34.01 12.485 -33 14 C-34.258125 13.87625 -35.51625 13.7525 -36.8125 13.625 C-37.52019531 13.55539063 -38.22789062 13.48578125 -38.95703125 13.4140625 C-41 13 -41 13 -44 11 C-43.19175781 10.61328125 -42.38351562 10.2265625 -41.55078125 9.828125 C-40.48214844 9.30734375 -39.41351563 8.7865625 -38.3125 8.25 C-37.25675781 7.73953125 -36.20101563 7.2290625 -35.11328125 6.703125 C-32.09328901 5.05103389 -29.65540078 3.17422078 -27 1 C-18.35218531 -3.24804932 -9.02348445 -3.28126707 0 0 Z " fill="#D1BEA7" transform="translate(355,70)"/>
<path d="M0 0 C0.33 0 0.66 0 1 0 C1 9.57 1 19.14 1 29 C2.98 29 4.96 29 7 29 C7 29.33 7 29.66 7 30 C3.37 30 -0.26 30 -4 30 C-4.1953125 22.3828125 -4.1953125 22.3828125 -4 20 C-3.34 19.34 -2.68 18.68 -2 18 C-1.54025497 16.07098859 -1.54025497 16.07098859 -1.3671875 13.8671875 C-1.28339844 13.06152344 -1.19960938 12.25585938 -1.11328125 11.42578125 C-0.99533203 10.16314453 -0.99533203 10.16314453 -0.875 8.875 C-0.74544922 7.60076172 -0.74544922 7.60076172 -0.61328125 6.30078125 C-0.40097443 4.20130273 -0.19946397 2.10073758 0 0 Z M-11 30 C-8.69 30 -6.38 30 -4 30 C-4 30.33 -4 30.66 -4 31 C-6.31 31 -8.62 31 -11 31 C-11 30.67 -11 30.34 -11 30 Z " fill="#D8E9D9" transform="translate(299,288)"/>
<path d="M0 0 C0.80179687 0.00451172 1.60359375 0.00902344 2.4296875 0.01367188 C4.41149006 0.02546832 6.39325433 0.04340395 8.375 0.0625 C8.705 1.7125 9.035 3.3625 9.375 5.0625 C2.775 5.0625 -3.825 5.0625 -10.625 5.0625 C-10.625 3.7425 -10.625 2.4225 -10.625 1.0625 C-7.31505287 -0.59247356 -3.63377 -0.03834335 0 0 Z " fill="#ACB6B2" transform="translate(338.625,199.9375)"/>
<path d="M0 0 C1.32 0 2.64 0 4 0 C2.76583013 6.82423338 1.1084005 13.39367844 -1 20 C-2.32 20 -3.64 20 -5 20 C-4.01332711 14.97216688 -3.00888493 9.94803703 -1.9375 4.9375 C-1.78152344 4.20402344 -1.62554687 3.47054687 -1.46484375 2.71484375 C-1 1 -1 1 0 0 Z " fill="#E1E1E1" transform="translate(337,166)"/>
<path d="M0 0 C0.66 0.33 1.32 0.66 2 1 C1.67 1.99 1.34 2.98 1 4 C0.34 4 -0.32 4 -1 4 C-3.55383163 12.9876194 -3.55383163 12.9876194 -2 22 C-0.11683841 23.10836423 -0.11683841 23.10836423 2 24 C2.42152344 24.51046875 2.84304687 25.0209375 3.27734375 25.546875 C5.73794764 27.62248645 7.52408068 27.29915009 10.6875 27.1875 C12.17830078 27.14689453 12.17830078 27.14689453 13.69921875 27.10546875 C14.45847656 27.07066406 15.21773437 27.03585937 16 27 C11.75091594 29.83272271 7.98854595 29.76806539 3 29 C-0.88588755 27.01352795 -3.42338649 24.0480617 -5 20 C-6.32127383 8.10853553 -6.32127383 8.10853553 -3.0625 3.25 C-1 1 -1 1 0 0 Z " fill="#71A573" transform="translate(206,289)"/>
<path d="M0 0 C-0.6496875 0.5878125 -0.6496875 0.5878125 -1.3125 1.1875 C-3.13582629 3.01796997 -3.13582629 3.01796997 -4.5625 5.625 C-6 8 -6 8 -8 9 C-8 8.34 -8 7.68 -8 7 C-9.65 7 -11.3 7 -13 7 C-12.65772428 9.97065509 -12.65772428 9.97065509 -12 13 C-11.34 13.33 -10.68 13.66 -10 14 C-9.375 16.0625 -9.375 16.0625 -9 18 C-9.66 18 -10.32 18 -11 18 C-11.33 16.68 -11.66 15.36 -12 14 C-12.66 14 -13.32 14 -14 14 C-16.0639028 9.6293823 -16.0639028 9.6293823 -15.79296875 6.9609375 C-14.75547314 4.39530795 -13.74464275 3.99102439 -11.25 2.875 C-10.53070313 2.54886719 -9.81140625 2.22273438 -9.0703125 1.88671875 C-8.38710938 1.59410156 -7.70390625 1.30148438 -7 1 C-5.576875 0.3503125 -5.576875 0.3503125 -4.125 -0.3125 C-2 -1 -2 -1 0 0 Z " fill="#465964" transform="translate(440,55)"/>
<path d="M0 0 C0.99 0 1.98 0 3 0 C3 8.58 3 17.16 3 26 C2.01 26.33 1.02 26.66 0 27 C0 18.09 0 9.18 0 0 Z " fill="#56A35B" transform="translate(289,289)"/>
<path d="M0 0 C1.98 0 3.96 0 6 0 C6 9.9 6 19.8 6 30 C3.36 30 0.72 30 -2 30 C-2.33 29.01 -2.66 28.02 -3 27 C-1.02 27 0.96 27 3 27 C3.33 18.42 3.66 9.84 4 1 C2.68 0.67 1.36 0.34 0 0 Z " fill="#7DAC7F" transform="translate(253,288)"/>
<path d="M0 0 C2.64 0 5.28 0 8 0 C8.99455909 2.98367726 9.19559632 5.2004192 9.31640625 8.32421875 C9.37924805 9.86625977 9.37924805 9.86625977 9.44335938 11.43945312 C9.48267578 12.51130859 9.52199219 13.58316406 9.5625 14.6875 C9.60568359 15.77095703 9.64886719 16.85441406 9.69335938 17.97070312 C9.79946838 20.64700791 9.90152361 23.32340526 10 26 C10.66 26 11.32 26 12 26 C12 27.65 12 29.3 12 31 C10.35 31 8.7 31 7 31 C7 21.1 7 11.2 7 1 C4.69 1 2.38 1 0 1 C0 0.67 0 0.34 0 0 Z " fill="#E7F4E7" transform="translate(252,287)"/>
<path d="M0 0 C0.33 1.32 0.66 2.64 1 4 C8.26 4 15.52 4 23 4 C23.33 4.99 23.66 5.98 24 7 C16.08 7 8.16 7 0 7 C0 4.69 0 2.38 0 0 Z " fill="#CBCACB" transform="translate(340,147)"/>
<path d="M0 0 C3.81973923 0.42441547 6.60636834 1.30318417 10 3 C11.98573786 3.48042045 13.971684 3.96013202 15.9609375 4.42578125 C18.84588088 5.23820783 21.38251578 6.56038368 24 8 C19.45803961 9.39942509 16.019818 8.39065692 11.5 7.3125 C10.74074219 7.15072266 9.98148437 6.98894531 9.19921875 6.82226562 C4.70696426 5.77197495 1.97386538 4.75687781 -1 1 C-0.67 0.67 -0.34 0.34 0 0 Z " fill="#E4BE97" transform="translate(320,80)"/>
<path d="M0 0 C1 1 1 1 1.0625 4.0625 C1.041875 5.031875 1.02125 6.00125 1 7 C-1.31 7.33 -3.62 7.66 -6 8 C-8 5 -8 5 -7.75 2.375 C-7.5025 1.59125 -7.255 0.8075 -7 0 C-4.31633121 -1.3418344 -2.84719317 -0.73004953 0 0 Z " fill="#BBBDBE" transform="translate(468,124)"/>
<path d="M0 0 C2.5 0.25 2.5 0.25 4.5 2.25 C3.93181818 7.81818182 3.93181818 7.81818182 2.5 9.25 C0.0625 9.4375 0.0625 9.4375 -2.5 9.25 C-4.5 7.25 -4.5 7.25 -4.75 4.75 C-4.40058445 1.25584452 -3.49415548 0.34941555 0 0 Z " fill="#C5C5C5" transform="translate(475.5,118.75)"/>
<path d="M0 0 C1.65 0 3.3 0 5 0 C4.69147815 1.958964 4.3780582 3.91715713 4.0625 5.875 C3.88847656 6.96554688 3.71445312 8.05609375 3.53515625 9.1796875 C3 12 3 12 2 14 C0.35 14.33 -1.3 14.66 -3 15 C-2.01 10.05 -1.02 5.1 0 0 Z " fill="#BFC0BF" transform="translate(331,186)"/>
<path d="M0 0 C0.33 0.99 0.66 1.98 1 3 C1.66 3.66 2.32 4.32 3 5 C0.56495491 6.0063655 -1.87270864 7.00526413 -4.3125 8 C-5.00279297 8.28617188 -5.69308594 8.57234375 -6.40429688 8.8671875 C-9.41545674 10.08910744 -11.71886984 11 -15 11 C-14.67 10.34 -14.34 9.68 -14 9 C-12.68 9 -11.36 9 -10 9 C-10 8.34 -10 7.68 -10 7 C-9.34 6.67 -8.68 6.34 -8 6 C-7.34786708 3.97536745 -7.34786708 3.97536745 -7 2 C-4.69 1.34 -2.38 0.68 0 0 Z " fill="#3F464A" transform="translate(478,127)"/>
<path d="M0 0 C0.33 0 0.66 0 1 0 C1.16873478 1.43725871 1.33490737 2.87481838 1.5 4.3125 C1.5928125 5.11300781 1.685625 5.91351563 1.78125 6.73828125 C2 9 2 9 2 12 C2.66 12 3.32 12 4 12 C4.33 10.68 4.66 9.36 5 8 C5.33 8.99 5.66 9.98 6 11 C4.0625 13.6875 4.0625 13.6875 2 16 C1.01 15.67 0.02 15.34 -1 15 C-1 14.34 -1 13.68 -1 13 C-4.63 13 -8.26 13 -12 13 C-12.33 11.68 -12.66 10.36 -13 9 C-12.01 9.495 -12.01 9.495 -11 10 C-11 10.66 -11 11.32 -11 12 C-5.71442592 11.97695894 -5.71442592 11.97695894 -1.5625 9.375 C-0.82636298 6.26686593 -0.36597619 3.17179364 0 0 Z " fill="#75AC78" transform="translate(222,300)"/>
<path d="M0 0 C1.4540625 0.0309375 1.4540625 0.0309375 2.9375 0.0625 C2.97991723 2.39544775 2.97842937 4.72952567 2.9375 7.0625 C1.9375 8.0625 1.9375 8.0625 -0.5 8.25 C-3.0625 8.0625 -3.0625 8.0625 -5.0625 6.0625 C-4.33395709 0.0884481 -4.33395709 0.0884481 0 0 Z " fill="#F5F5F5" transform="translate(130.0625,153.9375)"/>
<path d="M0 0 C2.33944736 0.28730055 4.6739143 0.61936779 7 1 C7.125 3.375 7.125 3.375 7 6 C6.34 6.66 5.68 7.32 5 8 C0.44444444 7.44444444 0.44444444 7.44444444 -1 6 C-1.125 3.5 -1.125 3.5 -1 1 C-0.67 0.67 -0.34 0.34 0 0 Z " fill="#F8F8F8" transform="translate(115,154)"/>
<path d="M0 0 C0 0.99 0 1.98 0 3 C-0.78375 3.45375 -1.5675 3.9075 -2.375 4.375 C-5.44960012 6.27832388 -5.9906414 7.60488472 -7 11 C-9.97 10.505 -9.97 10.505 -13 10 C-12.87890625 7.67578125 -12.87890625 7.67578125 -12 5 C-9.27734375 3.41796875 -9.27734375 3.41796875 -5.9375 2.1875 C-4.83277344 1.76855469 -3.72804688 1.34960938 -2.58984375 0.91796875 C-1.73519531 0.61503906 -0.88054688 0.31210938 0 0 Z " fill="#444C53" transform="translate(548,4)"/>
<path d="M0 0 C3.63 0 7.26 0 11 0 C11 0.66 11 1.32 11 2 C9.35 2 7.7 2 6 2 C6.95865509 4.33075929 6.95865509 4.33075929 10 6 C6.7 6 3.4 6 0 6 C0 4.02 0 2.04 0 0 Z " fill="#E3F4E2" transform="translate(338,293)"/>
<path d="M0 0 C0.928125 0.20625 1.85625 0.4125 2.8125 0.625 C0.8325 1.615 0.8325 1.615 -1.1875 2.625 C-1.1875 3.285 -1.1875 3.945 -1.1875 4.625 C-1.8475 4.625 -2.5075 4.625 -3.1875 4.625 C-3.8475 7.265 -4.5075 9.905 -5.1875 12.625 C-5.5175 11.305 -5.8475 9.985 -6.1875 8.625 C-6.8475 8.625 -7.5075 8.625 -8.1875 8.625 C-5.94279661 -0.69915254 -5.94279661 -0.69915254 0 0 Z " fill="#F2CBA6" transform="translate(289.1875,113.375)"/>
<path d="M0 0 C0.33 0 0.66 0 1 0 C1 1.65 1 3.3 1 5 C3.64 5 6.28 5 9 5 C9 12.92 9 20.84 9 29 C8.67 29 8.34 29 8 29 C8 21.41 8 13.82 8 6 C5.03 6 2.06 6 -1 6 C-1.33 6.66 -1.66 7.32 -2 8 C-1.47731534 5.23723823 -0.89130413 2.6739124 0 0 Z " fill="#E4E4E4" transform="translate(280,250)"/>
<path d="M0 0 C-0.33 0.66 -0.66 1.32 -1 2 C-3.64 1.67 -6.28 1.34 -9 1 C-9.33 0.01 -9.66 -0.98 -10 -2 C-17.26 -2 -24.52 -2 -32 -2 C-32 -2.33 -32 -2.66 -32 -3 C-10.46808511 -4.95744681 -10.46808511 -4.95744681 0 0 Z " fill="#C0B3A7" transform="translate(373,153)"/>
<path d="M0 0 C0.33 0 0.66 0 1 0 C1.17942163 3.94727588 1.09350689 6.5980513 -1 10 C-1.66 10 -2.32 10 -3 10 C-3 10.66 -3 11.32 -3 12 C-6.67387495 12.85298376 -10.0447393 13.10789471 -13.8125 13.0625 C-15.27623047 13.04896484 -15.27623047 13.04896484 -16.76953125 13.03515625 C-17.87361328 13.01775391 -17.87361328 13.01775391 -19 13 C-19 12.67 -19 12.34 -19 12 C-17.78763672 11.87044922 -17.78763672 11.87044922 -16.55078125 11.73828125 C-9.77105654 10.89826489 -9.77105654 10.89826489 -3.875 7.6875 C-2.11040051 5.15824073 -0.9226704 2.93576947 0 0 Z " fill="#DBEEDB" transform="translate(229,306)"/>
<path d="M0 0 C2.69769338 3.29898648 4.45637864 6.7678434 6.25 10.625 C6.79140625 11.77226563 7.3328125 12.91953125 7.890625 14.1015625 C8.25671875 15.05804688 8.6228125 16.01453125 9 17 C8.67 17.66 8.34 18.32 8 19 C7.34 19 6.68 19 6 19 C5.28385417 17.27473958 4.56770833 15.54947917 3.8515625 13.82421875 C2.93193308 11.73466068 2.93193308 11.73466068 1 9 C0.5859375 6.73828125 0.5859375 6.73828125 0.375 4.3125 C0.30023438 3.50425781 0.22546875 2.69601563 0.1484375 1.86328125 C0.09945313 1.24839844 0.05046875 0.63351563 0 0 Z " fill="#EFC9A7" transform="translate(426,91)"/>
<path d="M0 0 C3.63 0 7.26 0 11 0 C11 1.32 11 2.64 11 4 C2.42857143 4.28571429 2.42857143 4.28571429 -1 2 C-0.67 1.34 -0.34 0.68 0 0 Z " fill="#5BA05F" transform="translate(338,313)"/>
<path d="M0 0 C-2.6226232 1.33819498 -5.24786599 2.6707151 -7.875 4 C-8.99455078 4.57234375 -8.99455078 4.57234375 -10.13671875 5.15625 C-10.85214844 5.5171875 -11.56757813 5.878125 -12.3046875 6.25 C-13.2944458 6.75273437 -13.2944458 6.75273437 -14.30419922 7.265625 C-16 8 -16 8 -18 8 C-18 7.01 -18 6.02 -18 5 C-14.535 4.505 -14.535 4.505 -11 4 C-11 3.34 -11 2.68 -11 2 C-9.73392393 1.46770674 -8.46189588 0.94955456 -7.1875 0.4375 C-6.47980469 0.14746094 -5.77210938 -0.14257812 -5.04296875 -0.44140625 C-3 -1 -3 -1 0 0 Z " fill="#3C5460" transform="translate(500,123)"/>
<path d="M0 0 C1.2065625 0.0309375 1.2065625 0.0309375 2.4375 0.0625 C3.0625 2.4375 3.0625 2.4375 3.4375 5.0625 C2.7775 5.7225 2.1175 6.3825 1.4375 7.0625 C-0.6875 6.6875 -0.6875 6.6875 -2.5625 6.0625 C-2.94468767 4.40635343 -3.27645102 2.73792976 -3.5625 1.0625 C-2.5625 0.0625 -2.5625 0.0625 0 0 Z " fill="#5E5F5F" transform="translate(98.5625,376.9375)"/>
<path d="M0 0 C1.2065625 0.0309375 1.2065625 0.0309375 2.4375 0.0625 C3.0625 2.4375 3.0625 2.4375 3.4375 5.0625 C2.7775 5.7225 2.1175 6.3825 1.4375 7.0625 C-0.6875 6.6875 -0.6875 6.6875 -2.5625 6.0625 C-2.94468767 4.40635343 -3.27645102 2.73792976 -3.5625 1.0625 C-2.5625 0.0625 -2.5625 0.0625 0 0 Z " fill="#5E5F5F" transform="translate(86.5625,376.9375)"/>
<path d="M0 0 C0.33 0.99 0.66 1.98 1 3 C-3.60546875 3.76757812 -3.60546875 3.76757812 -8.2109375 4.53515625 C-9.25507813 4.70917969 -10.29921875 4.88320313 -11.375 5.0625 C-14.1875 5.53125 -14.1875 5.53125 -17 6 C-15.6562585 3.31251699 -13.81577466 2.77330745 -11.12109375 1.6640625 C-7.48820787 0.52669491 -3.78402202 0.24883592 0 0 Z " fill="#3D4244" transform="translate(470,42)"/>
<path d="M0 0 C1.2065625 0.0309375 1.2065625 0.0309375 2.4375 0.0625 C2.4375 2.3725 2.4375 4.6825 2.4375 7.0625 C0.77138095 7.105221 -0.89632885 7.10313832 -2.5625 7.0625 C-3.5625 6.0625 -3.5625 6.0625 -3.6875 3.5625 C-3.51717518 0.15600356 -3.41884482 0.08338646 0 0 Z " fill="#606160" transform="translate(75.5625,376.9375)"/>
<path d="M0 0 C-2.26607052 1.03275341 -4.53681939 2.05133551 -6.8125 3.0625 C-7.77639648 3.50432617 -7.77639648 3.50432617 -8.75976562 3.95507812 C-13.66015625 6.11328125 -13.66015625 6.11328125 -17 5 C-13.25 3 -13.25 3 -11 3 C-11 2.01 -11 1.02 -11 0 C-4.03571429 -2.41071429 -4.03571429 -2.41071429 0 0 Z " fill="#3A535F" transform="translate(548,102)"/>
<path d="M0 0 C0 1.65 0 3.3 0 5 C-6.435 5.495 -6.435 5.495 -13 6 C-10.87838666 3.87838666 -9.2266841 3.07013751 -6.5 1.875 C-5.7059375 1.52179687 -4.911875 1.16859375 -4.09375 0.8046875 C-2 0 -2 0 0 0 Z M1 1 C1.33 1.99 1.66 2.98 2 4 C1.34 3.67 0.68 3.34 0 3 C0.33 2.34 0.66 1.68 1 1 Z " fill="#435762" transform="translate(453,48)"/>
<path d="M0 0 C0.66 0.33 1.32 0.66 2 1 C-2.19407577 4.30946922 -5.93736745 7.15904271 -11 9 C-11.33 9.66 -11.66 10.32 -12 11 C-12.66 11 -13.32 11 -14 11 C-14.33 9.68 -14.66 8.36 -15 7 C-12.54595776 5.80283341 -10.08748321 4.6170654 -7.625 3.4375 C-6.57699219 2.92413086 -6.57699219 2.92413086 -5.5078125 2.40039062 C-3.69947784 1.53969288 -1.85148044 0.76347564 0 0 Z " fill="#486A75" transform="translate(498,26)"/>
<path d="M0 0 C0.66 0 1.32 0 2 0 C2.33 3.96 2.66 7.92 3 12 C2.34 11.67 1.68 11.34 1 11 C1 10.34 1 9.68 1 9 C0.01 9.33 -0.98 9.66 -2 10 C-2.1953125 3.9453125 -2.1953125 3.9453125 -2 2 C-1.34 1.34 -0.68 0.68 0 0 Z " fill="#F4F1F6" transform="translate(212,296)"/>
<path d="M0 0 C1.0725 0.268125 2.145 0.53625 3.25 0.8125 C2.6725 1.080625 2.095 1.34875 1.5 1.625 C-0.80747896 2.76303246 -0.80747896 2.76303246 -2.875 4.4375 C-4.75 5.8125 -4.75 5.8125 -6.75 5.8125 C-6.75 8.7825 -6.75 11.7525 -6.75 14.8125 C-7.08 14.8125 -7.41 14.8125 -7.75 14.8125 C-8.3617871 6.06054568 -8.3617871 6.06054568 -6.1875 1.625 C-3.75 -0.1875 -3.75 -0.1875 0 0 Z " fill="#D0E8D1" transform="translate(215.75,292.1875)"/>
<path d="M0 0 C0.33 0.99 0.66 1.98 1 3 C-1.88211302 3.96070434 -3.69850044 4.10581883 -6.6875 4.0625 C-7.89986328 4.04896484 -7.89986328 4.04896484 -9.13671875 4.03515625 C-10.05904297 4.01775391 -10.05904297 4.01775391 -11 4 C-7.9178096 0.4611888 -4.70112403 -2.35056201 0 0 Z " fill="#524A44" transform="translate(428,146)"/>
<path d="M0 0 C-0.6496875 0.5878125 -0.6496875 0.5878125 -1.3125 1.1875 C-3.13582629 3.01796997 -3.13582629 3.01796997 -4.5625 5.625 C-6 8 -6 8 -8 9 C-8 8.34 -8 7.68 -8 7 C-8.66 6.67 -9.32 6.34 -10 6 C-8.45899296 2.91798591 -7.51635481 1.27706844 -4.4375 -0.375 C-2 -1 -2 -1 0 0 Z " fill="#434D51" transform="translate(440,55)"/>
<path d="M0 0 C2.70968211 4.06452316 2.508867 7.23667116 2 12 C1 15.0625 1 15.0625 -1 17 C-3.79657225 17.41921004 -6.14581246 17.2339498 -9 17 C-9 16.67 -9 16.34 -9 16 C-7.02 16 -5.04 16 -3 16 C-3 15.01 -3 14.02 -3 13 C-2.01 12.34 -1.02 11.68 0 11 C0.36460453 8.33346095 0.36460453 8.33346095 0.1875 5.375 C0.16042969 4.37210937 0.13335937 3.36921875 0.10546875 2.3359375 C0.07066406 1.56507813 0.03585938 0.79421875 0 0 Z " fill="#DEF1E0" transform="translate(220,295)"/>
<path d="M0 0 C0.53625 0.268125 1.0725 0.53625 1.625 0.8125 C-3.125 4.8125 -3.125 4.8125 -5.375 4.8125 C-5.643125 5.451875 -5.91125 6.09125 -6.1875 6.75 C-7.375 8.8125 -7.375 8.8125 -10.375 9.8125 C-9.01008735 5.03530571 -5.57550568 -0.4401715 0 0 Z " fill="#4D6875" transform="translate(94.375,136.1875)"/>
<path d="M0 0 C1.32 0 2.64 0 4 0 C3.125 5.75 3.125 5.75 2 8 C0.68 7.67 -0.64 7.34 -2 7 C-1.34 4.69 -0.68 2.38 0 0 Z " fill="#ECECEC" transform="translate(340,154)"/>
<path d="M0 0 C0.33 0 0.66 0 1 0 C1 5.28 1 10.56 1 16 C-1.92824652 13.07175348 -3.27239967 10.7020007 -5 7 C-3.68 7.33 -2.36 7.66 -1 8 C-0.67 5.36 -0.34 2.72 0 0 Z " fill="#E0F4E1" transform="translate(317,288)"/>
<path d="M0 0 C9.12 -0.304 9.12 -0.304 12 2 C12.75 4.125 12.75 4.125 13 6 C12.01 6.33 11.02 6.66 10 7 C9.67 5.68 9.34 4.36 9 3 C4.545 2.01 4.545 2.01 0 1 C0 0.67 0 0.34 0 0 Z " fill="#56A25B" transform="translate(212,289)"/>
<path d="M0 0 C3.3 0 6.6 0 10 0 C10 1.98 10 3.96 10 6 C6.7 6 3.4 6 0 6 C1.32 5.67 2.64 5.34 4 5 C4 4.34 4 3.68 4 3 C5.65 3.33 7.3 3.66 9 4 C9 3.01 9 2.02 9 1 C6.03 1 3.06 1 0 1 C0 0.67 0 0.34 0 0 Z " fill="#7CAB7D" transform="translate(338,299)"/>
<path d="M0 0 C0.33 0 0.66 0 1 0 C1.3125 3.3125 1.3125 3.3125 1 7 C-1.5 8.9375 -1.5 8.9375 -4 10 C-4.33 9.34 -4.66 8.68 -5 8 C-4.0390625 6.0546875 -4.0390625 6.0546875 -2.625 3.875 C-2.16351563 3.15054687 -1.70203125 2.42609375 -1.2265625 1.6796875 C-0.82179687 1.12539063 -0.41703125 0.57109375 0 0 Z " fill="#58A15B" transform="translate(227,303)"/>
<path d="M0 0 C3.1975007 4.26333426 3.25621457 5.0466224 2.55273438 10.0390625 C2.43220703 10.76867187 2.31167969 11.49828125 2.1875 12.25 C2.07857422 12.99507813 1.96964844 13.74015625 1.85742188 14.5078125 C1.58715885 16.34090087 1.29564433 18.17083365 1 20 C0.67 20 0.34 20 0 20 C0 13.4 0 6.8 0 0 Z " fill="#D8EFD9" transform="translate(240,297)"/>
<path d="M0 0 C0.99 0.33 1.98 0.66 3 1 C-1.27152492 4.95897432 -4.31251115 6.74875245 -10 8 C-10 7.34 -10 6.68 -10 6 C-9.34 6 -8.68 6 -8 6 C-8 5.34 -8 4.68 -8 4 C-6.865625 3.525625 -5.73125 3.05125 -4.5625 2.5625 C-1.24259834 1.36377917 -1.24259834 1.36377917 0 0 Z " fill="#CBBAA8" transform="translate(413,150)"/>
<path d="M0 0 C4.875 0.875 4.875 0.875 6 2 C6.04080783 3.99958364 6.04254356 6.00045254 6 8 C4.35 8 2.7 8 1 8 C1.33 7.01 1.66 6.02 2 5 C2.66 4.67 3.32 4.34 4 4 C4 3.34 4 2.68 4 2 C2.68 2 1.36 2 0 2 C0 1.34 0 0.68 0 0 Z " fill="#CFD0CF" transform="translate(463,123)"/>
<path d="M0 0 C3.17218843 3.62535821 4.42902597 7.51150278 6 12 C5.34 12 4.68 12 4 12 C1.46093936 9.38626111 0.07743148 7.87110419 -0.25 4.1875 C-0.1675 3.465625 -0.085 2.74375 0 2 C-0.99 1.67 -1.98 1.34 -3 1 C-2.01 0.67 -1.02 0.34 0 0 Z " fill="#EFCAA6" transform="translate(420,78)"/>
<path d="M0 0 C0.99 0 1.98 0 3 0 C3 0.99 3 1.98 3 3 C3.66 3 4.32 3 5 3 C4.67 4.65 4.34 6.3 4 8 C2.35 6.68 0.7 5.36 -1 4 C-0.67 2.68 -0.34 1.36 0 0 Z " fill="#57A25D" transform="translate(311,300)"/>
<path d="M0 0 C0.66 0 1.32 0 2 0 C1.125 5.875 1.125 5.875 0 7 C-2.4375 7.1875 -2.4375 7.1875 -5 7 C-5.66 6.34 -6.32 5.68 -7 5 C-6.67 4.01 -6.34 3.02 -6 2 C-5.34 2.66 -4.68 3.32 -4 4 C-1.93125966 4.6425235 -1.93125966 4.6425235 0 5 C0 3.35 0 1.7 0 0 Z " fill="#D3D3D3" transform="translate(478,121)"/>
<path d="M0 0 C4.23169259 0.37615045 6.8083482 1.17661571 10 4 C2.49230769 4.36923077 2.49230769 4.36923077 0 2.5 C-0.33 2.005 -0.66 1.51 -1 1 C-0.67 0.67 -0.34 0.34 0 0 Z " fill="#E5B788" transform="translate(320,80)"/>
<path d="M0 0 C0.66 0.33 1.32 0.66 2 1 C0.4375 3.5 0.4375 3.5 -2 6 C-5.75 6.3125 -5.75 6.3125 -9 6 C-6.45368965 3.02930459 -3.57769851 1.5224249 0 0 Z " fill="#4A5C64" transform="translate(512,20)"/>
<path d="M0 0 C2.7865517 2.7865517 2.65662895 5.15424427 3 9 C2.67 9.66 2.34 10.32 2 11 C1.01 11 0.02 11 -1 11 C-1.33 9.68 -1.66 8.36 -2 7 C-1.34 7 -0.68 7 0 7 C0 4.69 0 2.38 0 0 Z " fill="#65A469" transform="translate(244,292)"/>
<path d="M0 0 C2.00720923 0.28674418 4.0085944 0.61866701 6 1 C5.67 1.99 5.34 2.98 5 4 C-0.94 3.01 -0.94 3.01 -7 2 C-7 1.67 -7 1.34 -7 1 C-5.5459375 1.0309375 -5.5459375 1.0309375 -4.0625 1.0625 C-1.12534105 1.35618499 -1.12534105 1.35618499 0 0 Z " fill="#D2AA83" transform="translate(350,139)"/>
<path d="M0 0 C-0.99 1.32 -1.98 2.64 -3 4 C-5.97 3.505 -5.97 3.505 -9 3 C-5.83583464 -0.30799106 -4.50236011 -1.35070803 0 0 Z " fill="#3F515A" transform="translate(485,35)"/>
<path d="M0 0 C0.99 0.33 1.98 0.66 3 1 C3 1.66 3 2.32 3 3 C2.34 3 1.68 3 1 3 C1 3.66 1 4.32 1 5 C-3.455 6.485 -3.455 6.485 -8 8 C-7 6 -7 6 -5.125 5.125 C-2.63203665 3.80519587 -1.54852219 2.32278328 0 0 Z " fill="#A7BDCA" transform="translate(509,381)"/>
<path d="M0 0 C2.00948183 0.01778303 4.01668765 0.16786374 6.01953125 0.33203125 C2.65529848 3.29255609 -0.67206162 4.25492947 -4.98046875 5.33203125 C-3.05235036 0.51173527 -3.05235036 0.51173527 0 0 Z " fill="#3B525D" transform="translate(525.98046875,107.66796875)"/>
<path d="M0 0 C5.7809725 0.63065155 11.3443706 1.65155132 17 3 C17 3.33 17 3.66 17 4 C14.91589342 3.91266027 12.83265331 3.80447722 10.75 3.6875 C9.00976562 3.60048828 9.00976562 3.60048828 7.234375 3.51171875 C3.89180362 2.98288197 2.4502943 2.26227667 0 0 Z " fill="#FDF2E3" transform="translate(323,85)"/>
<path d="M0 0 C0.33 0.66 0.66 1.32 1 2 C1.66 2.33 2.32 2.66 3 3 C2.67 3.66 2.34 4.32 2 5 C2.66 5.33 3.32 5.66 4 6 C2.35 6.66 0.7 7.32 -1 8 C-1.625 5.125 -1.625 5.125 -2 2 C-1.34 1.34 -0.68 0.68 0 0 Z " fill="#5A5A5A" transform="translate(270,272)"/>
<path d="M0 0 C0.33 0 0.66 0 1 0 C1.3690205 9.41002278 1.3690205 9.41002278 -1 14 C-1.33 14 -1.66 14 -2 14 C-1.85795259 12.41632253 -1.71119847 10.83306682 -1.5625 9.25 C-1.48128906 8.36828125 -1.40007812 7.4865625 -1.31640625 6.578125 C-1.03761535 4.30649548 -0.61209423 2.20148177 0 0 Z " fill="#F0CCA9" transform="translate(352,96)"/>
<path d="M0 0 C0 0.99 0 1.98 0 3 C-1.175625 3.1546875 -1.175625 3.1546875 -2.375 3.3125 C-5.33045181 3.77595022 -5.33045181 3.77595022 -7 7 C-8.65 6.67 -10.3 6.34 -12 6 C-3 0 -3 0 0 0 Z " fill="#BEBDB2" transform="translate(323,76)"/>
<path d="M0 0 C2.31 0 4.62 0 7 0 C7 0.99 7 1.98 7 3 C4.36 3 1.72 3 -1 3 C-0.67 2.01 -0.34 1.02 0 0 Z " fill="#57A35A" transform="translate(275,313)"/>
<path d="M0 0 C0.66 0 1.32 0 2 0 C2 0.99 2 1.98 2 3 C2.66 3 3.32 3 4 3 C4 3.66 4 4.32 4 5 C4.66 5 5.32 5 6 5 C6 6.98 6 8.96 6 11 C3.46166551 9.73083275 3.10599099 8.58375191 1.875 6.0625 C1.52179688 5.35222656 1.16859375 4.64195312 0.8046875 3.91015625 C0 2 0 2 0 0 Z " fill="#DDF0DE" transform="translate(246,294)"/>
<path d="M0 0 C-3.12488567 2.52394612 -6.31314387 4.39701907 -10 6 C-10.66 5.67 -11.32 5.34 -12 5 C-11.67 4.34 -11.34 3.68 -11 3 C-9.68 3 -8.36 3 -7 3 C-7 2.34 -7 1.68 -7 1 C-4.53721199 -0.231394 -2.7204945 -0.07159196 0 0 Z " fill="#445A66" transform="translate(475,133)"/>
<path d="M0 0 C-0.33 2.64 -0.66 5.28 -1 8 C-1.66 8 -2.32 8 -3 8 C-3.33 5.69 -3.66 3.38 -4 1 C-2 0 -2 0 0 0 Z " fill="#D0D0D0" transform="translate(238,264)"/>
<path d="M0 0 C0.33 0 0.66 0 1 0 C1 1.65 1 3.3 1 5 C3.64 5 6.28 5 9 5 C9 5.33 9 5.66 9 6 C5.7 6 2.4 6 -1 6 C-1.33 6.66 -1.66 7.32 -2 8 C-1.47731534 5.23723823 -0.89130413 2.6739124 0 0 Z " fill="#CBCBCB" transform="translate(280,250)"/>
<path d="M0 0 C1.65 0.33 3.3 0.66 5 1 C2.3144406 3.6855594 -0.37621328 4.06049974 -4 5 C-4 4.01 -4 3.02 -4 2 C-2.68 2 -1.36 2 0 2 C0 1.34 0 0.68 0 0 Z " fill="#3C535E" transform="translate(516,112)"/>
<path d="M0 0 C3.10551666 3.10551666 3.81323934 4.89198233 5 9 C4.01 9 3.02 9 2 9 C1.34 6.03 0.68 3.06 0 0 Z " fill="#D1E6D1" transform="translate(308,301)"/>
<path d="M0 0 C1.65 0 3.3 0 5 0 C5 0.99 5 1.98 5 3 C3.35 3.33 1.7 3.66 0 4 C0 2.68 0 1.36 0 0 Z " fill="#C5C5C5" transform="translate(337,162)"/>
<path d="M0 0 C0.33 0 0.66 0 1 0 C1.28571429 8.57142857 1.28571429 8.57142857 -1 12 C-1.33 12 -1.66 12 -2 12 C-1 3.42857143 -1 3.42857143 0 0 Z " fill="#C0E5F0" transform="translate(244,123)"/>
<path d="M0 0 C-0.3125 1.9375 -0.3125 1.9375 -1 4 C-1.99 4.33 -2.98 4.66 -4 5 C-4.99 4.01 -5.98 3.02 -7 2 C-4.35261084 0.5393715 -3.10551666 0 0 0 Z " fill="#495764" transform="translate(524,16)"/>
<path d="M0 0 C0.99 0 1.98 0 3 0 C3 0.99 3 1.98 3 3 C5.64 3 8.28 3 11 3 C11 3.33 11 3.66 11 4 C7.7 4 4.4 4 1 4 C0.67 2.68 0.34 1.36 0 0 Z " fill="#E4F0E4" transform="translate(314,315)"/>
<path d="M0 0 C4.42857143 5.14285714 4.42857143 5.14285714 5 9 C3.0625 8.4375 3.0625 8.4375 1 7 C0.25 3.375 0.25 3.375 0 0 Z " fill="#D2EBD8" transform="translate(243,303)"/>
<path d="M0 0 C1 2 2 4 3 6 C2.01 6 1.02 6 0 6 C-0.33 6.66 -0.66 7.32 -1 8 C-1.66 5.69 -2.32 3.38 -3 1 C-2.01 0.67 -1.02 0.34 0 0 Z " fill="#626262" transform="translate(470,122)"/>
<path d="M0 0 C0.66 0 1.32 0 2 0 C4.15305957 3.85756507 5.39253254 6.55129785 5 11 C2.03947516 7.63576723 1.07710178 4.30840713 0 0 Z " fill="#FEF4E6" transform="translate(427,91)"/>
<path d="M0 0 C0.66 0.33 1.32 0.66 2 1 C1.67 1.99 1.34 2.98 1 4 C0.34 4 -0.32 4 -1 4 C-1 4.66 -1 5.32 -1 6 C-1.99 6.33 -2.98 6.66 -4 7 C-2.92598892 4.08482708 -2.22189824 2.22189824 0 0 Z " fill="#77A87C" transform="translate(206,289)"/>
<path d="M0 0 C2.97 0.495 2.97 0.495 6 1 C6 1.66 6 2.32 6 3 C3.36 3.66 0.72 4.32 -2 5 C-1.34 3.35 -0.68 1.7 0 0 Z " fill="#383736" transform="translate(524,104)"/>
<path d="M0 0 C0.66 0.33 1.32 0.66 2 1 C-0.06756277 3.7972908 -1.14440371 4.02692273 -4.6875 4.6875 C-5.780625 4.790625 -6.87375 4.89375 -8 5 C-6.35197949 1.70395897 -3.32254422 1.22409524 0 0 Z " fill="#48707B" transform="translate(461,43)"/>
<path d="M0 0 C0.66 0.33 1.32 0.66 2 1 C0.68 2.32 -0.64 3.64 -2 5 C-3.32 4.34 -4.64 3.68 -6 3 C-4.03533587 1.93224776 -2.03144641 0.93446535 0 0 Z " fill="#485F71" transform="translate(541,7)"/>
<path d="M0 0 C0.99 0 1.98 0 3 0 C2.34 3.63 1.68 7.26 1 11 C0.67 11 0.34 11 0 11 C0 7.37 0 3.74 0 0 Z " fill="#D8EEF5" transform="translate(38,369)"/>
<path d="M0 0 C1.32 1.32 2.64 2.64 4 4 C1.03 4 -1.94 4 -5 4 C-4.34 3.34 -3.68 2.68 -3 2 C-2.34 2 -1.68 2 -1 2 C-0.67 1.34 -0.34 0.68 0 0 Z " fill="#59534E" transform="translate(357,146)"/>
<path d="M0 0 C0.66 0 1.32 0 2 0 C2.28875 0.61875 2.5775 1.2375 2.875 1.875 C3.93720042 4.13325765 3.93720042 4.13325765 6 6 C4.68 6.33 3.36 6.66 2 7 C0.5393715 4.35261084 0 3.10551666 0 0 Z " fill="#324047" transform="translate(457,133)"/>
<path d="M0 0 C0.66 0 1.32 0 2 0 C2.66 1.65 3.32 3.3 4 5 C2.35 5.66 0.7 6.32 -1 7 C-0.67 4.69 -0.34 2.38 0 0 Z " fill="#E0BC9A" transform="translate(442,128)"/>
<path d="M0 0 C2.475 0.99 2.475 0.99 5 2 C4.34 3.32 3.68 4.64 3 6 C0 2.25 0 2.25 0 0 Z " fill="#4D4D4D" transform="translate(440,95)"/>
<path d="M0 0 C-1.0625 1.5625 -1.0625 1.5625 -3 3 C-6.6875 2.6875 -6.6875 2.6875 -10 2 C-10 1.67 -10 1.34 -10 1 C-6.59437148 0.22157062 -3.49234244 -0.09978121 0 0 Z " fill="#EFC49E" transform="translate(343,69)"/>
</svg>
