<?xml version="1.0" encoding="UTF-8"?>
<svg version="1.1" xmlns="http://www.w3.org/2000/svg" width="481" height="519">
<path d="M0 0 C2.55066685 1.36636455 5.05577659 2.80496847 7.5625 4.25 C9.15686404 5.14445671 10.75195864 6.03761204 12.34765625 6.9296875 C26.13753864 14.68944458 39.80755765 22.70152812 53.32275391 30.93066406 C54.21269043 31.47174805 55.10262695 32.01283203 56.01953125 32.5703125 C56.81979736 33.06031738 57.62006348 33.55032227 58.44458008 34.05517578 C60.63705033 35.38080336 60.63705033 35.38080336 63.5625 36.25 C63.5625 36.91 63.5625 37.57 63.5625 38.25 C64.13613281 38.36931885 64.70976562 38.4886377 65.30078125 38.61157227 C67.70547541 39.29035845 69.57836825 40.23440076 71.75 41.46484375 C72.53117188 41.90376953 73.31234375 42.34269531 74.1171875 42.79492188 C74.92414063 43.25447266 75.73109375 43.71402344 76.5625 44.1875 C78.16627318 45.09314508 79.77042698 45.99811654 81.375 46.90234375 C82.43654297 47.50550415 82.43654297 47.50550415 83.51953125 48.12084961 C85.50905337 49.22046001 87.52212933 50.24844164 89.5625 51.25 C89.5625 51.91 89.5625 52.57 89.5625 53.25 C90.078125 53.33636719 90.59375 53.42273437 91.125 53.51171875 C94.53832328 54.54556186 97.49020609 56.29175319 100.5625 58.0625 C101.17867187 58.40603516 101.79484375 58.74957031 102.4296875 59.10351562 C108.48458665 62.56624228 113.04642174 66.60268446 115.5625 73.25 C116.15270215 77.57282517 116.1193476 81.86084328 116.09594727 86.21850586 C116.10456284 87.51365616 116.11317841 88.80880646 116.12205505 90.14320374 C116.14447743 93.68053867 116.14162631 97.21742466 116.13273358 100.75480342 C116.12760807 103.71445713 116.13492891 106.67402764 116.14220566 109.63367277 C116.15918207 116.61905632 116.15566192 123.6042213 116.13891602 130.58959961 C116.12199676 137.78173033 116.13783109 144.973254 116.1701389 152.16531843 C116.19688047 158.35411392 116.20409855 164.54272096 116.19562382 170.7315684 C116.19070781 174.4218036 116.19283752 178.11167372 116.21341133 181.80186272 C116.23526852 185.91899065 116.21631861 190.03497632 116.19360352 194.15209961 C116.20529572 195.36533905 116.21698792 196.57857849 116.22903442 197.82858276 C116.13763022 205.97927025 114.64581202 211.07678163 108.91555119 216.93321133 C102.09022561 223.32097513 93.27411487 227.47552999 85.10546875 231.85546875 C83.34562032 232.82054692 81.61971226 233.84919399 79.92578125 234.92578125 C77.5625 236.25 77.5625 236.25 74.5625 236.25 C74.5625 236.91 74.5625 237.57 74.5625 238.25 C73.90765625 238.60191406 73.2528125 238.95382813 72.578125 239.31640625 C66.31806106 242.70285327 60.17588908 246.23238716 54.09375 249.9296875 C51.5625 251.25 51.5625 251.25 48.5625 251.25 C48.5625 251.91 48.5625 252.57 48.5625 253.25 C42.9375 256.25 42.9375 256.25 39.5625 256.25 C39.5625 256.91 39.5625 257.57 39.5625 258.25 C39.03245361 258.54277832 38.50240723 258.83555664 37.95629883 259.13720703 C32.0275445 262.4204486 26.132476 265.75965393 20.25 269.125 C19.33299316 269.64876221 18.41598633 270.17252441 17.47119141 270.7121582 C11.5327367 274.10833328 5.61962157 277.54206237 -0.2578125 281.04296875 C-6.43565283 284.46403087 -15.0269388 284.4867452 -21.75 282.6015625 C-23.76973289 281.61694271 -25.57489331 280.50772056 -27.4375 279.25 C-29.18634669 278.12320798 -30.93644868 276.99836294 -32.6875 275.875 C-33.62464844 275.2665625 -34.56179688 274.658125 -35.52734375 274.03125 C-38.37366908 272.28906967 -41.24209765 270.81687063 -44.25 269.375 C-49.62075269 266.77692457 -54.51370905 263.71427947 -59.48510742 260.44165039 C-63.69068589 257.6864747 -67.87996244 255.35997109 -72.4375 253.25 C-73.77271522 252.58711046 -75.10649967 251.9213124 -76.4375 251.25 C-76.4375 250.59 -76.4375 249.93 -76.4375 249.25 C-76.98277344 249.15074219 -77.52804687 249.05148437 -78.08984375 248.94921875 C-81.04593376 248.06878595 -83.35882917 246.65564299 -86 245.0625 C-89.90343484 242.74026307 -93.81470796 240.46834638 -97.8125 238.3125 C-102.81271179 235.61224007 -107.746473 232.8062961 -112.66748047 229.96508789 C-115.55192084 228.30461254 -118.43825302 226.69435481 -121.4375 225.25 C-121.4375 224.59 -121.4375 223.93 -121.4375 223.25 C-122.01113281 223.13398438 -122.58476562 223.01796875 -123.17578125 222.8984375 C-125.62754104 222.195515 -127.45971049 221.21561076 -129.625 219.875 C-130.66720703 219.24464844 -130.66720703 219.24464844 -131.73046875 218.6015625 C-133.4375 217.25 -133.4375 217.25 -134.4375 214.25 C-135.0975 214.25 -135.7575 214.25 -136.4375 214.25 C-140.75871284 207.23590405 -141.01024209 201.47919077 -140.95507812 193.3515625 C-140.9620874 192.07577332 -140.96909668 190.79998413 -140.97631836 189.48553467 C-140.99445948 186.00608674 -140.9875229 182.52711645 -140.97480202 179.04766083 C-140.96462617 175.39455442 -140.97408036 171.74148704 -140.98034668 168.08837891 C-140.98760983 161.95532949 -140.9780706 155.82247318 -140.95898438 149.68945312 C-140.93721801 142.61381618 -140.94427034 135.53864038 -140.96629 128.4630146 C-140.98448221 122.37186824 -140.98698374 116.28086014 -140.97653532 110.18969536 C-140.97032128 106.55878015 -140.96940671 102.92808121 -140.98268127 99.29718018 C-140.99645514 95.24732459 -140.97732812 91.19825538 -140.95507812 87.1484375 C-140.96317505 85.95547058 -140.97127197 84.76250366 -140.97961426 83.53338623 C-140.90957283 76.63993384 -140.07102985 72.14786432 -136.4375 66.25 C-135.7775 66.25 -135.1175 66.25 -134.4375 66.25 C-134.4375 65.59 -134.4375 64.93 -134.4375 64.25 C-133.7775 64.25 -133.1175 64.25 -132.4375 64.25 C-132.4375 63.59 -132.4375 62.93 -132.4375 62.25 C-130.05859375 60.6640625 -130.05859375 60.6640625 -126.875 58.875 C-125.2353125 57.94880859 -125.2353125 57.94880859 -123.5625 57.00390625 C-122.015625 56.13572266 -122.015625 56.13572266 -120.4375 55.25 C-119.08271113 54.43853791 -117.72839396 53.62628646 -116.375 52.8125 C-113.4375 51.25 -113.4375 51.25 -110.4375 51.25 C-110.4375 50.59 -110.4375 49.93 -110.4375 49.25 C-109.70144531 48.85167969 -108.96539062 48.45335937 -108.20703125 48.04296875 C-107.23121094 47.51316406 -106.25539063 46.98335937 -105.25 46.4375 C-103.80560547 45.65439453 -103.80560547 45.65439453 -102.33203125 44.85546875 C-100.44405426 43.80829123 -98.58423113 42.70814312 -96.76171875 41.55078125 C-94.4375 40.25 -94.4375 40.25 -91.4375 40.25 C-91.4375 39.59 -91.4375 38.93 -91.4375 38.25 C-90.78265625 37.89808594 -90.1278125 37.54617187 -89.453125 37.18359375 C-83.19306106 33.79714673 -77.05088908 30.26761284 -70.96875 26.5703125 C-68.4375 25.25 -68.4375 25.25 -65.4375 25.25 C-65.4375 24.59 -65.4375 23.93 -65.4375 23.25 C-64.49003906 22.73953125 -64.49003906 22.73953125 -63.5234375 22.21875 C-54.22880387 17.18304071 -45.02993272 11.98448739 -35.94140625 6.5859375 C-34.80276123 5.91062988 -34.80276123 5.91062988 -33.64111328 5.22167969 C-32.16224813 4.34283674 -30.68526506 3.46081673 -29.21044922 2.57519531 C-19.34572404 -3.28981092 -10.80632936 -5.28738258 0 0 Z " fill="#FCE86F" transform="translate(365.4375,9.75)"/>
<path d="M0 0 C0.75792847 -0.0038269 1.51585693 -0.00765381 2.29675293 -0.01159668 C3.89364964 -0.01430955 5.49059126 -0.00699203 7.08740234 0.00976562 C9.52412494 0.03118736 11.95789976 0.00994611 14.39453125 -0.015625 C15.9505273 -0.01298161 17.50652153 -0.00785639 19.0625 0 C19.78659058 -0.00809692 20.51068115 -0.01619385 21.25671387 -0.02453613 C26.1184218 0.06505554 28.61946896 1.07427981 32.03125 4.53125 C33.03125 6.53125 33.03125 6.53125 33.03125 15.53125 C69.66125 15.53125 106.29125 15.53125 144.03125 15.53125 C144.03125 12.89125 144.03125 10.25125 144.03125 7.53125 C144.53125 5.03125 144.53125 5.03125 145.03125 3.53125 C145.69125 3.53125 146.35125 3.53125 147.03125 3.53125 C147.03125 2.87125 147.03125 2.21125 147.03125 1.53125 C150.65871318 0.32209561 154.02496578 0.33098625 157.8046875 0.29296875 C158.94582504 0.28086113 158.94582504 0.28086113 160.11001587 0.26850891 C161.71882868 0.25468976 163.32767054 0.24395791 164.93652344 0.23608398 C167.39054081 0.21886026 169.84321404 0.17495629 172.296875 0.13085938 C173.86196929 0.12073259 175.427075 0.11221644 176.9921875 0.10546875 C178.08773453 0.07920662 178.08773453 0.07920662 179.20541382 0.05241394 C182.86807174 0.06792847 184.86574218 0.42419632 187.97119141 2.43286133 C191.02444616 5.54292587 191.15855758 7.23779213 191.17842102 11.4835968 C191.18915398 13.05453598 191.18915398 13.05453598 191.20010376 14.6572113 C191.20279266 15.81100784 191.20548157 16.96480438 191.20825195 18.15356445 C191.21482315 19.36502136 191.22139435 20.57647827 191.22816467 21.824646 C191.24452012 25.15328234 191.25612691 28.48185508 191.2643702 31.8105166 C191.26952011 33.89003451 191.27559585 35.96954796 191.28188133 38.04906273 C191.30093412 44.55507234 191.31516493 51.06107059 191.3234933 57.56710273 C191.33326639 65.07780291 191.35958705 72.58820843 191.39999419 80.09880477 C191.43015234 85.90354867 191.44496187 91.70820808 191.44827431 97.5130288 C191.45062522 100.98023209 191.45959009 104.44712062 191.48473549 107.91423988 C191.51234151 111.78317324 191.50818596 115.65171877 191.5012207 119.52075195 C191.52043579 121.24233772 191.52043579 121.24233772 191.54003906 122.998703 C191.48935609 130.70464627 191.48935609 130.70464627 189.2510376 134.74345398 C186.90654946 136.63168264 186.00209131 137.15548695 183.04467773 137.14648438 C182.27385361 137.15578979 181.50302948 137.16509521 180.70884705 137.17468262 C179.47431541 137.15008972 179.47431541 137.15008972 178.21484375 137.125 C177.36197281 137.12504028 176.50910187 137.12508057 175.63038635 137.12512207 C173.83074559 137.11976897 172.03110526 137.10219498 170.23168945 137.07324219 C167.47469846 137.03134041 164.72014671 137.03217735 161.96289062 137.0390625 C160.21352467 137.02857137 158.46417131 137.01563367 156.71484375 137 C155.88979843 136.99979858 155.06475311 136.99959717 154.21470642 136.99938965 C148.46889541 136.88029377 148.46889541 136.88029377 146.35267639 135.19250488 C142.91612797 130.87218641 144.03125 127.39156273 144.03125 121.53125 C134.79125 121.53125 125.55125 121.53125 116.03125 121.53125 C116.04013245 124.26157501 116.04901489 126.99190002 116.0581665 129.80496216 C116.13984411 155.49746018 116.19940473 181.1899411 116.23849869 206.88253975 C116.25913256 220.09231819 116.28726908 233.30200142 116.33300781 246.51171875 C116.37285013 258.02398042 116.39867681 269.53617315 116.40760398 281.04850185 C116.41282309 287.14540889 116.42510738 293.24211867 116.45417023 299.33896255 C116.48129795 305.07627786 116.48970023 310.81331444 116.48368073 316.55068779 C116.48478213 318.6574079 116.49275155 320.76413723 116.5080719 322.87080193 C116.52795814 325.74608987 116.52319389 328.62032392 116.51226807 331.49563599 C116.52974512 332.74759693 116.52974512 332.74759693 116.54757524 334.02485001 C116.49335195 339.30005351 115.57500154 342.36845817 112.03125 346.53125 C109.76593018 347.2527771 109.76593018 347.2527771 107.26269531 347.21240234 C106.32202209 347.21194916 105.38134888 347.21149597 104.41217041 347.21102905 C103.40474792 347.18006134 102.39732544 347.14909363 101.359375 347.1171875 C100.32182068 347.10869781 99.28426636 347.10020813 98.215271 347.09146118 C94.90287229 347.05788641 91.59291222 346.98259541 88.28125 346.90625 C86.03519142 346.87615586 83.78909466 346.8487791 81.54296875 346.82421875 C76.03823112 346.75808222 70.53491475 346.65769303 65.03125 346.53125 C65.03125 345.87125 65.03125 345.21125 65.03125 344.53125 C64.37125 344.53125 63.71125 344.53125 63.03125 344.53125 C60.35333981 340.5881896 60.75905342 336.30768083 60.79074097 331.73614502 C60.78903212 330.83842935 60.78732327 329.94071369 60.78556263 329.01579452 C60.78226311 326.00165993 60.79327912 322.98774696 60.80419922 319.97363281 C60.80476323 317.81543483 60.80444697 315.65723646 60.80331421 313.4990387 C60.80273931 307.63372666 60.81451583 301.76849608 60.82846212 295.90320301 C60.84094664 289.7759473 60.84213818 283.64868981 60.84451294 277.52142334 C60.85073441 265.91572602 60.86715427 254.31006628 60.88721192 242.70438552 C60.90955015 229.49294113 60.92055913 216.28149497 60.93060279 203.07003641 C60.95151991 175.89041938 60.98711072 148.71083838 61.03125 121.53125 C51.79125 121.53125 42.55125 121.53125 33.03125 121.53125 C33.03125 124.50125 33.03125 127.47125 33.03125 130.53125 C31.8722916 132.94994578 30.90802904 134.65447096 29.03125 136.53125 C26.18202553 136.66957113 23.35878453 136.74441519 20.5078125 136.76953125 C19.22213882 136.78163887 19.22213882 136.78163887 17.91049194 136.79399109 C16.09301791 136.80784735 14.27551769 136.81856258 12.45800781 136.82641602 C9.67463016 136.84363629 6.89243778 136.88750807 4.109375 136.93164062 C2.34636293 136.94176643 0.58334073 136.95028289 -1.1796875 136.95703125 C-2.43137222 136.98329338 -2.43137222 136.98329338 -3.70834351 137.01008606 C-9.50577703 136.98826748 -9.50577703 136.98826748 -11.6881485 134.83396912 C-13.22060417 132.07837735 -13.35062392 130.36118608 -13.36315918 127.21777344 C-13.37450897 126.1410437 -13.38585876 125.06431396 -13.39755249 123.95495605 C-13.39462189 122.77872681 -13.39169128 121.60249756 -13.38867188 120.390625 C-13.39714142 119.14800903 -13.40561096 117.90539307 -13.41433716 116.62512207 C-13.43372881 113.22006369 -13.43948428 109.81555328 -13.43758965 106.41047668 C-13.43746995 103.56741563 -13.44603362 100.72440588 -13.45436716 97.8813591 C-13.47359843 91.1747775 -13.47648571 84.46832037 -13.46972656 77.76171875 C-13.46308187 70.84280785 -13.48596733 63.92442954 -13.52304029 57.00562668 C-13.55372158 51.06410014 -13.56509919 45.12274509 -13.56120348 39.1811409 C-13.55913472 35.63292648 -13.56463415 32.08512672 -13.58909607 28.5369873 C-13.61546467 24.58173675 -13.60164717 20.62718612 -13.58398438 16.671875 C-13.59724762 15.49564575 -13.61051086 14.3194165 -13.62417603 13.10754395 C-13.54194794 5.2086244 -13.54194794 5.2086244 -10.66162109 1.80480957 C-7.09253615 0.11685566 -3.87193777 -0.04329677 0 0 Z " fill="#0A090A" transform="translate(12.96875,126.46875)"/>
<path d="M0 0 C1.30081009 -0.00426498 2.60162018 -0.00852997 3.94184875 -0.01292419 C5.36614993 -0.01257475 6.79045109 -0.01211326 8.2147522 -0.0115509 C9.72825706 -0.01454603 11.24176117 -0.01794938 12.75526428 -0.02172852 C16.85243494 -0.03053603 20.94958469 -0.03290524 25.0467639 -0.0335443 C27.60994018 -0.03425657 30.17311119 -0.03639423 32.73628616 -0.03904152 C41.6879332 -0.04828371 50.63956539 -0.05237776 59.59121704 -0.05158997 C67.92034101 -0.05098925 76.2494002 -0.06154267 84.57850778 -0.07733363 C91.74306459 -0.09043016 98.90760027 -0.09577299 106.07216895 -0.09513456 C110.34526896 -0.09488022 114.61831135 -0.09769588 118.89139938 -0.10831261 C122.9117163 -0.11802939 126.9319209 -0.11804834 130.9522419 -0.11079597 C132.42234652 -0.10975462 133.89245827 -0.11208617 135.36255074 -0.11815643 C147.31728315 -0.1642981 158.91338845 0.21392005 168.12734985 8.80558777 C177.67988817 19.46669227 177.62276504 31.6923761 177.4593811 45.19621277 C177.44932942 46.64868054 177.44020745 48.10115507 177.43203735 49.55363464 C177.41020128 53.08046959 177.37579259 56.60704697 177.3343811 60.13371277 C177.93766235 60.11050964 178.5409436 60.08730652 179.1625061 60.06340027 C179.96172485 60.04535339 180.7609436 60.02730652 181.5843811 60.00871277 C182.37328735 59.98550964 183.1621936 59.96230652 183.9750061 59.93840027 C186.6395387 60.15897416 188.1246328 60.63221713 190.3343811 62.13371277 C192.93047962 65.6168374 192.65713313 69.57874237 192.6703186 73.75090027 C192.6803038 74.85306381 192.6803038 74.85306381 192.69049072 75.97749329 C192.70059559 77.52905278 192.70530841 79.08065555 192.70498657 80.63224792 C192.70935417 82.99414986 192.74567682 85.35417313 192.78359985 87.71574402 C192.78946984 89.22745642 192.79343802 90.73917764 192.7953186 92.25090027 C192.80968964 92.95109283 192.82406067 93.6512854 192.83886719 94.37269592 C192.79177527 99.4799725 191.76443816 102.35867697 188.3343811 106.13371277 C185.21794414 107.03215302 182.17712649 106.93496719 178.95204163 106.88215637 C177.99110582 106.89010518 177.03017001 106.898054 176.04011494 106.90624368 C172.81135328 106.92553531 169.58433456 106.90183015 166.35562134 106.87834167 C164.04465072 106.88319615 161.73368429 106.89063347 159.42272949 106.90046692 C153.13968404 106.91931025 146.8572603 106.90041396 140.57426333 106.87380266 C134.00797832 106.85120836 127.44172469 106.85938591 120.87541199 106.86329651 C109.84837001 106.86614881 98.82156071 106.84302004 87.79458618 106.80607605 C76.44425029 106.76805859 65.09419994 106.75390306 53.74380493 106.76506042 C40.07114509 106.77846078 26.39867638 106.77189507 12.72603035 106.74685287 C7.50078043 106.73754678 2.27560808 106.73581925 -2.9496479 106.74002457 C-9.09829264 106.74378255 -15.24656934 106.72764335 -21.39513016 106.69590378 C-23.65627584 106.68739448 -25.91745878 106.68573277 -28.17861366 106.69128418 C-31.25623855 106.69769562 -34.33275248 106.67964897 -37.41026306 106.65510559 C-38.31316891 106.66266424 -39.21607475 106.67022289 -40.14634138 106.67801058 C-46.1411214 106.59295394 -46.1411214 106.59295394 -48.71783352 104.33682823 C-50.19244769 100.90910571 -50.13341292 97.49399395 -50.1343689 93.82511902 C-50.14578918 92.61951576 -50.14578918 92.61951576 -50.15744019 91.38955688 C-50.16822757 89.69257203 -50.17109981 87.99552085 -50.16659546 86.29850769 C-50.1656233 83.7079399 -50.20725104 81.12033725 -50.2515564 78.53019714 C-50.25676395 76.87851059 -50.25945158 75.22681378 -50.2593689 73.57511902 C-50.27576416 72.80414383 -50.29215942 72.03316864 -50.30905151 71.23883057 C-50.25874956 67.30632271 -49.80704881 65.32664434 -47.46054077 62.12565613 C-44.36523496 59.91962886 -43.08252199 59.5725859 -39.3531189 59.82121277 C-38.47011108 59.86632996 -37.58710327 59.91144714 -36.67733765 59.95793152 C-35.68153687 60.04494324 -35.68153687 60.04494324 -34.6656189 60.13371277 C-34.69703979 59.07571472 -34.72846069 58.01771667 -34.76083374 56.92765808 C-34.8706425 52.94701927 -34.93874642 48.96650978 -34.99520874 44.98478699 C-35.02511112 43.2719918 -35.06584975 41.55934608 -35.11825562 39.84709167 C-35.46527133 28.20505457 -35.11963814 18.33215353 -26.88973999 9.15299988 C-19.1640502 1.81300483 -10.41939431 0.01552278 0 0 Z " fill="#070607" transform="translate(214.66561889648438,366.8662872314453)"/>
<path d="M0 0 C2.55066685 1.36636455 5.05577659 2.80496847 7.5625 4.25 C9.15686404 5.14445671 10.75195864 6.03761204 12.34765625 6.9296875 C26.13753864 14.68944458 39.80755765 22.70152812 53.32275391 30.93066406 C54.21269043 31.47174805 55.10262695 32.01283203 56.01953125 32.5703125 C56.81979736 33.06031738 57.62006348 33.55032227 58.44458008 34.05517578 C60.63705033 35.38080336 60.63705033 35.38080336 63.5625 36.25 C63.5625 36.91 63.5625 37.57 63.5625 38.25 C64.13613281 38.36931885 64.70976562 38.4886377 65.30078125 38.61157227 C67.70547541 39.29035845 69.57836825 40.23440076 71.75 41.46484375 C72.53117188 41.90376953 73.31234375 42.34269531 74.1171875 42.79492188 C74.92414063 43.25447266 75.73109375 43.71402344 76.5625 44.1875 C78.16627318 45.09314508 79.77042698 45.99811654 81.375 46.90234375 C82.43654297 47.50550415 82.43654297 47.50550415 83.51953125 48.12084961 C85.50905337 49.22046001 87.52212933 50.24844164 89.5625 51.25 C89.5625 51.91 89.5625 52.57 89.5625 53.25 C90.078125 53.33636719 90.59375 53.42273437 91.125 53.51171875 C94.53832328 54.54556186 97.49020609 56.29175319 100.5625 58.0625 C101.17867187 58.40603516 101.79484375 58.74957031 102.4296875 59.10351562 C108.48458665 62.56624228 113.04642174 66.60268446 115.5625 73.25 C116.15270215 77.57282517 116.1193476 81.86084328 116.09594727 86.21850586 C116.10456284 87.51365616 116.11317841 88.80880646 116.12205505 90.14320374 C116.14447743 93.68053867 116.14162631 97.21742466 116.13273358 100.75480342 C116.12760807 103.71445713 116.13492891 106.67402764 116.14220566 109.63367277 C116.15918207 116.61905632 116.15566192 123.6042213 116.13891602 130.58959961 C116.12199676 137.78173033 116.13783109 144.973254 116.1701389 152.16531843 C116.19688047 158.35411392 116.20409855 164.54272096 116.19562382 170.7315684 C116.19070781 174.4218036 116.19283752 178.11167372 116.21341133 181.80186272 C116.23526852 185.91899065 116.21631861 190.03497632 116.19360352 194.15209961 C116.20529572 195.36533905 116.21698792 196.57857849 116.22903442 197.82858276 C116.13763022 205.97927025 114.64581202 211.07678163 108.91555119 216.93321133 C102.09022561 223.32097513 93.27411487 227.47552999 85.10546875 231.85546875 C83.34562032 232.82054692 81.61971226 233.84919399 79.92578125 234.92578125 C77.5625 236.25 77.5625 236.25 74.5625 236.25 C74.5625 236.91 74.5625 237.57 74.5625 238.25 C73.90765625 238.60191406 73.2528125 238.95382813 72.578125 239.31640625 C66.31806106 242.70285327 60.17588908 246.23238716 54.09375 249.9296875 C51.5625 251.25 51.5625 251.25 48.5625 251.25 C48.5625 251.91 48.5625 252.57 48.5625 253.25 C42.9375 256.25 42.9375 256.25 39.5625 256.25 C39.5625 256.91 39.5625 257.57 39.5625 258.25 C39.03245361 258.54277832 38.50240723 258.83555664 37.95629883 259.13720703 C32.0275445 262.4204486 26.132476 265.75965393 20.25 269.125 C19.33299316 269.64876221 18.41598633 270.17252441 17.47119141 270.7121582 C11.5327367 274.10833328 5.61962157 277.54206237 -0.2578125 281.04296875 C-6.43565283 284.46403087 -15.0269388 284.4867452 -21.75 282.6015625 C-23.76973289 281.61694271 -25.57489331 280.50772056 -27.4375 279.25 C-29.18634669 278.12320798 -30.93644868 276.99836294 -32.6875 275.875 C-33.62464844 275.2665625 -34.56179688 274.658125 -35.52734375 274.03125 C-38.37366908 272.28906967 -41.24209765 270.81687063 -44.25 269.375 C-49.62075269 266.77692457 -54.51370905 263.71427947 -59.48510742 260.44165039 C-63.69068589 257.6864747 -67.87996244 255.35997109 -72.4375 253.25 C-73.77271522 252.58711046 -75.10649967 251.9213124 -76.4375 251.25 C-76.4375 250.59 -76.4375 249.93 -76.4375 249.25 C-76.98277344 249.15074219 -77.52804687 249.05148437 -78.08984375 248.94921875 C-81.04593376 248.06878595 -83.35882917 246.65564299 -86 245.0625 C-89.90343484 242.74026307 -93.81470796 240.46834638 -97.8125 238.3125 C-102.81271179 235.61224007 -107.746473 232.8062961 -112.66748047 229.96508789 C-115.55192084 228.30461254 -118.43825302 226.69435481 -121.4375 225.25 C-121.4375 224.59 -121.4375 223.93 -121.4375 223.25 C-122.01113281 223.13398438 -122.58476562 223.01796875 -123.17578125 222.8984375 C-125.62754104 222.195515 -127.45971049 221.21561076 -129.625 219.875 C-130.66720703 219.24464844 -130.66720703 219.24464844 -131.73046875 218.6015625 C-133.4375 217.25 -133.4375 217.25 -134.4375 214.25 C-135.0975 214.25 -135.7575 214.25 -136.4375 214.25 C-140.75871284 207.23590405 -141.01024209 201.47919077 -140.95507812 193.3515625 C-140.9620874 192.07577332 -140.96909668 190.79998413 -140.97631836 189.48553467 C-140.99445948 186.00608674 -140.9875229 182.52711645 -140.97480202 179.04766083 C-140.96462617 175.39455442 -140.97408036 171.74148704 -140.98034668 168.08837891 C-140.98760983 161.95532949 -140.9780706 155.82247318 -140.95898438 149.68945312 C-140.93721801 142.61381618 -140.94427034 135.53864038 -140.96629 128.4630146 C-140.98448221 122.37186824 -140.98698374 116.28086014 -140.97653532 110.18969536 C-140.97032128 106.55878015 -140.96940671 102.92808121 -140.98268127 99.29718018 C-140.99645514 95.24732459 -140.97732812 91.19825538 -140.95507812 87.1484375 C-140.96317505 85.95547058 -140.97127197 84.76250366 -140.97961426 83.53338623 C-140.90957283 76.63993384 -140.07102985 72.14786432 -136.4375 66.25 C-135.7775 66.25 -135.1175 66.25 -134.4375 66.25 C-134.4375 65.59 -134.4375 64.93 -134.4375 64.25 C-133.7775 64.25 -133.1175 64.25 -132.4375 64.25 C-132.4375 63.59 -132.4375 62.93 -132.4375 62.25 C-130.05859375 60.6640625 -130.05859375 60.6640625 -126.875 58.875 C-125.2353125 57.94880859 -125.2353125 57.94880859 -123.5625 57.00390625 C-122.015625 56.13572266 -122.015625 56.13572266 -120.4375 55.25 C-119.08271113 54.43853791 -117.72839396 53.62628646 -116.375 52.8125 C-113.4375 51.25 -113.4375 51.25 -110.4375 51.25 C-110.4375 50.59 -110.4375 49.93 -110.4375 49.25 C-109.70144531 48.85167969 -108.96539062 48.45335937 -108.20703125 48.04296875 C-107.23121094 47.51316406 -106.25539063 46.98335937 -105.25 46.4375 C-103.80560547 45.65439453 -103.80560547 45.65439453 -102.33203125 44.85546875 C-100.44405426 43.80829123 -98.58423113 42.70814312 -96.76171875 41.55078125 C-94.4375 40.25 -94.4375 40.25 -91.4375 40.25 C-91.4375 39.59 -91.4375 38.93 -91.4375 38.25 C-90.78265625 37.89808594 -90.1278125 37.54617187 -89.453125 37.18359375 C-83.19306106 33.79714673 -77.05088908 30.26761284 -70.96875 26.5703125 C-68.4375 25.25 -68.4375 25.25 -65.4375 25.25 C-65.4375 24.59 -65.4375 23.93 -65.4375 23.25 C-64.49003906 22.73953125 -64.49003906 22.73953125 -63.5234375 22.21875 C-54.22880387 17.18304071 -45.02993272 11.98448739 -35.94140625 6.5859375 C-34.80276123 5.91062988 -34.80276123 5.91062988 -33.64111328 5.22167969 C-32.16224813 4.34283674 -30.68526506 3.46081673 -29.21044922 2.57519531 C-19.34572404 -3.28981092 -10.80632936 -5.28738258 0 0 Z M-20.96484375 15.84765625 C-24.6748353 18.15571708 -28.40004095 20.41067107 -32.1875 22.58984375 C-33.19466064 23.17016357 -34.20182129 23.7504834 -35.23950195 24.34838867 C-36.29484131 24.95529541 -37.35018066 25.56220215 -38.4375 26.1875 C-40.15531851 27.17683052 -41.87313606 28.16616272 -43.59089661 29.15559387 C-44.77066711 29.83506651 -45.95050761 30.51441764 -47.13041687 31.19364929 C-51.14738304 33.50611984 -55.16218389 35.8223101 -59.17578125 38.140625 C-61.367177 39.40626818 -63.55858314 40.67189337 -65.75 41.9375 C-66.82467529 42.55818359 -67.89935059 43.17886719 -69.0065918 43.81835938 C-75.01414336 47.28490429 -81.03261678 50.73121527 -87.06225586 54.15917969 C-94.6955922 58.49969068 -102.25140642 62.91062064 -109.6953125 67.5703125 C-112.94227326 69.5591916 -116.25887759 71.38117282 -119.6328125 73.14453125 C-121.64219673 74.37538782 -122.95298916 75.40961127 -124.4375 77.25 C-124.89462204 79.63898922 -124.89462204 79.63898922 -124.83190918 82.36056519 C-124.84325897 83.41764679 -124.85460876 84.47472839 -124.86630249 85.56384277 C-124.86337189 86.72339478 -124.86044128 87.88294678 -124.85742188 89.07763672 C-124.86589142 90.29899323 -124.87436096 91.52034973 -124.88308716 92.77871704 C-124.90249945 96.1301871 -124.90823265 99.4811008 -124.90633965 102.83258963 C-124.90622003 105.63077072 -124.91478064 108.42889958 -124.92311716 111.22706616 C-124.94236065 117.82963545 -124.94523198 124.43207831 -124.93847656 131.03466797 C-124.93183777 137.84391068 -124.95469073 144.65261141 -124.99179029 151.46174419 C-125.02249199 157.30899995 -125.03384677 163.15608143 -125.02995348 169.00341618 C-125.02788606 172.49522982 -125.0333628 175.98662195 -125.05784607 179.47835922 C-125.08425573 183.37364663 -125.07038155 187.26822516 -125.05273438 191.16357422 C-125.06599762 192.31907776 -125.07926086 193.4745813 -125.09292603 194.6651001 C-125.08771959 201.01723905 -125.08771959 201.01723905 -122.01696777 206.42445374 C-118.96627559 208.60136774 -118.96627559 208.60136774 -115.75 210.50390625 C-115.06220459 210.87708984 -114.37440918 211.25027344 -113.66577148 211.63476562 C-112.93044189 212.02341797 -112.1951123 212.41207031 -111.4375 212.8125 C-109.82351195 213.68749961 -108.21026058 214.5638591 -106.59765625 215.44140625 C-105.33332764 216.12614014 -105.33332764 216.12614014 -104.04345703 216.82470703 C-99.62168002 219.24313819 -95.24824042 221.74515813 -90.875 224.25 C-89.54251221 225.01207764 -89.54251221 225.01207764 -88.18310547 225.78955078 C-82.10464383 229.27394116 -76.06320163 232.81733846 -70.03540039 236.38842773 C-63.02565863 240.52490684 -55.92623628 244.49991312 -48.83154297 248.48828125 C-43.23401334 251.64350799 -37.68197839 254.85622478 -32.1875 258.1875 C-31.01713323 258.89226953 -29.84656925 259.5967117 -28.67578125 260.30078125 C-26.54445951 261.58368782 -24.41673959 262.87260045 -22.29296875 264.16796875 C-20.84857422 265.01294922 -20.84857422 265.01294922 -19.375 265.875 C-18.55902344 266.36226562 -17.74304688 266.84953125 -16.90234375 267.3515625 C-12.88667239 268.81527789 -9.5725545 267.76950372 -5.76293945 266.02587891 C-4.86792725 265.51460449 -3.97291504 265.00333008 -3.05078125 264.4765625 C-2.03967285 263.90462158 -1.02856445 263.33268066 0.01318359 262.7434082 C1.61540771 261.81854614 1.61540771 261.81854614 3.25 260.875 C4.36197754 260.24231201 5.47395508 259.60962402 6.61962891 258.95776367 C9.93969468 257.06504486 13.25212896 255.15961395 16.5625 253.25 C17.45888184 252.7348584 18.35526367 252.2197168 19.27880859 251.68896484 C23.95061702 249.0034789 28.61134464 246.29950627 33.26660156 243.58544922 C35.65108421 242.19847345 38.0397557 240.81896941 40.4296875 239.44140625 C49.02813222 234.48333535 57.58689016 229.47306094 66.0703125 224.3203125 C69.39750397 222.32370888 72.78395234 220.44256612 76.18017578 218.56640625 C80.2813563 216.30020771 84.36430309 214.00356859 88.4375 211.6875 C89.69820313 210.98463867 89.69820313 210.98463867 90.984375 210.26757812 C92.19480469 209.57631836 92.19480469 209.57631836 93.4296875 208.87109375 C94.15269043 208.4630249 94.87569336 208.05495605 95.62060547 207.63452148 C97.8763169 206.02625652 99.08797885 204.599143 100.5625 202.25 C101.0154895 199.79166643 101.0154895 199.79166643 100.95690918 197.09510803 C100.97393387 195.53266609 100.97393387 195.53266609 100.99130249 193.93865967 C100.98837189 192.80140442 100.98544128 191.66414917 100.98242188 190.49243164 C100.99089142 189.29043625 100.99936096 188.08844086 101.00808716 186.85002136 C101.02747728 183.55645652 101.03323432 180.26345826 101.03133965 176.96987462 C101.03121991 174.21886426 101.03978512 171.46790687 101.04811716 168.71691126 C101.0673484 162.22603312 101.07023605 155.73528359 101.06347656 149.24438477 C101.05683499 142.5515652 101.07970472 135.85929665 101.11679029 129.16658884 C101.14749217 123.41697612 101.15884686 117.66754062 101.15495348 111.91784757 C101.1528865 108.48529075 101.15835634 105.05316276 101.18284607 101.62068367 C101.20925679 97.79255724 101.19538148 93.96515206 101.17773438 90.13696289 C101.19099762 89.00173187 101.20426086 87.86650085 101.21792603 86.6968689 C101.20175809 80.43773613 101.20175809 80.43773613 98.1763916 75.10203552 C95.68737225 73.33847645 93.28519979 71.81130127 90.5625 70.4375 C86.28048676 68.19865168 82.16043467 65.81120917 78.0625 63.25 C73.41320443 60.36048453 68.72011448 57.65789868 63.8984375 55.0703125 C52.20160342 48.68773091 40.67407911 42.00976306 29.3671875 34.9609375 C25.95323235 32.87832976 22.46171076 30.98172005 18.9375 29.09375 C14.11085246 26.45697033 9.33795918 23.72814239 4.5625 21 C3.62921875 20.46793945 2.6959375 19.93587891 1.734375 19.38769531 C0.85265625 18.88334961 -0.0290625 18.37900391 -0.9375 17.859375 C-1.7315625 17.40530273 -2.525625 16.95123047 -3.34375 16.48339844 C-5.07655209 15.4626293 -6.76415341 14.36556439 -8.4375 13.25 C-13.69518305 12.51207957 -16.48630816 13.00049663 -20.96484375 15.84765625 Z " fill="#0D0C0A" transform="translate(365.4375,9.75)"/>
<path d="M0 0 C37.29 0 74.58 0 113 0 C113 25.08 113 50.16 113 76 C75.71 76 38.42 76 0 76 C0 50.92 0 25.84 0 0 Z " fill="#B4795A" transform="translate(45,157)"/>
<path d="M0 0 C0.64212002 -0.00367669 1.28424004 -0.00735338 1.94581825 -0.01114148 C4.10132282 -0.02217017 6.25677918 -0.02602078 8.41230774 -0.02983093 C9.95640211 -0.03609627 11.50049497 -0.04274313 13.04458618 -0.04974365 C18.11937918 -0.07078042 23.19417246 -0.08114657 28.26899719 -0.09111023 C30.01688465 -0.09515811 31.76477194 -0.09927504 33.51265907 -0.10346031 C41.72566553 -0.12251217 49.93866301 -0.13674247 58.15168732 -0.14507228 C67.62685764 -0.15484116 77.10179413 -0.18115153 86.57688206 -0.22157317 C93.90354823 -0.2517548 101.23014746 -0.26654315 108.55687457 -0.26985329 C112.9312479 -0.27220171 117.30537142 -0.28113469 121.67967796 -0.30631447 C125.79769652 -0.32963573 129.91530153 -0.33381228 134.03336906 -0.32355309 C135.54099149 -0.32305857 137.04863455 -0.32935404 138.55619431 -0.34310913 C154.88851085 -0.48373282 154.88851085 -0.48373282 159.69477844 4.14717102 C163.69477844 11.14717102 163.69477844 11.14717102 163.69477844 45.14717102 C103.96477844 45.14717102 44.23477844 45.14717102 -17.30522156 45.14717102 C-17.30522156 9.59717102 -17.30522156 9.59717102 -11.80522156 3.27217102 C-7.9214102 -0.02906864 -4.93562855 0.01830946 0 0 Z " fill="#B57A5B" transform="translate(212.3052215576172,382.8528289794922)"/>
<path d="M0 0 C3.01463198 3.1694967 3.37493267 5.4247614 3.3742218 9.7310791 C3.38474327 11.48500725 3.38474327 11.48500725 3.39547729 13.27436829 C3.38783356 14.55345566 3.38018982 15.83254303 3.37231445 17.15039062 C3.374743 18.5139341 3.37846292 19.87747579 3.38337708 21.24101257 C3.39278126 24.94143463 3.38336476 28.64159196 3.37004495 32.34199333 C3.35872699 36.21452752 3.36283822 40.08704875 3.36479187 43.95959473 C3.36567474 50.46285323 3.35459601 56.96600747 3.33618164 63.46923828 C3.3150141 70.98782595 3.31150418 78.50626088 3.3177436 86.0248723 C3.32343847 93.2575841 3.31779015 100.49024212 3.30657005 107.72294617 C3.30192569 110.80101008 3.30104951 113.87904108 3.3031559 116.95710754 C3.30503968 120.5817827 3.29692806 124.20630243 3.2810955 127.83094215 C3.2748297 129.79582872 3.2783598 131.76073885 3.28216553 133.72563171 C3.27153831 135.47955986 3.27153831 135.47955986 3.26069641 137.2689209 C3.25864354 138.28507225 3.25659067 139.3012236 3.25447559 140.34816742 C2.98946351 143.10979836 2.52591268 144.69810524 1 147 C-2.48868651 149.32579101 -3.89718519 149.41865457 -8 149 C-12.18933103 146.70396829 -13.21089552 143.71592081 -14.83984375 139.34765625 C-15.08867813 138.69228378 -15.33751251 138.03691132 -15.59388733 137.36167908 C-16.38688428 135.26616875 -17.16269081 133.16479468 -17.9375 131.0625 C-18.70930062 129.00186257 -19.48463981 126.94258324 -20.26045227 124.88345337 C-20.77358804 123.52127846 -21.28545061 122.15862329 -21.79606628 120.79550171 C-23.64448825 115.87856597 -25.62657268 111.02989022 -27.67163086 106.19116211 C-30.49022637 99.42000573 -33.13366225 92.57736204 -35.8125 85.75 C-36.41590406 84.21479989 -37.01941898 82.67964336 -37.62304688 81.14453125 C-39.08330652 77.43018726 -40.5420762 73.71526143 -42 70 C-42.00364563 70.74280212 -42.00729126 71.48560425 -42.01104736 72.25091553 C-42.04893096 79.25482986 -42.10578713 86.25827399 -42.18390274 93.26183701 C-42.22339452 96.86240193 -42.25557421 100.4627217 -42.27099609 104.06347656 C-42.28615218 107.5391659 -42.3205771 111.01418133 -42.36830902 114.48957062 C-42.39034372 116.4592312 -42.39247465 118.4290818 -42.39434814 120.39886475 C-42.42392609 122.20027924 -42.42392609 122.20027924 -42.45410156 124.03808594 C-42.46298401 125.09509705 -42.47186646 126.15210815 -42.48101807 127.2411499 C-43.12945998 130.6881948 -44.2553804 131.87714191 -47 134 C-49.9375 134.5625 -49.9375 134.5625 -53 134 C-55.79639029 131.9831281 -57.69787656 130.37275081 -58.46066475 126.90688896 C-58.64516968 124.2729562 -58.6639845 121.68106342 -58.63110352 119.04077148 C-58.63825882 118.04184875 -58.64541412 117.04292603 -58.65278625 116.01373291 C-58.66967895 112.7157197 -58.65026772 109.41906453 -58.62890625 106.12109375 C-58.62973482 103.82853584 -58.63219377 101.53597799 -58.63621521 99.24342346 C-58.63907353 94.44082743 -58.62436678 89.63869769 -58.59692383 84.83618164 C-58.56282238 78.67654408 -58.56886565 72.51773935 -58.5875864 66.35806179 C-58.59814782 61.62515811 -58.58922658 56.89244868 -58.57420158 52.15956306 C-58.56901434 49.88813923 -58.56950812 47.61669516 -58.57574654 45.34527397 C-58.58118894 42.17301575 -58.56085445 39.00195573 -58.53344727 35.82983398 C-58.53997314 34.88894424 -58.54649902 33.9480545 -58.55322266 32.97865295 C-58.46020834 26.6561087 -58.46020834 26.6561087 -56.18540955 23.41297913 C-52.98682266 21.34492899 -50.7254337 21.53432079 -47 22 C-43.60865997 24.01623757 -42.34435232 25.81856305 -41.03515625 29.5 C-40.54692383 30.83224609 -40.54692383 30.83224609 -40.04882812 32.19140625 C-39.5605957 33.58166016 -39.5605957 33.58166016 -39.0625 35 C-37.0894961 40.49594273 -35.09244667 45.9147377 -32.625 51.2109375 C-29.37796889 58.21104669 -26.67996887 65.41730648 -23.9375 72.625 C-23.15797967 74.67036029 -22.37737207 76.71527954 -21.59388733 78.75912476 C-20.8854818 80.60748447 -20.18077224 82.45725951 -19.47631836 84.30712891 C-18.34020429 87.14901106 -17.15565789 89.93814118 -15.9077301 92.73080444 C-15.54980157 93.53279455 -15.19187304 94.33478466 -14.82309818 95.1610775 C-14.55147578 95.76792192 -14.27985338 96.37476635 -14 97 C-13.99413376 95.85852005 -13.98826752 94.7170401 -13.98222351 93.54096985 C-13.92501669 82.78488673 -13.85226562 72.02900618 -13.76428509 61.27312946 C-13.71955292 55.74338042 -13.68030295 50.21370554 -13.65356445 44.68383789 C-13.62756006 39.34744847 -13.58717767 34.01134402 -13.53681374 28.67513084 C-13.52012569 26.63901501 -13.5086235 24.60284986 -13.50238609 22.56667519 C-13.49276621 19.71512588 -13.46473191 16.86430879 -13.43237305 14.01293945 C-13.43380814 13.17064789 -13.43524323 12.32835632 -13.4367218 11.46054077 C-13.36243228 6.83319884 -13.00360851 3.75774441 -10 0 C-6.82503506 -1.58748247 -3.30053472 -1.07839253 0 0 Z " fill="#0A0804" transform="translate(317,80)"/>
<path d="M0 0 C7.59 0 15.18 0 23 0 C23 69.3 23 138.6 23 210 C15.41 210 7.82 210 0 210 C0 140.7 0 71.4 0 0 Z " fill="#B3785B" transform="translate(90,248)"/>
<path d="M0 0 C2.52832099 1.30436348 4.90261165 2.76229847 7.30078125 4.29296875 C9.94137493 5.96292452 12.62116166 7.46322291 15.375 8.9375 C19.45868065 11.15119279 23.52459885 13.39115478 27.5625 15.6875 C28.55378906 16.24824219 29.54507813 16.80898437 30.56640625 17.38671875 C33 19 33 19 35 22 C34.78206897 28.10206897 34.78206897 28.10206897 32.3125 30.9375 C29.29886861 32.32214145 27.30495089 32.26938164 24 32 C21.17578125 30.6796875 21.17578125 30.6796875 18.3125 28.875 C13.41125359 25.85978739 8.45935364 23.05287187 3.375 20.359375 C1 19 1 19 -3 16 C-3 42.73 -3 69.46 -3 97 C6.57 97 16.14 97 26 97 C31 102 31 102 31.375 105.1875 C31 108 31 108 30 110 C29.34 110 28.68 110 28 110 C28 110.66 28 111.32 28 112 C17.77 112 7.54 112 -3 112 C-2.97381592 114.49336914 -2.94763184 116.98673828 -2.9206543 119.55566406 C-2.83784005 127.78977455 -2.78259027 136.02390335 -2.74093914 144.25831985 C-2.71483505 149.25137594 -2.67942213 154.2440057 -2.62280273 159.23681641 C-2.56851198 164.05438176 -2.53858558 168.87153683 -2.52561378 173.68938446 C-2.51636861 175.52826142 -2.49831481 177.36711569 -2.47134972 179.20581818 C-2.43509747 181.77995989 -2.4300529 184.35240228 -2.43237305 186.92675781 C-2.40540848 188.0693531 -2.40540848 188.0693531 -2.37789917 189.23503113 C-2.41537901 193.07321374 -2.67150259 194.6590495 -5.37922668 197.46942139 C-8.37105354 199.21670192 -9.61552502 199.76150687 -13 199 C-16.40961752 196.3146977 -17.84939527 194.83547194 -18.6292057 190.50951385 C-18.65656336 189.1429676 -18.65663658 187.77570513 -18.63491821 186.40905762 C-18.64271817 185.65285614 -18.65051812 184.89665465 -18.65855443 184.11753798 C-18.67847325 181.58762635 -18.6627115 179.05921923 -18.64697266 176.52929688 C-18.65374887 174.71402611 -18.66265202 172.89876222 -18.67352295 171.08351135 C-18.69632249 166.15577156 -18.68747722 161.22855502 -18.67162752 156.30080605 C-18.65897196 151.14481823 -18.67070768 145.98887531 -18.67855835 140.83288574 C-18.6876559 132.17415317 -18.67566418 123.5156338 -18.65185547 114.85693359 C-18.62464404 104.84509873 -18.63345812 94.83377296 -18.6609875 84.82195044 C-18.6836745 76.22731845 -18.68688063 67.63283976 -18.67379415 59.0381875 C-18.66599741 53.90439668 -18.66496423 48.77084517 -18.68147659 43.6370697 C-18.6959161 38.81058347 -18.6859091 33.98475382 -18.65700531 29.15833855 C-18.65039172 27.38663257 -18.65229685 25.61487137 -18.66331863 23.84318733 C-18.67697568 21.42502552 -18.65985932 19.0089698 -18.63491821 16.59094238 C-18.64607182 15.88909175 -18.65722543 15.18724113 -18.66871703 14.4641223 C-18.5915274 10.60841167 -18.08986102 9.10699094 -15.57335472 6.11077118 C-10.84789961 2.23475891 -6.39248418 -1.25342827 0 0 Z " fill="#080703" transform="translate(356,49)"/>
<path d="M0 0 C69.63 0 139.26 0 211 0 C211 4.95 211 9.9 211 15 C141.37 15 71.74 15 0 15 C0 10.05 0 5.1 0 0 Z " fill="#435052" transform="translate(180,443)"/>
<path d="M0 0 C3.37995484 1.62919504 6.5870403 3.52379779 9.8125 5.4375 C10.73015137 5.9730249 11.64780273 6.5085498 12.59326172 7.06030273 C14.47902162 8.16225802 16.36248689 9.26814934 18.24365234 10.37792969 C20.83788533 11.90459788 23.44182301 13.41273456 26.05078125 14.9140625 C27.57577501 15.79643585 29.10052818 16.6792252 30.625 17.5625 C31.32858643 17.96718506 32.03217285 18.37187012 32.75708008 18.78881836 C38.76412337 22.30428277 38.76412337 22.30428277 41 25 C41.63074205 30.8869258 41.63074205 30.8869258 39.9375 33.875 C36.72354058 35.74116998 34.76405847 36.05974696 31 36 C28.25118442 34.66938973 25.77321063 33.14049778 23.234375 31.4453125 C20.97822025 29.85399696 20.97822025 29.85399696 18 29 C18.01110306 30.30656555 18.02220612 31.6131311 18.03364563 32.95928955 C18.13491794 45.26066425 18.20991582 57.56195459 18.25906086 69.86365128 C18.28517613 76.18841143 18.32061049 82.51283559 18.37719727 88.83740234 C18.43144656 94.93876201 18.46140598 101.03979812 18.47438622 107.14138031 C18.48363871 109.47147467 18.50170635 111.80155093 18.52865028 114.13150787 C18.56484515 117.3904728 18.56994917 120.64809362 18.56762695 123.90722656 C18.58560333 124.874673 18.60357971 125.84211945 18.62210083 126.83888245 C18.57156991 133.37447446 18.57156991 133.37447446 15.62467957 136.59954834 C12.67505434 138.17338143 11.27696384 138.67219771 8 138 C5.75567018 136.12972515 4.30556798 134.61113596 3 132 C2.8960467 130.49251731 2.85350791 128.98059113 2.84178162 127.46957397 C2.8319928 126.51602524 2.82220398 125.5624765 2.81211853 124.58003235 C2.80636307 123.53058945 2.8006076 122.48114655 2.79467773 121.39990234 C2.78477814 120.29745682 2.77487854 119.19501129 2.76467896 118.05915833 C2.73299617 114.40144018 2.70827973 110.74370902 2.68359375 107.0859375 C2.66303008 104.55530452 2.64203377 102.02467501 2.62062073 99.49404907 C2.57099511 93.50529782 2.52574554 87.51652884 2.48259836 81.52772868 C2.43323882 74.71036789 2.37831595 67.89305551 2.32291877 61.07574153 C2.20907565 47.05053952 2.10224169 33.02529104 2 19 C1.24074219 18.61328125 0.48148437 18.2265625 -0.30078125 17.828125 C-1.29464844 17.30734375 -2.28851563 16.7865625 -3.3125 16.25 C-4.29863281 15.73953125 -5.28476562 15.2290625 -6.30078125 14.703125 C-9.00118401 12.99925293 -10.43504266 11.76137524 -12 9 C-12 5.4375 -12 5.4375 -11 2 C-7.23310066 -1.44402225 -4.76929091 -1.25193886 0 0 Z " fill="#090803" transform="translate(410,80)"/>
<path d="M0 0 C4.95 0 9.9 0 15 0 C15 34.65 15 69.3 15 105 C10.05 105 5.1 105 0 105 C0 70.35 0 35.7 0 0 Z " fill="#435052" transform="translate(173,143)"/>
<path d="M0 0 C4.95 0 9.9 0 15 0 C15 34.65 15 69.3 15 105 C10.05 105 5.1 105 0 105 C0 70.35 0 35.7 0 0 Z " fill="#434F52" transform="translate(15,143)"/>
<path d="M0 0 C36.63 0 73.26 0 111 0 C110.67 0.66 110.34 1.32 110 2 C109.44947244 1.99907821 108.89894487 1.99815641 108.33173466 1.99720669 C94.95402992 1.9751501 81.57632836 1.95865155 68.19860935 1.94818783 C61.7293232 1.94295832 55.26005011 1.93585944 48.79077148 1.92456055 C42.553297 1.91373408 36.31583513 1.90772368 30.07835197 1.90512276 C27.69279723 1.90326807 25.30724321 1.89964664 22.9216938 1.89426994 C19.59304409 1.88706271 16.26444721 1.88600892 12.93579102 1.88647461 C11.93885727 1.88287933 10.94192352 1.87928406 9.91477966 1.87557983 C9.01309052 1.8769545 8.11140137 1.87832916 7.18238831 1.87974548 C6.0001888 1.87836279 6.0001888 1.87836279 4.79410648 1.87695217 C2.97678432 1.80419345 2.97678432 1.80419345 2 3 C1.87598086 5.17731389 1.8219849 7.35863454 1.79467773 9.53930664 C1.78464501 10.23328017 1.77461229 10.9272537 1.76427555 11.64225674 C1.73278618 13.8981888 1.70807668 16.15413837 1.68359375 18.41015625 C1.66519991 19.79911893 1.64636376 21.18807582 1.6270752 22.57702637 C1.55851297 27.73878237 1.49853366 32.90064949 1.4375 38.0625 C1.293125 49.591875 1.14875 61.12125 1 73 C37.3 73 73.6 73 111 73 C111 73.33 111 73.66 111 74 C74.37 74 37.74 74 0 74 C0 49.58 0 25.16 0 0 Z " fill="#AF7D65" transform="translate(46,158)"/>
<path d="M0 0 C0.66 0 1.32 0 2 0 C2 3.3 2 6.6 2 10 C1.01 10.33 0.02 10.66 -1 11 C-1 11.66 -1 12.32 -1 13 C-11.19321395 13.53440151 -11.19321395 13.53440151 -16 10 C-17.32339191 9.62915941 -18.65646906 9.28950562 -20 9 C-19.98747192 10.1835054 -19.97494385 11.3670108 -19.96203613 12.58638 C-19.84414209 23.72556799 -19.72641369 34.86475771 -19.60884857 46.00394917 C-19.54839813 51.73106791 -19.48788879 57.45818602 -19.42724609 63.18530273 C-19.36875356 68.70955958 -19.31041412 74.23381802 -19.25218201 79.75807762 C-19.22990908 81.86845139 -19.20758046 83.97882457 -19.18519592 86.08919716 C-19.15391663 89.03903682 -19.12283317 91.98887848 -19.09179688 94.9387207 C-19.08244614 95.81625504 -19.0730954 96.69378937 -19.0634613 97.59791565 C-18.965718 106.931436 -18.965718 106.931436 -20 109 C-20.66 109 -21.32 109 -22 109 C-22 74.68 -22 40.36 -22 5 C-18.43719515 5.89070121 -16.68392502 6.7196356 -13.6875 8.625 C-10.2833356 10.57424925 -9.14085332 11.00223577 -5.0625 10.9375 C-1.9266945 10.23946465 -1.9266945 10.23946465 0 8 C0.24212873 6.01871492 0.24212873 6.01871492 0.125 3.875 C0.08375 2.59625 0.0425 1.3175 0 0 Z " fill="#C1B85F" transform="translate(450,104)"/>
<path d="M0 0 C1.98 0.99 1.98 0.99 4 2 C4 6 4 6 3 8 C2.90797878 10.24664431 2.88250195 12.49610433 2.88647461 14.74462891 C2.88632858 15.43742447 2.88618256 16.13022003 2.8860321 16.8440094 C2.88672982 19.13822541 2.89451558 21.43236064 2.90234375 23.7265625 C2.90420843 25.31554113 2.9056321 26.90452034 2.90663147 28.49349976 C2.91045269 32.67909325 2.92027961 36.86465213 2.93133545 41.05023193 C2.94155806 45.31994153 2.94613091 49.5896567 2.95117188 53.859375 C2.96190222 62.23959923 2.97897392 70.61979531 3 79 C3.82725586 79.0093457 4.65451172 79.01869141 5.50683594 79.02832031 C9.25516415 79.08200319 13.00224162 79.1656571 16.75 79.25 C18.70292969 79.27126953 18.70292969 79.27126953 20.6953125 79.29296875 C21.94570313 79.32519531 23.19609375 79.35742188 24.484375 79.390625 C25.63647461 79.41157227 26.78857422 79.43251953 27.97558594 79.45410156 C31.61544555 80.11108623 32.81172089 81.06003196 35 84 C35.39387788 86.32387947 35.73486085 88.65793749 36 91 C36.99 91.495 36.99 91.495 38 92 C35.525 92.99 35.525 92.99 33 94 C33 90.7 33 87.4 33 84 C23.12072877 79.06036439 11.03880007 81.38064828 0 81 C0 54.27 0 27.54 0 0 Z " fill="#D5CB73" transform="translate(353,65)"/>
<path d="M0 0 C-2 2 -2 2 -4.88916016 2.22705078 C-6.09362793 2.21657715 -7.2980957 2.20610352 -8.5390625 2.1953125 C-10.49199219 2.18564453 -10.49199219 2.18564453 -12.484375 2.17578125 C-13.86458595 2.15906929 -15.24479429 2.14213939 -16.625 2.125 C-18.01301452 2.11497006 -19.40103589 2.10584423 -20.7890625 2.09765625 C-24.19288026 2.07401863 -27.59635506 2.04106867 -31 2 C-30.98525131 2.99780487 -30.97050262 3.99560974 -30.95530701 5.02365112 C-30.8172057 14.41185956 -30.68447136 23.80013045 -30.5570364 33.18848991 C-30.49134197 38.01551478 -30.4237349 42.84249728 -30.35180664 47.66943359 C-30.28250461 52.32479672 -30.21816147 56.98020404 -30.15730476 61.63568497 C-30.13316747 63.41477079 -30.10722165 65.193833 -30.07946587 66.97286606 C-30.04099382 69.45827285 -30.00886381 71.94368473 -29.97827148 74.42919922 C-29.96532547 75.17006775 -29.95237946 75.91093628 -29.93904114 76.67425537 C-29.88594784 81.77189568 -29.88594784 81.77189568 -31 84 C-31.99 83.67 -32.98 83.34 -34 83 C-33.67 55.61 -33.34 28.22 -33 0 C-2 -1 -2 -1 0 0 Z " fill="#D5CA73" transform="translate(386,161)"/>
<path d="M0 0 C3.56842186 1.78421093 4.25230765 6.16760776 5.625 9.75 C5.94984375 10.56210938 6.2746875 11.37421875 6.609375 12.2109375 C9.48085529 19.61887404 9.48085529 19.61887404 9 24 C8.34 23.67 7.68 23.34 7 23 C6.01 23.33 5.02 23.66 4 24 C3.34 22.68 2.68 21.36 2 20 C1.67 34.19 1.34 48.38 1 63 C0.01 62.67 -0.98 62.34 -2 62 C-1.505 61.505 -1.505 61.505 -1 61 C-0.87649342 59.09839888 -0.82206557 57.1922761 -0.79467773 55.28686523 C-0.77473251 54.0656749 -0.75478729 52.84448456 -0.73423767 51.58628845 C-0.71725209 50.24372487 -0.70037333 48.90115993 -0.68359375 47.55859375 C-0.66303053 46.19238139 -0.64203423 44.82617549 -0.62062073 43.4599762 C-0.56533465 39.85805476 -0.51595437 36.25607529 -0.46777344 32.65405273 C-0.41760597 28.98090428 -0.36189515 25.30784045 -0.30664062 21.63476562 C-0.19897918 14.42324868 -0.09755213 7.21166153 0 0 Z " fill="#F1E274" transform="translate(274,149)"/>
<path d="M0 0 C0.66 0.33 1.32 0.66 2 1 C2 48.19 2 95.38 2 144 C1.01 144.33 0.02 144.66 -1 145 C-0.75622037 144.190487 -0.75622037 144.190487 -0.50751591 143.36462021 C0.09165686 140.57295199 0.12279612 138.02283702 0.12025452 135.16607666 C0.12162918 133.97418228 0.12300385 132.7822879 0.12442017 131.55427551 C0.12082489 130.25020248 0.11722961 128.94612946 0.11352539 127.60253906 C0.11324326 126.21280418 0.11340176 124.82306915 0.1139679 123.43333435 C0.11425486 119.66301724 0.10837442 115.89273194 0.10139394 112.12242222 C0.09514362 108.18128686 0.09455527 104.24015078 0.09336853 100.29901123 C0.09026017 92.8369931 0.08205344 85.37498961 0.07201904 77.91297793 C0.06084254 69.417281 0.05534358 60.92158337 0.05032361 52.42588091 C0.03987043 34.9505788 0.02228056 17.47529095 0 0 Z " fill="#F3E381" transform="translate(319,82)"/>
<path d="M0 0 C2.4375 0.375 2.4375 0.375 5 1 C5.33 1.66 5.66 2.32 6 3 C4.2984375 3.680625 4.2984375 3.680625 2.5625 4.375 C-1.04721692 5.57095806 -1.04721692 5.57095806 -2 8 C-2.10315226 9.3680719 -2.14642068 10.74091899 -2.15821838 12.11282349 C-2.17290161 13.40431305 -2.17290161 13.40431305 -2.18788147 14.72189331 C-2.19363693 15.66847809 -2.1993924 16.61506287 -2.20532227 17.59033203 C-2.21522186 18.58548828 -2.22512146 19.58064453 -2.23532104 20.60595703 C-2.26699494 23.90655104 -2.29171675 27.20715945 -2.31640625 30.5078125 C-2.33697069 32.79182314 -2.35796702 35.07582992 -2.37937927 37.35983276 C-2.4346526 43.38007495 -2.48403865 49.40035178 -2.53222656 55.4206543 C-2.58240322 61.56041559 -2.63810928 67.70012639 -2.69335938 73.83984375 C-2.80100528 85.89318606 -2.90243593 97.94657216 -3 110 C-3.33 110 -3.66 110 -4 110 C-4.02314093 96.62228353 -4.04092406 83.2445718 -4.05181217 69.86683941 C-4.05703715 63.6554411 -4.06412786 57.44405646 -4.07543945 51.23266602 C-4.08628195 45.24156878 -4.09227975 39.25048472 -4.09487724 33.25937843 C-4.09672902 30.97037359 -4.10034493 28.68136948 -4.10573006 26.39237022 C-4.11295851 23.1934489 -4.11399017 19.99458243 -4.11352539 16.7956543 C-4.11712067 15.84331406 -4.12071594 14.89097382 -4.12442017 13.90977478 C-4.1230455 13.03899292 -4.12167084 12.16821106 -4.12025452 11.27104187 C-4.12117631 10.51424983 -4.1220981 9.75745779 -4.12304783 8.97773266 C-4 7 -4 7 -3 4 C-2.01 4 -1.02 4 0 4 C0 2.68 0 1.36 0 0 Z " fill="#F0E594" transform="translate(262,98)"/>
<path d="M0 0 C0.66 0.33 1.32 0.66 2 1 C2.73075648 3.3140622 3.40138258 5.64828869 4 8 C3.34 8 2.68 8 2 8 C1.67 26.15 1.34 44.3 1 63 C0.01 62.67 -0.98 62.34 -2 62 C-1.505 61.505 -1.505 61.505 -1 61 C-0.87649342 59.09839888 -0.82206557 57.1922761 -0.79467773 55.28686523 C-0.77473251 54.0656749 -0.75478729 52.84448456 -0.73423767 51.58628845 C-0.71725209 50.24372487 -0.70037333 48.90115993 -0.68359375 47.55859375 C-0.66303053 46.19238139 -0.64203423 44.82617549 -0.62062073 43.4599762 C-0.56533465 39.85805476 -0.51595437 36.25607529 -0.46777344 32.65405273 C-0.41760597 28.98090428 -0.36189515 25.30784045 -0.30664062 21.63476562 C-0.19897918 14.42324868 -0.09755213 7.21166153 0 0 Z " fill="#C9BE6F" transform="translate(274,149)"/>
<path d="M0 0 C-3.10543571 3.41597928 -6.34334803 5.58052484 -10.375 7.8125 C-11.47585938 8.43769531 -12.57671875 9.06289063 -13.7109375 9.70703125 C-17.38492199 11.15131731 -19.24120568 11.01635073 -23 10 C-23 9.34 -23 8.68 -23 8 C-20.36 8 -17.72 8 -15 8 C-15 7.34 -15 6.68 -15 6 C-13.02 5.67 -11.04 5.34 -9 5 C-8.9175 4.38125 -8.835 3.7625 -8.75 3.125 C-8 1 -8 1 -6.1875 -0.3125 C-3.67700322 -1.10151327 -2.44507934 -0.87324262 0 0 Z " fill="#EFE07B" transform="translate(372,267)"/>
<path d="M0 0 C0.66 0.33 1.32 0.66 2 1 C1.67 1.99 1.34 2.98 1 4 C-0.62300433 4.71006439 -2.25201102 5.4090698 -3.90625 6.04296875 C-6.33397217 7.15265519 -8.33254176 8.56992294 -10.5 10.125 C-14.44940215 12.86180698 -17.22455865 13.79678973 -22 14 C-18.4301466 10.13094129 -13.9559513 7.86155131 -9.4375 5.25 C-8.12362305 4.47076172 -8.12362305 4.47076172 -6.78320312 3.67578125 C-5.94595703 3.18980469 -5.10871094 2.70382813 -4.24609375 2.203125 C-3.47966553 1.75614258 -2.7132373 1.30916016 -1.92358398 0.84863281 C-1.28880127 0.56858398 -0.65401855 0.28853516 0 0 Z " fill="#E3D576" transform="translate(320,40)"/>
<path d="M0 0 C4 4.75 4 4.75 4 7 C9.01131486 8.20307039 9.01131486 8.20307039 13.8671875 7.17578125 C15.69222868 5.96781292 15.69222868 5.96781292 18 4 C17.67842796 6.97454134 17.37860258 8.59335278 15.3125 10.8125 C12.39975854 12.3082321 10.23000416 12.22022756 7 12 C6.67 11.34 6.34 10.68 6 10 C5.01 9.67 4.02 9.34 3 9 C3 8.34 3 7.68 3 7 C1.68 6.67 0.36 6.34 -1 6 C-0.67 4.02 -0.34 2.04 0 0 Z " fill="#EEE376" transform="translate(411,209)"/>
<path d="M0 0 C4.19915307 -0.09907258 8.39768252 -0.17156173 12.59765625 -0.21972656 C14.02551121 -0.23980982 15.45328425 -0.26708252 16.88085938 -0.30175781 C18.93640368 -0.35042669 20.99085855 -0.37299967 23.046875 -0.390625 C24.28276367 -0.41157227 25.51865234 -0.43251953 26.79199219 -0.45410156 C30 0 30 0 32.39550781 1.79394531 C34.5438453 4.74774592 34.59488892 7.42151883 35 11 C35.66 11.33 36.32 11.66 37 12 C35.35 12.66 33.7 13.32 32 14 C32 10.7 32 7.4 32 4 C27.90592366 1.95296183 25.95440419 1.70784739 21.484375 1.5859375 C20.23398437 1.54726562 18.98359375 1.50859375 17.6953125 1.46875 C16.39335937 1.4378125 15.09140625 1.406875 13.75 1.375 C12.43257813 1.33632812 11.11515625 1.29765625 9.7578125 1.2578125 C6.50534839 1.16353818 3.25289004 1.0779325 0 1 C0 0.67 0 0.34 0 0 Z " fill="#EDE184" transform="translate(354,145)"/>
<path d="M0 0 C0 0.66 0 1.32 0 2 C0.66 2 1.32 2 2 2 C1.731875 2.556875 1.46375 3.11375 1.1875 3.6875 C1.125625 4.450625 1.06375 5.21375 1 6 C3.35426499 8.77122275 3.35426499 8.77122275 6 11 C1.02790438 9.23570801 -3.43438061 6.6060834 -8 4 C-6.27302455 0.54604909 -3.70696841 0 0 0 Z " fill="#ECDD72" transform="translate(317,250)"/>
<path d="M0 0 C0.66 0 1.32 0 2 0 C2 3.3 2 6.6 2 10 C1.01 10.33 0.02 10.66 -1 11 C-1 11.66 -1 12.32 -1 13 C-11.19321395 13.53440151 -11.19321395 13.53440151 -16 10 C-18.19130534 9.30420546 -18.19130534 9.30420546 -20 9 C-19.67 8.01 -19.34 7.02 -19 6 C-18.35933594 6.37253906 -17.71867187 6.74507813 -17.05859375 7.12890625 C-11.36589692 10.42152436 -11.36589692 10.42152436 -5 10.9375 C-1.9204685 10.22980649 -1.9204685 10.22980649 0 8 C0.24212873 6.01871492 0.24212873 6.01871492 0.125 3.875 C0.08375 2.59625 0.0425 1.3175 0 0 Z " fill="#EBDF82" transform="translate(450,104)"/>
<path d="M0 0 C0.66 0.33 1.32 0.66 2 1 C1.57847656 1.47050781 1.15695312 1.94101563 0.72265625 2.42578125 C0.17480469 3.04839844 -0.37304688 3.67101562 -0.9375 4.3125 C-1.75541016 5.23482422 -1.75541016 5.23482422 -2.58984375 6.17578125 C-4.20081559 8.05241958 -4.20081559 8.05241958 -5 11 C-5.61875 10.814375 -6.2375 10.62875 -6.875 10.4375 C-9.04160178 9.76313824 -9.04160178 9.76313824 -11 11 C-11.33 9.68 -11.66 8.36 -12 7 C-10.04754815 5.80285445 -8.08785003 4.61751926 -6.125 3.4375 C-5.03445313 2.77621094 -3.94390625 2.11492187 -2.8203125 1.43359375 C-1.88960938 0.96050781 -0.95890625 0.48742187 0 0 Z " fill="#EADB72" transform="translate(273,67)"/>
<path d="M0 0 C1.61130844 3.17744001 3.13372179 6.38953675 4.625 9.625 C5.07101562 10.58664063 5.51703125 11.54828125 5.9765625 12.5390625 C7 15 7 15 7 17 C5.68 17.33 4.36 17.66 3 18 C3 17.01 3 16.02 3 15 C2.34 14.67 1.68 14.34 1 14 C0.20080426 9.28474515 -0.11971144 4.78845757 0 0 Z " fill="#DED36F" transform="translate(291,190)"/>
<path d="M0 0 C0 0.99 0 1.98 0 3 C-0.66 3.66 -1.32 4.32 -2 5 C-2.24556371 7.72000357 -2.37356486 10.34574257 -2.4140625 13.0703125 C-2.43342865 13.86654022 -2.4527948 14.66276794 -2.4727478 15.48312378 C-2.53260474 18.03030634 -2.57895279 20.57753395 -2.625 23.125 C-2.66317421 24.8502803 -2.70222561 26.57554143 -2.7421875 28.30078125 C-2.83831109 32.53369876 -2.92231908 36.76670549 -3 41 C-3.33 41 -3.66 41 -4 41 C-4.09895826 35.80393014 -4.17150993 30.60841002 -4.21972656 25.41162109 C-4.2398285 23.64427128 -4.26711472 21.87698787 -4.30175781 20.10986328 C-4.35034009 17.56786715 -4.37298226 15.02675104 -4.390625 12.484375 C-4.41127014 11.69569031 -4.43191528 10.90700562 -4.45318604 10.09442139 C-4.45470477 6.37219988 -4.3401694 4.42517073 -1.97558594 1.46972656 C-1.32364258 0.9847168 -0.67169922 0.49970703 0 0 Z " fill="#555555" transform="translate(169,428)"/>
<path d="M0 0 C-0.33 1.32 -0.66 2.64 -1 4 C-1.62648438 4.09796875 -2.25296875 4.1959375 -2.8984375 4.296875 C-3.71570313 4.44640625 -4.53296875 4.5959375 -5.375 4.75 C-6.18710937 4.88921875 -6.99921875 5.0284375 -7.8359375 5.171875 C-10.17709092 5.81749261 -10.17709092 5.81749261 -11.2890625 8.078125 C-11.52367187 8.71234375 -11.75828125 9.3465625 -12 10 C-13.98 10 -15.96 10 -18 10 C-13.67630171 6.12358085 -6.04191557 0 0 0 Z " fill="#E1D676" transform="translate(293,57)"/>
<path d="M0 0 C3.24276766 1.62138383 3.68904275 4.75110594 5 8 C5.83333333 10.16666667 5.83333333 10.16666667 8 11 C7.33333333 13.66666667 6.66666667 16.33333333 6 19 C4.98855432 16.77542155 3.99079735 14.54625709 3 12.3125 C2.71382813 11.68666016 2.42765625 11.06082031 2.1328125 10.41601562 C0.54255472 6.80007233 -0.36326652 3.95809151 0 0 Z " fill="#E9DD7A" transform="translate(279,116)"/>
<path d="M0 0 C2.01822917 0.06510417 4.03645833 0.13020833 6.0546875 0.1953125 C6.0546875 2.52864583 6.0546875 4.86197917 6.0546875 7.1953125 C2.7546875 5.5453125 -0.5453125 3.8953125 -3.9453125 2.1953125 C-1.9453125 0.1953125 -1.9453125 0.1953125 0 0 Z " fill="#E5D86D" transform="translate(336.9453125,265.8046875)"/>
<path d="M0 0 C0.33 0.99 0.66 1.98 1 3 C0.01 3.66 -0.98 4.32 -2 5 C-2 6.32 -2 7.64 -2 9 C-2.99 9 -3.98 9 -5 9 C-5 8.01 -5 7.02 -5 6 C-6.65 6.33 -8.3 6.66 -10 7 C-7.0094833 3.66442368 -4.06815373 1.84916079 0 0 Z " fill="#E5D874" transform="translate(256,77)"/>
<path d="M0 0 C1.32 0.66 2.64 1.32 4 2 C2.37829621 3.00533667 0.75252763 4.00411907 -0.875 5 C-2.23238281 5.8353125 -2.23238281 5.8353125 -3.6171875 6.6875 C-6 8 -6 8 -8 8 C-8 7.34 -8 6.68 -8 6 C-7.34 6 -6.68 6 -6 6 C-5.34 4.68 -4.68 3.36 -4 2 C-2.68 2 -1.36 2 0 2 C0 1.34 0 0.68 0 0 Z " fill="#E5DA73" transform="translate(426,233)"/>
<path d="M0 0 C-4.49101628 4.04191465 -9.58984989 6.43674441 -15 9 C-15.33 8.34 -15.66 7.68 -16 7 C-15.01 7 -14.02 7 -13 7 C-13 6.34 -13 5.68 -13 5 C-11.35 4.67 -9.7 4.34 -8 4 C-8 3.34 -8 2.68 -8 2 C-4.77208445 -0.1519437 -3.71599191 -0.20086443 0 0 Z " fill="#E7DC7A" transform="translate(456,219)"/>
<path d="M0 0 C0 0.66 0 1.32 0 2 C-0.99 2 -1.98 2 -3 2 C-3.226875 2.61875 -3.45375 3.2375 -3.6875 3.875 C-5.42148712 6.68240771 -6.84570354 7.17387474 -10 8 C-12.1640625 7.54296875 -12.1640625 7.54296875 -14 7 C-12.04480616 5.82807953 -10.0857461 4.6626071 -8.125 3.5 C-7.03445313 2.8503125 -5.94390625 2.200625 -4.8203125 1.53125 C-2 0 -2 0 0 0 Z " fill="#DDD272" transform="translate(341,29)"/>
<path d="M0 0 C-0.1875 1.875 -0.1875 1.875 -1 4 C-3.5625 5.25 -3.5625 5.25 -6 6 C-6 6.66 -6 7.32 -6 8 C-6.99 7.67 -7.98 7.34 -9 7 C-7.20098245 1.74133331 -5.88456942 0 0 0 Z " fill="#F1E276" transform="translate(329,37)"/>
<path d="M0 0 C0.66 0 1.32 0 2 0 C1.67 1.65 1.34 3.3 1 5 C0.01 5 -0.98 5 -2 5 C-1.67 5.99 -1.34 6.98 -1 8 C-1.99 8.99 -2.98 9.98 -4 11 C-4.64453125 9.234375 -4.64453125 9.234375 -5 7 C-4.07421875 5.078125 -4.07421875 5.078125 -2.6875 3.25 C-2.23761719 2.63640625 -1.78773438 2.0228125 -1.32421875 1.390625 C-0.88722656 0.93171875 -0.45023438 0.4728125 0 0 Z " fill="#A1735F" transform="translate(201,385)"/>
<path d="M0 0 C2.4375 0.375 2.4375 0.375 5 1 C5.33 1.66 5.66 2.32 6 3 C4.906875 3.433125 3.81375 3.86625 2.6875 4.3125 C-0.09408793 5.49495641 -2.06361939 6.60800043 -4 9 C-3.67 7.35 -3.34 5.7 -3 4 C-2.01 4 -1.02 4 0 4 C0 2.68 0 1.36 0 0 Z " fill="#F4E57F" transform="translate(262,98)"/>
<path d="M0 0 C2.475 0.99 2.475 0.99 5 2 C5.12375 3.134375 5.2475 4.26875 5.375 5.4375 C5.684375 7.2009375 5.684375 7.2009375 6 9 C6.66 9.33 7.32 9.66 8 10 C6.35 10.66 4.7 11.32 3 12 C3 8.7 3 5.4 3 2 C2.01 1.67 1.02 1.34 0 1 C0 0.67 0 0.34 0 0 Z " fill="#E3D879" transform="translate(383,147)"/>
<path d="M0 0 C2 2 2 2 2.375 4.875 C3.09874842 8.49374212 4.22210406 9.6701518 7 12 C4.33333333 11.33333333 1.66666667 10.66666667 -1 10 C-0.67 6.7 -0.34 3.4 0 0 Z " fill="#EBDF79" transform="translate(397,83)"/>
<path d="M0 0 C4.24005962 0.24941527 6.52418846 0.63554861 9.9375 3.25 C12 6 12 6 12.3125 8.8125 C12.1578125 9.8953125 12.1578125 9.8953125 12 11 C11.5875 10.4225 11.175 9.845 10.75 9.25 C7.56170042 5.15075768 4.99163926 2.66387975 0 1 C0 0.67 0 0.34 0 0 Z " fill="#1E0B06" transform="translate(364,383)"/>
<path d="M0 0 C0.103125 0.639375 0.20625 1.27875 0.3125 1.9375 C0.539375 2.618125 0.76625 3.29875 1 4 C1.99 4.33 2.98 4.66 4 5 C4.33 7.97 4.66 10.94 5 14 C1.57068046 10.2440786 0.43570917 5.76533255 -1 1 C-0.67 0.67 -0.34 0.34 0 0 Z " fill="#E6DB76" transform="translate(296,158)"/>
<path d="M0 0 C1.051875 0.639375 2.10375 1.27875 3.1875 1.9375 C6.10828412 3.61754452 8.6171743 4.58996052 12 5 C12 5.66 12 6.32 12 7 C5.375 6.25 5.375 6.25 2 4 C2 3.34 2 2.68 2 2 C1.34 2 0.68 2 0 2 C0 1.34 0 0.68 0 0 Z " fill="#E9DB7D" transform="translate(374,77)"/>
<path d="M0 0 C3.3 1.65 6.6 3.3 10 5 C6.52674819 6.1577506 3.63932552 6.06866652 0 6 C0 5.34 0 4.68 0 4 C0.66 4 1.32 4 2 4 C2 3.34 2 2.68 2 2 C1.34 2 0.68 2 0 2 C0 1.34 0 0.68 0 0 Z " fill="#E2D476" transform="translate(361,26)"/>
<path d="M0 0 C0.99 0 1.98 0 3 0 C4.59138085 4.17737474 5.21278058 7.53160785 5 12 C3.20931427 9.3139714 2.33944209 7.3373411 1.375 4.3125 C1.11460937 3.50425781 0.85421875 2.69601563 0.5859375 1.86328125 C0.39257812 1.24839844 0.19921875 0.63351563 0 0 Z " fill="#ECDF7B" transform="translate(286,136)"/>
<path d="M0 0 C-0.33 1.32 -0.66 2.64 -1 4 C-3.31 3.67 -5.62 3.34 -8 3 C-8 2.34 -8 1.68 -8 1 C-5.29120665 -0.35439668 -2.99066732 -0.06501451 0 0 Z " fill="#ECDD76" transform="translate(317,76)"/>
<path d="M0 0 C-1.1875 1.5 -1.1875 1.5 -3 3 C-5.6875 3.1875 -5.6875 3.1875 -8 3 C-7.67 2.01 -7.34 1.02 -7 0 C-4.3333581 -1.33332095 -2.83319697 -0.67102033 0 0 Z " fill="#251E0D" transform="translate(351,245)"/>
<path d="M0 0 C1.65 0 3.3 0 5 0 C5 0.66 5 1.32 5 2 C7.31 2.66 9.62 3.32 12 4 C10.265625 5.14453125 10.265625 5.14453125 8 6 C5.859375 5.13671875 5.859375 5.13671875 3.75 3.6875 C3.04359375 3.21699219 2.3371875 2.74648437 1.609375 2.26171875 C1.07828125 1.84535156 0.5471875 1.42898437 0 1 C0 0.67 0 0.34 0 0 Z " fill="#D7C970" transform="translate(264,227)"/>
<path d="M0 0 C2.97 0 5.94 0 9 0 C7.515 1.485 7.515 1.485 6 3 C2.8125 2.6875 2.8125 2.6875 0 2 C0 1.34 0 0.68 0 0 Z " fill="#DED478" transform="translate(349,275)"/>
<path d="M0 0 C-1.175625 0.12375 -1.175625 0.12375 -2.375 0.25 C-5.12640104 0.71610925 -5.12640104 0.71610925 -6.1875 2.9375 C-6.455625 3.618125 -6.72375 4.29875 -7 5 C-7.66 5.66 -8.32 6.32 -9 7 C-8.75 4.125 -8.75 4.125 -8 1 C-5.16896222 -1.24530582 -3.33143942 -1.18979979 0 0 Z " fill="#1E0D09" transform="translate(206,384)"/>
<path d="M0 0 C3.3 1.65 6.6 3.3 10 5 C6.59068103 6.13643966 5.99664544 5.86747764 2.8125 4.5625 C2.09707031 4.27503906 1.38164062 3.98757812 0.64453125 3.69140625 C0.10183594 3.46324219 -0.44085938 3.23507813 -1 3 C-0.67 2.01 -0.34 1.02 0 0 Z " fill="#D3CD70" transform="translate(431,110)"/>
<path d="M0 0 C4 4.75 4 4.75 4 7 C4.66 7.33 5.32 7.66 6 8 C1.25 7.125 1.25 7.125 -1 6 C-0.67 4.02 -0.34 2.04 0 0 Z " fill="#E8DA74" transform="translate(411,209)"/>
<path d="M0 0 C6.75 2.75 6.75 2.75 9 5 C5.28111761 4.49287967 2.26545761 3.88391785 -1 2 C-0.67 1.34 -0.34 0.68 0 0 Z " fill="#DFD478" transform="translate(414,57)"/>
<path d="M0 0 C0.66 0.33 1.32 0.66 2 1 C2 1.66 2 2.32 2 3 C2.66 3.66 3.32 4.32 4 5 C3.01 5.33 2.02 5.66 1 6 C-0.32 4.68 -1.64 3.36 -3 2 C-2.01 1.34 -1.02 0.68 0 0 Z " fill="#ECDD71" transform="translate(296,241)"/>
<path d="M0 0 C0.99 0.33 1.98 0.66 3 1 C2.67 2.65 2.34 4.3 2 6 C0.02 5.01 -1.96 4.02 -4 3 C-2.68 2.67 -1.36 2.34 0 2 C0 1.34 0 0.68 0 0 Z " fill="#E9DB75" transform="translate(254,217)"/>
<path d="M0 0 C0.99 0 1.98 0 3 0 C3.33 1.98 3.66 3.96 4 6 C3.34 6 2.68 6 2 6 C2 5.34 2 4.68 2 4 C1.34 4 0.68 4 0 4 C0 2.68 0 1.36 0 0 Z " fill="#E3D776" transform="translate(297,210)"/>
<path d="M0 0 C2.475 0.99 2.475 0.99 5 2 C4.67 2.99 4.34 3.98 4 5 C3.01 5 2.02 5 1 5 C0.67 3.35 0.34 1.7 0 0 Z " fill="#F1E57B" transform="translate(441,73)"/>
<path d="M0 0 C3.96 1.98 3.96 1.98 8 4 C7.34 4.66 6.68 5.32 6 6 C4.68 5.34 3.36 4.68 2 4 C2 3.34 2 2.68 2 2 C1.34 2 0.68 2 0 2 C0 1.34 0 0.68 0 0 Z " fill="#E4D677" transform="translate(430,66)"/>
<path d="M0 0 C4.455 0.99 4.455 0.99 9 2 C8.67 2.99 8.34 3.98 8 5 C5.33333333 3.66666667 2.66666667 2.33333333 0 1 C0 0.67 0 0.34 0 0 Z " fill="#D4CA70" transform="translate(365,54)"/>
<path d="M0 0 C0 0.66 0 1.32 0 2 C-0.61875 2.28875 -1.2375 2.5775 -1.875 2.875 C-4.13325765 3.93720042 -4.13325765 3.93720042 -6 6 C-6.99 5.34 -7.98 4.68 -9 4 C-2.25 0 -2.25 0 0 0 Z " fill="#555555" transform="translate(296,37)"/>
</svg>
